<svg id="Layer_1" data-name="Layer 1" xmlns="http://www.w3.org/2000/svg" viewBox="0 0 1277.98 420"><defs><style>.cls-1,.cls-2{fill:#fff;}.cls-2{font-size:140.03px;font-family:RobotoCondensed-Bold, Roboto Condensed;}.cls-3{font-weight:700;}.cls-4{font-family:RobotoCondensed-Light, Roboto Condensed;letter-spacing:0em;}</style></defs><title>Ninjatech Gaming horizontal white</title><path class="cls-1" d="M308,254.31l-4.5-2.61V241.6a33.71,33.71,0,0,1-17.69,5,34.28,34.28,0,0,1-9.43-1.34l-12.52-3.58-2.31-.67-2.32-.65-2.2-.63v12l-18.86,10.9-18.86-10.9V231.54c-1.45,0-2.92,0-4.37,0v20.13l-18.85,10.9-18.87-10.9V240l-2.23.64-2.14.62v10.48L154,262.61l-18.87-10.9v-6.5a31.26,31.26,0,0,1-4.57-2.24c-.8-.47-1.56-1-2.32-1.51s-1.56-1.2-2.3-1.85a30.11,30.11,0,0,1-2.34-2.28,30.58,30.58,0,0,1-4.81-6.94c0,.57,0,1.15.07,1.73l0,.86c0,.36,0,.73.07,1.09s0,1,.1,1.49c0,.2,0,.39,0,.59a.2.2,0,0,0,0,.08,1.63,1.63,0,0,0,0,.23c0,.32.06.62.09.93s0,.46.07.7.06.66.1,1,.06.42.08.65.09.73.14,1.09c0,.2,0,.4.08.6.07.47.13.94.21,1.42s.16,1,.25,1.52a2.11,2.11,0,0,0,.06.36c.08.5.18,1,.27,1.47,0,0,0,.06,0,.1.07.38.14.77.24,1.15s.11.61.18.91.19.87.29,1.31.22,1,.33,1.45c.42,1.74.87,3.46,1.39,5.16.22.72.44,1.44.67,2.14s.47,1.42.71,2.11l3.86-2.22,4.83-2.78,18.85,10.88v21.78l-4.62,2.67h0l-3.86,2.23c.48.56,1,1.11,1.5,1.66s1,1.1,1.53,1.64,1.2,1.23,1.82,1.84h0c.49.49,1,1,1.51,1.46,1.36,1.3,2.76,2.55,4.2,3.76.66.55,1.33,1.1,2,1.63s1.09.87,1.64,1.29c.25.2.5.38.75.56l1.56,1.16.24.17c.68.49,1.37,1,2.05,1.44l1.73,1.14c.58.38,1.17.75,1.75,1.11s1.18.73,1.78,1.08,1.2.7,1.81,1,1.14.64,1.71.94,1.3.69,2,1,1.45.73,2.19,1.07l1.08.52c.36.18.74.33,1.1.5V302.86L196.1,292,215,302.86v21.77l-3.19,1.85c1.05,0,2.12.11,3.19.13l.92,0,1.56,0h1.89c1.09,0,2.17-.07,3.25-.12l-3.25-1.88V302.86L238.18,292,257,302.86v15.51c.75-.31,1.47-.66,2.19-1s1.46-.7,2.18-1.06,1.26-.63,1.88-1c1-.53,2-1.09,3-1.66.45-.25.89-.51,1.34-.78q2.37-1.4,4.66-2.93c1.82-1.22,3.59-2.49,5.31-3.82l1.1-.87c.66-.51,1.32-1,2-1.58l1.59-1.36c1.05-.9,2.07-1.84,3.09-2.81s2-1.94,3-2.94l1.55-1.63.75-.83.75-.83-3.86-2.25-5-2.9V266.39l18.86-10.88,5.34,3.08,3.85,2.22c.5-1.4,1-2.82,1.4-4.25ZM193.91,288.18,175,299.06l-18.86-10.88V266.39L175,255.51l18.86,10.88Zm46.47,0V266.39l18.86-10.88,18.86,10.88v21.78l-18.86,10.88Z"/><polygon class="cls-1" points="125.56 199.77 107.94 174.85 92.44 184.27 74.51 176.37 72.08 188.83 92.75 198.25 107.63 187.31 125.56 199.77"/><polygon class="cls-1" points="126.08 197.53 96.24 203.93 98.81 221.88 84.49 235.25 94.99 242.39 111.78 227.1 107.58 209.11 126.08 197.53"/><path class="cls-1" d="M180.73,314.86q-1.77-.74-3.51-1.56h0c-.74-.34-1.47-.7-2.18-1.06v4.87l1.08.52,1.1.49a97.1,97.1,0,0,0,16.66,5.71,98.19,98.19,0,0,0,17.87,2.67l3.19-1.85v-2.4A93.53,93.53,0,0,1,180.73,314.86Zm0,0q-1.77-.74-3.51-1.56h0c-.74-.34-1.47-.7-2.18-1.06v4.87l1.08.52,1.1.49a97.1,97.1,0,0,0,16.66,5.71,98.19,98.19,0,0,0,17.87,2.67l3.19-1.85v-2.4A93.53,93.53,0,0,1,180.73,314.86Z"/><path class="cls-1" d="M215,324.64l-3.2,1.85c1.06.05,2.12.1,3.2.12l.92,0,1.56,0h1.88c1.1,0,2.17-.06,3.26-.11A98.15,98.15,0,0,0,257,318.37c.74-.31,1.47-.65,2.19-1s1.46-.7,2.18-1.07a99.06,99.06,0,0,0,26.91-19.71l1.55-1.64c.5-.55,1-1.1,1.5-1.66a98.81,98.81,0,0,0,19.15-32.51c.5-1.4,1-2.82,1.39-4.25A98.9,98.9,0,0,0,316.13,228v-.28a32,32,0,0,1-4.61,7.13A93.67,93.67,0,0,1,308,254.31c-.41,1.43-.86,2.86-1.35,4.28q-1.05,3.06-2.33,6.08a93.7,93.7,0,0,1-16.83,26.41c-.5.56-1,1.11-1.52,1.66s-1,1.09-1.57,1.63l-.28.28a93.79,93.79,0,0,1-22.71,16.77c-.72.39-1.45.75-2.18,1.12s-1.45.7-2.19,1q-1.43.67-2.89,1.28a93.67,93.67,0,0,1-34.83,7.39l-1.88,0c-.83,0-1.67,0-2.49,0Z"/><path class="cls-1" d="M314.8,211.72a98.08,98.08,0,0,0-12.06-33.43l-4.62.78-55.78,9.55a149.62,149.62,0,0,1-49.8.09l-55.93-9.38h0l-4.61-.77c-.35.59-.68,1.18-1,1.78s-.65,1.19-1,1.8-.62,1.2-.92,1.81h0c-.31.61-.61,1.22-.89,1.84s-.58,1.24-.86,1.87-.66,1.5-1,2.25l0,.06-.22.54-.15.37-.22.56c-.25.64-.51,1.29-.74,1.93s-.39,1-.56,1.54c-.12.33-.23.66-.34,1l-.41,1.21h0s0,.1,0,.15-.12.35-.17.53-.07.22-.1.33h0l0,.09h0c-.07.21-.13.43-.2.64l-.11.37s0,.09,0,.14a1.17,1.17,0,0,0,0,.13h0c-.33,1.1-.64,2.21-.93,3.33-.13.47-.25,1-.37,1.44s-.25,1-.35,1.48c0,.22-.1.43-.15.64s0,.24-.07.35l0,.11c-.19.84-.35,1.67-.51,2.51-.12.63-.24,1.27-.35,1.91-.16,1-.31,1.91-.45,2.88,0,.32-.09.64-.13,1-.09.65-.17,1.3-.24,1.95.53,1.87,1.22,4.29,1.44,5.09l0,.13a.7.7,0,0,0,0,.08,25.42,25.42,0,0,0,2.3,6.39,1.16,1.16,0,0,0,.08.16,25,25,0,0,0,2.71,4.11,26.67,26.67,0,0,0,2.3,2.52,25.33,25.33,0,0,0,2.32,2c.5.39,1,.75,1.55,1.1a27.05,27.05,0,0,0,22.2,3.26l16.07-4.61,4.62-1.34,19.92-5.72a80.64,80.64,0,0,1,14.51-2.79c2.29-.23,4.57-.35,6.86-.39h1.67c2.34,0,4.65.12,7,.33A80.74,80.74,0,0,1,240,230.17l19.26,5.5,2.32.66,2.31.66,13.83,4A29.26,29.26,0,0,0,302,237.21c.59-.38,1.15-.78,1.69-1.21a28.05,28.05,0,0,0,2.32-2,26.39,26.39,0,0,0,2.3-2.49,27.33,27.33,0,0,0,3.43-5.34c.06-.15.14-.28.21-.43a61.52,61.52,0,0,0,3.65-8.12Q315.29,214.64,314.8,211.72Zm-117.57,7.07c-2.38-.1-4.78-.21-7.17-.29a81.51,81.51,0,0,0-15.23,1.22,23,23,0,0,1-10.79-.27,22.3,22.3,0,0,1-14.68-14.77l-1.93-6.52c19.63,2.33,36.83,11.37,53.85,20.82C200.43,218.49,198.19,218.83,197.23,218.78Zm86.85-14.11a22.33,22.33,0,0,1-14.69,14.77,23,23,0,0,1-10.79.27,81.51,81.51,0,0,0-15.23-1.22c-2.4.08-4.78.2-7.17.29-1,.05-3.2-.29-4.06.19,17-9.45,34.23-18.49,53.85-20.82Z"/><path class="cls-1" d="M302.74,178.28l-4.62.78a94.38,94.38,0,0,0-161.51.27h0l-4.61-.77a99,99,0,0,1,48.43-42.11,39,39,0,0,0,19-16.4l6.72-11.44,5.34,17.14a1.62,1.62,0,0,0,3,.3l17.79-32.7,2.69,9.33A66.4,66.4,0,0,0,266.06,142,99.37,99.37,0,0,1,302.74,178.28Z"/><path class="cls-1" d="M118.78,230.38q0,.87.06,1.74l0,.85c0,.37,0,.73.07,1.09s.05,1,.1,1.5c0,.29,0,.6.07.89s.05.62.08.93,0,.46.07.69.06.66.1,1,.05.43.07.65.09.73.14,1.09c0,.2.05.41.08.6.06.48.12.94.2,1.42s.15,1,.24,1.52a2.29,2.29,0,0,0,.06.37c.08.5.17,1,.26,1.47,0,0,0,.06,0,.09.07.39.14.77.23,1.16s.11.61.18.91.18.86.28,1.3.21,1,.34,1.45q.62,2.61,1.38,5.16c.21.71.45,1.43.67,2.14s.47,1.41.71,2.11a98.49,98.49,0,0,0,19,32.56c.49.56,1,1.12,1.5,1.67s1,1.1,1.53,1.64A98.93,98.93,0,0,0,172.85,316c.72.38,1.45.73,2.18,1.08v-4.87c-.73-.37-1.46-.75-2.18-1.14a94.12,94.12,0,0,1-22.1-16.44l-.51-.52c-.53-.54-1.06-1.08-1.56-1.63s-1-1.1-1.51-1.66a93.59,93.59,0,0,1-16.63-26.18c-.88-2.1-1.7-4.24-2.43-6.38-.24-.71-.48-1.42-.69-2.13s-.45-1.43-.65-2.15a92.62,92.62,0,0,1-3.18-16.68A30.38,30.38,0,0,1,118.78,230.38Z"/><line class="cls-1" x1="201.29" y1="170.72" x2="169.58" y2="159.31"/><rect class="cls-1" x="183.27" y="148.16" width="4.33" height="33.7" transform="translate(-32.61 283.64) rotate(-70.21)"/><line class="cls-1" x1="232.39" y1="170.72" x2="264.1" y2="159.31"/><rect class="cls-1" x="231.39" y="162.85" width="33.7" height="4.33" transform="translate(-41.21 93.79) rotate(-19.79)"/><text class="cls-2" transform="translate(334.62 270.74)"><tspan class="cls-3">ninjalig </tspan><tspan class="cls-4" x="446.68" y="0">Gamers</tspan></text></svg>