<svg id="Layer_1" data-name="Layer 1" xmlns="http://www.w3.org/2000/svg" xmlns:xlink="http://www.w3.org/1999/xlink" viewBox="0 0 1277.98 420"><defs><style>.cls-1{fill:url(#linear-gradient);}.cls-2{fill:url(#linear-gradient-2);}.cls-3{fill:url(#linear-gradient-3);}.cls-4{fill:url(#linear-gradient-4);}</style><linearGradient id="linear-gradient" x1="72.08" y1="187.31" x2="125.56" y2="187.31" gradientUnits="userSpaceOnUse"><stop offset="0" stop-color="#f0f"/><stop offset="1" stop-color="blue"/></linearGradient><linearGradient id="linear-gradient-2" x1="84.49" y1="219.96" x2="126.08" y2="219.96" xlink:href="#linear-gradient"/><linearGradient id="linear-gradient-3" x1="119.35" y1="210.61" x2="315.6" y2="210.61" xlink:href="#linear-gradient"/><linearGradient id="linear-gradient-4" x1="339.04" y1="233.17" x2="1121.09" y2="233.17" xlink:href="#linear-gradient"/></defs><title>Ninjatech Gaming horizontal gradient</title><path d="M308,254.31l-4.5-2.61V241.6a33.71,33.71,0,0,1-17.69,5,34.28,34.28,0,0,1-9.43-1.34l-12.52-3.58-2.31-.67-2.32-.65-2.2-.63v12l-18.86,10.9-18.86-10.9V231.54c-1.45,0-2.92,0-4.37,0v20.13l-18.85,10.9-18.87-10.9V240l-2.23.64-2.14.62v10.48L154,262.61l-18.87-10.9v-6.5a31.26,31.26,0,0,1-4.57-2.24c-.8-.47-1.56-1-2.32-1.51s-1.56-1.2-2.3-1.85a30.11,30.11,0,0,1-2.34-2.28,30.58,30.58,0,0,1-4.81-6.94c0,.57,0,1.15.07,1.73l0,.86c0,.36,0,.73.07,1.09s0,1,.1,1.49c0,.2,0,.39,0,.59a.2.2,0,0,0,0,.08,1.63,1.63,0,0,0,0,.23c0,.32.06.62.09.93s0,.46.07.7.06.66.1,1,.06.42.08.65.09.73.14,1.09c0,.2,0,.4.08.6.07.47.13.94.21,1.42s.16,1,.25,1.52a2.11,2.11,0,0,0,.06.36c.08.5.18,1,.27,1.47,0,0,0,.06,0,.1.07.38.14.77.24,1.15s.11.61.18.91.19.87.29,1.31.22,1,.33,1.45c.42,1.74.87,3.46,1.39,5.16.22.72.44,1.44.67,2.14s.47,1.42.71,2.11l3.86-2.22,4.83-2.78,18.85,10.88v21.78l-4.62,2.67h0l-3.86,2.23c.48.56,1,1.11,1.5,1.66s1,1.1,1.53,1.64,1.2,1.23,1.82,1.84h0c.49.49,1,1,1.51,1.46,1.36,1.3,2.76,2.55,4.2,3.76.66.55,1.33,1.1,2,1.63s1.09.87,1.64,1.29c.25.2.5.38.75.56l1.56,1.16.24.17c.68.49,1.37,1,2.05,1.44l1.73,1.14c.58.38,1.17.75,1.75,1.11s1.18.73,1.78,1.08,1.2.7,1.81,1,1.14.64,1.71.94,1.3.69,2,1,1.45.73,2.19,1.07l1.08.52c.36.18.74.33,1.1.5V302.86L196.1,292,215,302.86v21.77l-3.19,1.85c1.05,0,2.12.11,3.19.13l.92,0,1.56,0h1.89c1.09,0,2.17-.07,3.25-.12l-3.25-1.88V302.86L238.18,292,257,302.86v15.51c.75-.31,1.47-.66,2.19-1s1.46-.7,2.18-1.06,1.26-.63,1.88-1c1-.53,2-1.09,3-1.66.45-.25.89-.51,1.34-.78q2.37-1.4,4.66-2.93c1.82-1.22,3.59-2.49,5.31-3.82l1.1-.87c.66-.51,1.32-1,2-1.58l1.59-1.36c1.05-.9,2.07-1.84,3.09-2.81s2-1.94,3-2.94l1.55-1.63.75-.83.75-.83-3.86-2.25-5-2.9V266.39l18.86-10.88,5.34,3.08,3.85,2.22c.5-1.4,1-2.82,1.4-4.25ZM193.91,288.18,175,299.06l-18.86-10.88V266.39L175,255.51l18.86,10.88Zm46.47,0V266.39l18.86-10.88,18.86,10.88v21.78l-18.86,10.88Z"/><polygon class="cls-1" points="125.56 199.77 107.94 174.85 92.44 184.27 74.51 176.37 72.08 188.83 92.75 198.25 107.63 187.31 125.56 199.77"/><polygon class="cls-2" points="126.08 197.53 96.24 203.93 98.81 221.88 84.49 235.25 94.99 242.39 111.78 227.1 107.58 209.11 126.08 197.53"/><path d="M180.73,314.86q-1.77-.74-3.51-1.56h0c-.74-.34-1.47-.7-2.18-1.06v4.87l1.08.52,1.1.49a97.1,97.1,0,0,0,16.66,5.71,98.19,98.19,0,0,0,17.87,2.67l3.19-1.85v-2.4A93.53,93.53,0,0,1,180.73,314.86Zm0,0q-1.77-.74-3.51-1.56h0c-.74-.34-1.47-.7-2.18-1.06v4.87l1.08.52,1.1.49a97.1,97.1,0,0,0,16.66,5.71,98.19,98.19,0,0,0,17.87,2.67l3.19-1.85v-2.4A93.53,93.53,0,0,1,180.73,314.86Z"/><path d="M215,324.64l-3.2,1.85c1.06.05,2.12.1,3.2.12l.92,0,1.56,0h1.88c1.1,0,2.17-.06,3.26-.11A98.15,98.15,0,0,0,257,318.37c.74-.31,1.47-.65,2.19-1s1.46-.7,2.18-1.07a99.06,99.06,0,0,0,26.91-19.71l1.55-1.64c.5-.55,1-1.1,1.5-1.66a98.81,98.81,0,0,0,19.15-32.51c.5-1.4,1-2.82,1.39-4.25A98.9,98.9,0,0,0,316.13,228v-.28a32,32,0,0,1-4.61,7.13A93.67,93.67,0,0,1,308,254.31c-.41,1.43-.86,2.86-1.35,4.28q-1.05,3.06-2.33,6.08a93.7,93.7,0,0,1-16.83,26.41c-.5.56-1,1.11-1.52,1.66s-1,1.09-1.57,1.63l-.28.28a93.79,93.79,0,0,1-22.71,16.77c-.72.39-1.45.75-2.18,1.12s-1.45.7-2.19,1q-1.43.67-2.89,1.28a93.67,93.67,0,0,1-34.83,7.39l-1.88,0c-.83,0-1.67,0-2.49,0Z"/><path class="cls-3" d="M314.8,211.72a98.08,98.08,0,0,0-12.06-33.43l-4.62.78-55.78,9.55a149.62,149.62,0,0,1-49.8.09l-55.93-9.38h0l-4.61-.77c-.35.59-.68,1.18-1,1.78s-.65,1.19-1,1.8-.62,1.2-.92,1.81h0c-.31.61-.61,1.22-.89,1.84s-.58,1.24-.86,1.87-.66,1.5-1,2.25l0,.06-.22.54-.15.37-.22.56c-.25.64-.51,1.29-.74,1.93s-.39,1-.56,1.54c-.12.33-.23.66-.34,1l-.41,1.21h0s0,.1,0,.15-.12.35-.17.53-.07.22-.1.33h0l0,.09h0c-.07.21-.13.43-.2.64l-.11.37s0,.09,0,.14a1.17,1.17,0,0,0,0,.13h0c-.33,1.1-.64,2.21-.93,3.33-.13.47-.25,1-.37,1.44s-.25,1-.35,1.48c0,.22-.1.43-.15.64s0,.24-.07.35l0,.11c-.19.84-.35,1.67-.51,2.51-.12.63-.24,1.27-.35,1.91-.16,1-.31,1.91-.45,2.88,0,.32-.09.64-.13,1-.09.65-.17,1.3-.24,1.95.53,1.87,1.22,4.29,1.44,5.09l0,.13a.7.7,0,0,0,0,.08,25.42,25.42,0,0,0,2.3,6.39,1.16,1.16,0,0,0,.08.16,25,25,0,0,0,2.71,4.11,26.67,26.67,0,0,0,2.3,2.52,25.33,25.33,0,0,0,2.32,2c.5.39,1,.75,1.55,1.1a27.05,27.05,0,0,0,22.2,3.26l16.07-4.61,4.62-1.34,19.92-5.72a80.64,80.64,0,0,1,14.51-2.79c2.29-.23,4.57-.35,6.86-.39h1.67c2.34,0,4.65.12,7,.33A80.74,80.74,0,0,1,240,230.17l19.26,5.5,2.32.66,2.31.66,13.83,4A29.26,29.26,0,0,0,302,237.21c.59-.38,1.15-.78,1.69-1.21a28.05,28.05,0,0,0,2.32-2,26.39,26.39,0,0,0,2.3-2.49,27.33,27.33,0,0,0,3.43-5.34c.06-.15.14-.28.21-.43a61.52,61.52,0,0,0,3.65-8.12Q315.29,214.64,314.8,211.72Zm-117.57,7.07c-2.38-.1-4.78-.21-7.17-.29a81.51,81.51,0,0,0-15.23,1.22,23,23,0,0,1-10.79-.27,22.3,22.3,0,0,1-14.68-14.77l-1.93-6.52c19.63,2.33,36.83,11.37,53.85,20.82C200.43,218.49,198.19,218.83,197.23,218.78Zm86.85-14.11a22.33,22.33,0,0,1-14.69,14.77,23,23,0,0,1-10.79.27,81.51,81.51,0,0,0-15.23-1.22c-2.4.08-4.78.2-7.17.29-1,.05-3.2-.29-4.06.19,17-9.45,34.23-18.49,53.85-20.82Z"/><path d="M302.74,178.28l-4.62.78a94.38,94.38,0,0,0-161.51.27h0l-4.61-.77a99,99,0,0,1,48.43-42.11,39,39,0,0,0,19-16.4l6.72-11.44,5.34,17.14a1.62,1.62,0,0,0,3,.3l17.79-32.7,2.69,9.33A66.4,66.4,0,0,0,266.06,142,99.37,99.37,0,0,1,302.74,178.28Z"/><path d="M118.78,230.38q0,.87.06,1.74l0,.85c0,.37,0,.73.07,1.09s.05,1,.1,1.5c0,.29,0,.6.07.89s.05.62.08.93,0,.46.07.69.06.66.1,1,.05.43.07.65.09.73.14,1.09c0,.2.05.41.08.6.06.48.12.94.2,1.42s.15,1,.24,1.52a2.29,2.29,0,0,0,.06.37c.08.5.17,1,.26,1.47,0,0,0,.06,0,.09.07.39.14.77.23,1.16s.11.61.18.91.18.86.28,1.3.21,1,.34,1.45q.62,2.61,1.38,5.16c.21.71.45,1.43.67,2.14s.47,1.41.71,2.11a98.49,98.49,0,0,0,19,32.56c.49.56,1,1.12,1.5,1.67s1,1.1,1.53,1.64A98.93,98.93,0,0,0,172.85,316c.72.38,1.45.73,2.18,1.08v-4.87c-.73-.37-1.46-.75-2.18-1.14a94.12,94.12,0,0,1-22.1-16.44l-.51-.52c-.53-.54-1.06-1.08-1.56-1.63s-1-1.1-1.51-1.66a93.59,93.59,0,0,1-16.63-26.18c-.88-2.1-1.7-4.24-2.43-6.38-.24-.71-.48-1.42-.69-2.13s-.45-1.43-.65-2.15a92.62,92.62,0,0,1-3.18-16.68A30.38,30.38,0,0,1,118.78,230.38Z"/><line x1="201.29" y1="170.72" x2="169.58" y2="159.31"/><rect x="183.27" y="148.16" width="4.33" height="33.7" transform="translate(-32.61 283.64) rotate(-70.21)"/><line x1="232.39" y1="170.72" x2="264.1" y2="159.31"/><rect x="231.39" y="162.85" width="33.7" height="4.33" transform="translate(-41.21 93.79) rotate(-19.79)"/><path class="cls-4" d="M359.37,196.76l.55,7.32a20.52,20.52,0,0,1,17.16-8.68q19.08,0,19.62,26.73v48.61H377.29V223.57q0-6.29-1.88-9.13t-6.6-2.84q-5.27,0-8.21,5.4v53.74H341.18v-74Z"/><path class="cls-4" d="M410.58,177.62a10,10,0,0,1,2.87-7.38,11.65,11.65,0,0,1,15.32,0,10,10,0,0,1,2.87,7.38,10.53,10.53,0,1,1-21.06,0Zm20.31,93.12H411.47v-74h19.42Z"/><path class="cls-4" d="M463.57,196.76l.55,7.32a20.52,20.52,0,0,1,17.16-8.68q19.08,0,19.62,26.73v48.61H481.49V223.57q0-6.29-1.88-9.13T473,211.6q-5.27,0-8.21,5.4v53.74H445.38v-74Z"/><path class="cls-4" d="M535.16,196.76v77.95q0,12.65-5.81,19.28t-16.48,6.63a33,33,0,0,1-8.75-1.16L504,283.67a28.81,28.81,0,0,0,5.13.62q6.43,0,6.56-9V196.76Zm-20.72-19.14a10,10,0,0,1,2.87-7.38,11.65,11.65,0,0,1,15.32,0,10,10,0,0,1,2.87,7.38,10.53,10.53,0,1,1-21.06,0Z"/><path class="cls-4" d="M584.32,270.74a27,27,0,0,1-1.64-5.74,16.54,16.54,0,0,1-14.08,7.11A20.84,20.84,0,0,1,553.17,266q-6.12-6.15-6.12-15.93,0-11.62,7.42-18t21.37-6.5h5.88V219.6q0-5-1.71-7a6.13,6.13,0,0,0-5-2.05q-7.25,0-7.25,8.48H548.42a21.42,21.42,0,0,1,7.69-16.92q7.69-6.67,19.45-6.67,12.17,0,18.84,6.32t6.67,18.08v34.8q.14,9.57,2.74,15v1.16ZM572.9,256.93a10.79,10.79,0,0,0,5.47-1.3,9.18,9.18,0,0,0,3.35-3.08V237.17h-4.65a9.92,9.92,0,0,0-7.76,3.15,12.08,12.08,0,0,0-2.84,8.41Q566.47,256.93,572.9,256.93Z"/><path class="cls-4" d="M635.39,270.74H616v-105h19.42Z"/><path class="cls-4" d="M650.37,177.62a10,10,0,0,1,2.87-7.38,11.65,11.65,0,0,1,15.32,0,10,10,0,0,1,2.87,7.38,10.53,10.53,0,1,1-21.06,0Zm20.31,93.12H651.26v-74h19.42Z"/><path class="cls-4" d="M683.32,231.5q0-18.19,6.56-27.14t18.39-9q10.05,0,15.52,7.93l.75-6.56H742v74q0,14.15-7.93,21.64t-22.77,7.49a37.55,37.55,0,0,1-12.79-2.43q-6.7-2.43-10-6.19l6.5-13.4a20.46,20.46,0,0,0,7.11,4.68,21.67,21.67,0,0,0,8.27,1.81q6.49,0,9.33-3.11t2.91-10v-6.36a17.33,17.33,0,0,1-14.43,7.25q-11.83,0-18.29-9.2T683.32,237Zm19.35,4.85q0,10.26,2.67,14.94t8.48,4.68q5.95,0,8.82-4.31V216.32A9.69,9.69,0,0,0,714,211.6a9.2,9.2,0,0,0-8.51,4.72q-2.77,4.72-2.77,15.18Z"/><path class="cls-4" d="M853.71,259.19a31.19,31.19,0,0,1-12.58,9.67,41.8,41.8,0,0,1-16.61,3.25q-15.32,0-24.07-10.26t-9.09-28.44v-24.2q0-19.08,8.31-29.23t23.69-10.15q13.74,0,21.54,7.59t8.75,21.88h-7.79q-1.23-11.49-6.73-16.79t-15.69-5.3q-12.17,0-18.22,8.1t-6.05,23.76v23q0,15.59,6.67,24.2t18.7,8.62q13.06,0,21.33-8.27V230.68H824v-7.32h29.67Z"/><path class="cls-4" d="M913.6,270.74a48,48,0,0,1-1.37-10.26,24.36,24.36,0,0,1-8.79,8.58,23.25,23.25,0,0,1-11.66,3q-9.57,0-14.91-5.4t-5.33-15.38q0-10.87,7.42-17.23t20.48-6.43h12.72V217.34q0-7.93-3.93-11.38t-11.52-3.45a16.52,16.52,0,0,0-11.56,4.1,13.67,13.67,0,0,0-4.51,10.6l-7.59-.07a20.21,20.21,0,0,1,6.84-15.42q6.84-6.32,17.16-6.32,11.14,0,16.89,5.61t5.74,16.34v36.31q0,10.87,2,16.27v.82Zm-20.85-5.95a20.69,20.69,0,0,0,11.86-3.49,20.31,20.31,0,0,0,7.56-9.3V234h-12q-10.39.14-15.66,4.62a15,15,0,0,0-5.26,12.07Q879.21,264.8,892.75,264.8Z"/><path class="cls-4" d="M947.38,196.76l.21,11.08q6.9-12.44,19.83-12.44,14.29,0,18.46,13.61a25.18,25.18,0,0,1,9-10.19,22.31,22.31,0,0,1,12-3.42q20,0,20.44,25.71v49.64h-7.59V221.58q-.14-9.57-3.55-14.26t-11.21-4.68a15.92,15.92,0,0,0-11.9,5.47,22,22,0,0,0-5.54,13.4v49.23h-7.66v-49q0-9.71-3.59-14.43t-11.18-4.72A15.13,15.13,0,0,0,954.32,207q-4.55,4.31-6.6,12.31v51.48h-7.59v-74Z"/><path class="cls-4" d="M1071.54,272.11q-13.06,0-20.44-8.55t-7.52-24.34v-9q0-16.27,7.11-25.54t19.55-9.26q12,0,18.36,7.86t6.46,24.07v7.11h-44v4.17q0,12.72,5.44,19.62t15.35,6.91a22.08,22.08,0,0,0,17.71-8l4,5.06Q1086.31,272.11,1071.54,272.11Zm-1.3-69.6q-9,0-13.78,6.32t-5.3,18.49h36.31v-2Q1086.93,202.51,1070.25,202.51Z"/><path class="cls-4" d="M1140.19,203.88a28.31,28.31,0,0,0-4.79-.48,14.29,14.29,0,0,0-10.56,4.31q-4.27,4.31-6.05,12v51.07h-7.59v-74h7.45l.14,11.08q5.4-12.44,17-12.44a9.49,9.49,0,0,1,4.58.89Z"/><path class="cls-4" d="M1190.51,252.51a11,11,0,0,0-4-8.36q-4-3.58-13.44-7.85t-13.23-7.1a19.11,19.11,0,0,1-5.54-6.19,16.69,16.69,0,0,1-1.78-7.93,18.22,18.22,0,0,1,6.15-14.12q6.15-5.57,15.93-5.57,10.53,0,16.82,5.95t6.29,15.73h-7.59a13.85,13.85,0,0,0-4.31-10.43,15.52,15.52,0,0,0-11.21-4.14q-6.7,0-10.63,3.42a11.23,11.23,0,0,0-3.93,8.89,9.46,9.46,0,0,0,3,7.25q3,2.8,13,7.59,10.32,4.51,14.22,7.45a21,21,0,0,1,5.88,6.53,17.35,17.35,0,0,1,2,8.51q0,9.16-6.36,14.56t-16.75,5.4q-11,0-17.81-6a19.76,19.76,0,0,1-6.8-15.52h7.66q.34,6.87,4.62,10.65t12.34,3.78q7,0,11.21-3.41A11.07,11.07,0,0,0,1190.51,252.51Z"/></svg>