<svg id="Layer_1" data-name="Layer 1" xmlns="http://www.w3.org/2000/svg" xmlns:xlink="http://www.w3.org/1999/xlink" viewBox="0 0 1200 1147.18"><defs><style>.cls-1{fill:url(#linear-gradient);}.cls-2{fill:url(#linear-gradient-2);}.cls-3{fill:url(#linear-gradient-3);}</style><linearGradient id="linear-gradient" x1="74.23" y1="475.82" x2="304.65" y2="475.82" gradientUnits="userSpaceOnUse"><stop offset="0" stop-color="#f0f"/><stop offset="1" stop-color="blue"/></linearGradient><linearGradient id="linear-gradient-2" x1="127.68" y1="616.49" x2="306.89" y2="616.49" xlink:href="#linear-gradient"/><linearGradient id="linear-gradient-3" x1="277.88" y1="576.2" x2="1123.46" y2="576.2" xlink:href="#linear-gradient"/></defs><title>Ninjatech Gaming icon gradient</title><path d="M1090.85,764.51l-19.4-11.22V709.75a145.26,145.26,0,0,1-76.24,21.56,147.68,147.68,0,0,1-40.62-5.76l-54-15.42-10-2.88-10-2.8-9.49-2.71v51.55l-81.28,47-81.24-47V666.41c-6.27-.17-12.58-.17-18.85.13v86.75l-81.24,47-81.33-47V702.71l-9.62,2.75-9.23,2.67v45.15l-81.28,47-81.29-47v-28a134.67,134.67,0,0,1-19.7-9.66c-3.43-2-6.73-4.19-10-6.52-3.39-2.5-6.73-5.17-9.91-8a129.74,129.74,0,0,1-10.08-9.83,131.77,131.77,0,0,1-20.71-29.9c0,2.46.17,5,.3,7.45q.06,1.84.13,3.69c.08,1.57.17,3.13.3,4.7.08,2.12.21,4.32.42,6.44,0,.85.13,1.69.21,2.54a.84.84,0,0,0,0,.34,7,7,0,0,0,0,1c.08,1.4.25,2.67.38,4,.08,1,.17,2,.3,3,.13,1.4.25,2.84.42,4.24.08.93.25,1.82.34,2.8.21,1.57.38,3.13.59,4.7.08.85.21,1.74.34,2.58.3,2,.55,4.07.89,6.1.3,2.2.68,4.41,1.06,6.57a9.1,9.1,0,0,0,.25,1.57c.34,2.16.76,4.24,1.14,6.35,0,.13,0,.25,0,.42.3,1.65.59,3.3,1,5q.32,2,.76,3.94c.38,1.91.81,3.73,1.23,5.63s.93,4.15,1.44,6.23c1.82,7.5,3.77,14.91,6,22.24.93,3.09,1.91,6.18,2.88,9.23s2,6.1,3.05,9.11l16.65-9.57,20.8-12,81.24,46.89v93.86L397.76,922h0l-16.65,9.62c2.07,2.41,4.28,4.79,6.48,7.16s4.36,4.74,6.61,7.07c2.58,2.67,5.17,5.29,7.84,7.92a0,0,0,0,0,0,0c2.12,2.12,4.32,4.24,6.52,6.27,5.85,5.59,11.9,11,18.09,16.18,2.84,2.37,5.72,4.74,8.6,7,2.33,1.91,4.7,3.73,7.07,5.55,1.06.85,2.16,1.65,3.22,2.41,2.25,1.69,4.49,3.35,6.74,5,.34.21.68.47,1,.72,2.92,2.12,5.89,4.15,8.85,6.18,2.46,1.65,5,3.3,7.46,4.91s5,3.22,7.54,4.79,5.08,3.13,7.67,4.66,5.17,3,7.8,4.45c2.41,1.4,4.91,2.75,7.37,4.07,2.8,1.48,5.59,3,8.43,4.41,3.13,1.61,6.27,3.13,9.45,4.62l4.66,2.25c1.57.76,3.18,1.44,4.74,2.16v-65.7l81.33-47,81.24,47v93.82l-13.77,8c4.53.21,9.15.47,13.77.55,1.31,0,2.63.08,4,.08,2.24,0,4.49.08,6.73.08,1.44,0,2.84,0,4.19,0s2.67,0,3.94,0c4.7-.08,9.36-.3,14-.51l-14-8.09V973.72l81.24-47,81.28,47v66.84c3.22-1.36,6.35-2.84,9.45-4.28s6.31-3,9.4-4.57c2.71-1.36,5.42-2.71,8.09-4.15,4.36-2.29,8.73-4.7,13-7.16,2-1.06,3.86-2.2,5.76-3.35q10.23-6,20.08-12.62c7.84-5.25,15.46-10.72,22.87-16.48,1.61-1.23,3.18-2.46,4.74-3.73,2.84-2.2,5.68-4.49,8.47-6.82l6.86-5.85c4.53-3.9,8.94-7.92,13.3-12.11s8.6-8.34,12.79-12.66c2.24-2.33,4.45-4.66,6.69-7,1.06-1.19,2.12-2.37,3.22-3.56s2.16-2.37,3.22-3.56l-16.65-9.7-21.69-12.5V816.57L1062,769.68l23,13.26,16.61,9.57c2.16-6,4.15-12.16,6-18.3ZM599.12,910.43l-81.28,46.89-81.28-46.89V816.57l81.28-46.89,81.28,46.89Zm200.22,0V816.57l81.28-46.89,81.28,46.89v93.86l-81.28,46.89Z"/><polygon class="cls-1" points="304.65 529.5 228.71 422.14 161.94 462.73 84.7 428.69 74.23 482.37 163.25 522.95 227.4 475.82 304.65 529.5"/><polygon class="cls-2" points="306.89 519.85 178.32 547.42 189.36 624.77 127.68 682.39 172.91 713.14 245.25 647.26 227.16 569.74 306.89 519.85"/><path d="M542.37,1025.39q-7.63-3.18-15.12-6.74v0c-3.18-1.48-6.35-3-9.4-4.57v21l4.66,2.25c1.57.72,3.18,1.44,4.74,2.12A418.36,418.36,0,0,0,599,1064a423.09,423.09,0,0,0,77,11.52l13.77-8V1057.2A403,403,0,0,1,542.37,1025.39Zm0,0q-7.63-3.18-15.12-6.74v0c-3.18-1.48-6.35-3-9.4-4.57v21l4.66,2.25c1.57.72,3.18,1.44,4.74,2.12A418.36,418.36,0,0,0,599,1064a423.09,423.09,0,0,0,77,11.52l13.77-8V1057.2A403,403,0,0,1,542.37,1025.39Z"/><path d="M689.82,1067.54l-13.79,8c4.55.22,9.15.44,13.79.53,1.31,0,2.63.09,4,.09,2.23,0,4.46.09,6.74.09,1.4,0,2.8,0,4.16,0s2.67,0,3.94,0c4.73-.09,9.37-.26,14-.48a422.9,422.9,0,0,0,148.5-35.1c3.19-1.36,6.34-2.8,9.45-4.25s6.3-3,9.41-4.6A426.83,426.83,0,0,0,1006,946.79c2.28-2.36,4.46-4.68,6.7-7s4.33-4.73,6.48-7.13a425.74,425.74,0,0,0,82.5-140.09c2.14-6,4.11-12.17,6-18.29a426.15,426.15,0,0,0,18.12-123.29v-1.23a137.79,137.79,0,0,1-19.87,30.72,403.59,403.59,0,0,1-15.06,84.07c-1.75,6.17-3.72,12.34-5.82,18.43q-4.53,13.2-10,26.22a403.73,403.73,0,0,1-72.52,113.79c-2.14,2.41-4.33,4.77-6.56,7.13s-4.46,4.68-6.78,7l-1.22,1.23a404.12,404.12,0,0,1-97.86,72.26c-3.11,1.66-6.26,3.24-9.41,4.81s-6.26,3-9.45,4.51q-6.17,2.89-12.47,5.51a403.62,403.62,0,0,1-150.07,31.86c-2.67,0-5.38.09-8.09.09-3.59,0-7.18,0-10.72-.17Z"/><path class="cls-3" d="M1120,581a422.58,422.58,0,0,0-52-144.06l-19.91,3.34L807.82,481.44a644.66,644.66,0,0,1-214.58.38l-241-40.4h0l-19.86-3.31c-1.49,2.55-2.93,5.08-4.33,7.67s-2.79,5.11-4.19,7.75-2.67,5.16-4,7.8v0c-1.32,2.63-2.62,5.25-3.85,7.93s-2.51,5.34-3.73,8c-1.45,3.17-2.84,6.44-4.19,9.7l-.14.26c-.31.76-.63,1.54-.95,2.31-.21.52-.43,1-.64,1.57-.33.8-.65,1.61-1,2.42-1.09,2.75-2.2,5.55-3.21,8.3-.81,2.2-1.66,4.4-2.42,6.65-.5,1.4-1,2.84-1.48,4.23-.59,1.75-1.19,3.48-1.78,5.21v0c-.09.21-.12.42-.21.63-.26.76-.5,1.52-.73,2.29-.16.47-.3.93-.42,1.4l0,0a3.54,3.54,0,0,1-.12.38v0c-.28.91-.57,1.83-.87,2.75l-.48,1.61c-.06.2-.14.39-.18.6a5.06,5.06,0,0,0-.16.58l0,0c-1.44,4.73-2.75,9.53-4,14.35-.55,2-1.07,4.11-1.57,6.18s-1.06,4.24-1.52,6.39c-.21.93-.42,1.87-.64,2.75-.07.52-.21,1-.3,1.52,0,.17-.07.31-.12.47-.8,3.6-1.52,7.21-2.2,10.81-.52,2.71-1,5.46-1.49,8.21-.69,4.09-1.34,8.25-1.93,12.41-.2,1.38-.38,2.77-.57,4.16-.38,2.79-.71,5.59-1,8.39,2.29,8.05,5.26,18.47,6.19,21.94,0,.17.09.39.14.55a3,3,0,0,0,.09.34,109.53,109.53,0,0,0,9.91,27.53,5,5,0,0,0,.33.68,107.88,107.88,0,0,0,11.69,17.71,114.91,114.91,0,0,0,9.91,10.84,109.13,109.13,0,0,0,10,8.42c2.16,1.66,4.4,3.22,6.69,4.75a116.57,116.57,0,0,0,95.65,14.07L497.72,691l19.91-5.75,85.82-24.65a347.48,347.48,0,0,1,62.51-12c9.87-1,19.7-1.52,29.57-1.66,1.78,0,3.52,0,5.29,0,.6,0,1.28,0,1.91,0,10.08,0,20,.52,30.08,1.4a347.88,347.88,0,0,1,64.9,12.16l83,23.72,10,2.84,10,2.83,59.6,17a126.08,126.08,0,0,0,104.66-16.1c2.55-1.65,5-3.38,7.29-5.21a120.87,120.87,0,0,0,10-8.63,113.73,113.73,0,0,0,9.92-10.72,117.74,117.74,0,0,0,14.78-23c.26-.64.59-1.19.89-1.87,4.71-9.41,12-23.25,15.71-35Q1122.13,593.56,1120,581ZM613.45,611.43c-10.25-.42-20.6-.92-30.89-1.27-21.94-.55-44,1.7-65.61,5.25C501,618,486.2,619,470.45,614.27c-29.82-9.06-54.47-33.71-63.24-63.65l-8.31-28.08c84.59,10,158.68,49,232,89.71C627.25,610.16,617.59,611.65,613.45,611.43Zm374.22-60.81c-8.82,29.94-33.46,54.59-63.29,63.65-15.75,4.75-30.58,3.78-46.5,1.14-21.6-3.55-43.67-5.8-65.61-5.25-10.34.34-20.58.85-30.89,1.27-4.14.22-13.81-1.27-17.48.81,73.36-40.71,147.49-79.68,232-89.71Z"/><path d="M1068.06,436.93l-19.91,3.34a406.66,406.66,0,0,0-695.89,1.14h0l-19.86-3.31A426.73,426.73,0,0,1,541,256.65,167.84,167.84,0,0,0,622.89,186l29-49.31,23,73.87a7,7,0,0,0,12.75,1.28L764.28,71l11.61,40.2A286.11,286.11,0,0,0,910,280.8,428.14,428.14,0,0,1,1068.06,436.93Z"/><path d="M275.45,661.4q.07,3.74.26,7.48.06,1.84.13,3.68c.09,1.58.18,3.15.31,4.68.09,2.14.22,4.33.44,6.48.09,1.27.18,2.58.31,3.85s.22,2.67.35,4c.09,1,.18,2,.31,3,.13,1.4.26,2.84.44,4.25.09.92.22,1.84.31,2.8.22,1.57.4,3.15.61,4.68.09.88.22,1.75.35,2.58.26,2.06.53,4.07.87,6.13s.66,4.38,1.05,6.56a9.86,9.86,0,0,0,.26,1.58c.35,2.14.74,4.2,1.14,6.35,0,.13,0,.26,0,.39.31,1.66.61,3.33,1,5q.33,2,.79,3.94c.35,1.88.79,3.72,1.22,5.6.44,2.06.92,4.16,1.44,6.26q2.69,11.23,6,22.23c.92,3.06,1.93,6.17,2.89,9.23s2,6.08,3.06,9.1a424.38,424.38,0,0,0,82.06,140.31c2.1,2.41,4.29,4.81,6.48,7.18s4.38,4.73,6.61,7a426.26,426.26,0,0,0,114.27,84.6c3.11,1.62,6.26,3.15,9.41,4.64v-21c-3.15-1.58-6.3-3.24-9.41-4.9a405.53,405.53,0,0,1-95.23-70.86c-.7-.74-1.49-1.49-2.19-2.23-2.28-2.32-4.55-4.64-6.74-7s-4.42-4.73-6.52-7.13a403.27,403.27,0,0,1-71.64-112.78c-3.81-9.06-7.31-18.25-10.46-27.48-1.05-3.06-2.06-6.13-3-9.19s-1.93-6.17-2.8-9.28a399.1,399.1,0,0,1-13.7-71.86A130.88,130.88,0,0,1,275.45,661.4Z"/><line x1="630.94" y1="404.34" x2="494.3" y2="355.18"/><rect x="553.28" y="307.16" width="18.67" height="145.21" transform="translate(14.83 780.62) rotate(-70.21)"/><line x1="764.95" y1="404.34" x2="901.58" y2="355.18"/><rect x="760.66" y="370.43" width="145.21" height="18.67" transform="translate(-79.36 304.53) rotate(-19.79)"/></svg>