<svg id="Layer_1" data-name="Layer 1" xmlns="http://www.w3.org/2000/svg" viewBox="0 0 1200 1147.18"><defs><style>.cls-1{fill:#fff;}</style></defs><title>Ninjatech Gaming icon white</title><path class="cls-1" d="M1105.7,770.29l-20-11.56V713.87a149.66,149.66,0,0,1-78.55,22.21,152.15,152.15,0,0,1-41.85-5.94l-55.59-15.88-10.26-3-10.3-2.88-9.77-2.79v53.11l-83.74,48.4-83.7-48.4v-89.5c-6.46-.17-13-.17-19.42.13v89.37l-83.7,48.4L525,758.73v-52.1l-9.91,2.84-9.51,2.75v46.52l-83.74,48.4-83.74-48.4V729.88a138.75,138.75,0,0,1-20.29-9.95c-3.53-2.09-6.94-4.32-10.3-6.72-3.49-2.57-6.94-5.32-10.21-8.2a133.67,133.67,0,0,1-10.39-10.12,135.76,135.76,0,0,1-21.34-30.81c0,2.53.17,5.11.3,7.68q.06,1.9.13,3.8c.09,1.61.17,3.23.3,4.84.09,2.18.22,4.45.44,6.63,0,.87.13,1.75.22,2.62a.87.87,0,0,0,0,.35,7.22,7.22,0,0,0,0,1c.09,1.44.26,2.75.39,4.15.09,1,.17,2.05.31,3.1.13,1.44.26,2.92.44,4.36.09,1,.26,1.88.35,2.88.22,1.61.39,3.23.61,4.84.09.87.22,1.79.35,2.66.3,2.09.57,4.19.92,6.28.3,2.27.7,4.54,1.09,6.76a9.37,9.37,0,0,0,.26,1.61c.35,2.23.79,4.36,1.18,6.55,0,.13,0,.26,0,.44.31,1.7.61,3.4,1,5.11q.33,2,.78,4.06c.39,2,.83,3.84,1.27,5.8s1,4.28,1.49,6.41c1.88,7.72,3.88,15.36,6.15,22.91,1,3.19,2,6.37,3,9.51s2.09,6.28,3.14,9.38L307,788l21.43-12.35,83.7,48.31v96.7L391.64,932.5h0l-17.15,9.91c2.14,2.49,4.41,4.93,6.68,7.38s4.5,4.89,6.81,7.29c2.66,2.75,5.32,5.45,8.07,8.16a0,0,0,0,0,0,0c2.18,2.18,4.45,4.36,6.72,6.46,6,5.76,12.26,11.3,18.63,16.67,2.92,2.44,5.89,4.89,8.86,7.24,2.4,2,4.84,3.84,7.29,5.72,1.09.87,2.22,1.7,3.32,2.49,2.31,1.75,4.63,3.45,6.94,5.15.35.22.7.48,1,.74,3,2.18,6.07,4.28,9.12,6.37,2.53,1.7,5.11,3.4,7.68,5.06s5.19,3.32,7.77,4.93,5.24,3.23,7.9,4.8,5.32,3.1,8,4.58c2.49,1.44,5.06,2.84,7.59,4.19,2.88,1.53,5.76,3.05,8.69,4.54,3.23,1.66,6.46,3.23,9.73,4.76l4.8,2.31c1.62.79,3.27,1.48,4.89,2.23V985.82l83.79-48.4,83.7,48.4v96.66l-14.18,8.2c4.67.22,9.43.48,14.18.57,1.35,0,2.71.09,4.1.09,2.31,0,4.62.09,6.94.09,1.48,0,2.92,0,4.32,0s2.75,0,4.06,0c4.84-.09,9.64-.31,14.44-.52l-14.44-8.33V985.82l83.7-48.4,83.74,48.4v68.86c3.32-1.4,6.55-2.92,9.73-4.41s6.5-3.1,9.69-4.71c2.79-1.4,5.58-2.79,8.33-4.28,4.5-2.36,9-4.84,13.4-7.37,2-1.09,4-2.27,5.94-3.45q10.54-6.22,20.68-13c8.07-5.41,15.93-11,23.56-17,1.66-1.27,3.27-2.53,4.89-3.84,2.92-2.27,5.85-4.63,8.73-7l7.07-6c4.67-4,9.21-8.16,13.7-12.48s8.86-8.6,13.18-13c2.31-2.4,4.58-4.8,6.9-7.24,1.09-1.22,2.18-2.44,3.32-3.67s2.22-2.44,3.32-3.67l-17.15-10-22.34-12.87v-96.7l83.7-48.31,23.69,13.66,17.11,9.86c2.22-6.2,4.28-12.52,6.2-18.85ZM599.1,920.63l-83.74,48.31-83.74-48.31v-96.7l83.74-48.31,83.74,48.31Zm206.28,0v-96.7l83.74-48.31,83.74,48.31v96.7l-83.74,48.31Z"/><polygon class="cls-1" points="295.71 528.16 217.48 417.56 148.69 459.38 69.11 424.31 58.32 479.61 150.04 521.42 216.13 472.86 295.71 528.16"/><polygon class="cls-1" points="298.03 518.22 165.56 546.63 176.94 626.32 113.39 685.68 159.98 717.36 234.51 649.49 215.87 569.63 298.03 518.22"/><path class="cls-1" d="M540.62,1039.06q-7.86-3.27-15.58-6.94v0c-3.27-1.53-6.55-3.1-9.69-4.71V1049l4.8,2.31c1.62.74,3.27,1.48,4.89,2.18a431,431,0,0,0,74,25.35,435.89,435.89,0,0,0,79.33,11.87l14.18-8.2v-10.65A415.17,415.17,0,0,1,540.62,1039.06Zm0,0q-7.86-3.27-15.58-6.94v0c-3.27-1.53-6.55-3.1-9.69-4.71V1049l4.8,2.31c1.62.74,3.27,1.48,4.89,2.18a431,431,0,0,0,74,25.35,435.89,435.89,0,0,0,79.33,11.87l14.18-8.2v-10.65A415.17,415.17,0,0,1,540.62,1039.06Z"/><path class="cls-1" d="M692.54,1082.49l-14.2,8.21c4.69.23,9.42.45,14.2.54,1.35,0,2.71.09,4.1.09,2.3,0,4.6.09,6.94.09,1.44,0,2.88,0,4.28,0s2.75,0,4.06,0c4.87-.09,9.65-.27,14.47-.5a435.69,435.69,0,0,0,153-36.16c3.29-1.4,6.54-2.89,9.74-4.37s6.49-3.11,9.69-4.73a439.74,439.74,0,0,0,119.44-87.47c2.34-2.43,4.6-4.82,6.9-7.26s4.46-4.87,6.67-7.35a438.62,438.62,0,0,0,85-144.33c2.21-6.22,4.24-12.53,6.18-18.85a439,439,0,0,0,18.67-127V652a142,142,0,0,1-20.47,31.65,415.8,415.8,0,0,1-15.51,86.62c-1.8,6.36-3.83,12.72-6,19q-4.67,13.59-10.33,27a416,416,0,0,1-74.71,117.23c-2.21,2.48-4.46,4.91-6.76,7.35s-4.6,4.82-7,7.21l-1.26,1.26a416.35,416.35,0,0,1-100.82,74.44c-3.2,1.71-6.45,3.34-9.69,5s-6.45,3.11-9.74,4.64q-6.36,3-12.85,5.68a415.83,415.83,0,0,1-154.61,32.83c-2.75,0-5.55.09-8.34.09-3.7,0-7.4,0-11-.18Z"/><path class="cls-1" d="M1135.76,581.21a435.37,435.37,0,0,0-53.55-148.42l-20.51,3.45L814.1,478.65A664.16,664.16,0,0,1,593,479L344.76,437.42h0L324.27,434c-1.53,2.62-3,5.23-4.46,7.9s-2.88,5.27-4.32,8-2.75,5.32-4.1,8v0c-1.36,2.71-2.7,5.41-4,8.17s-2.58,5.5-3.84,8.28c-1.5,3.27-2.93,6.64-4.32,10l-.14.27c-.32.79-.65,1.58-1,2.38-.22.53-.44,1.08-.66,1.62-.34.82-.67,1.66-1,2.5-1.13,2.84-2.27,5.71-3.31,8.55-.84,2.27-1.71,4.53-2.5,6.85-.52,1.44-1,2.93-1.52,4.36-.61,1.8-1.23,3.59-1.84,5.37v.05c-.09.22-.13.43-.22.65-.27.79-.52,1.57-.75,2.36-.17.48-.3,1-.43,1.44l-.05,0a3.65,3.65,0,0,1-.13.39v.05c-.29.94-.58,1.89-.9,2.84l-.49,1.66c-.06.2-.14.41-.19.62a5.22,5.22,0,0,0-.17.6l0,.05c-1.48,4.88-2.84,9.82-4.14,14.78-.57,2.1-1.1,4.23-1.62,6.37s-1.09,4.37-1.57,6.59c-.22,1-.43,1.93-.66,2.84-.08.53-.22,1.05-.3,1.57,0,.18-.08.32-.13.48-.82,3.71-1.57,7.42-2.27,11.14-.53,2.79-1.05,5.62-1.53,8.46-.71,4.22-1.38,8.5-2,12.78-.2,1.42-.39,2.85-.58,4.28-.39,2.88-.73,5.76-1.05,8.64,2.36,8.3,5.42,19,6.37,22.6.05.18.09.41.14.57a3.09,3.09,0,0,0,.09.35,112.85,112.85,0,0,0,10.21,28.36,5.16,5.16,0,0,0,.34.7,111.14,111.14,0,0,0,12,18.24A118.38,118.38,0,0,0,307.55,687a112.43,112.43,0,0,0,10.3,8.68c2.23,1.71,4.54,3.32,6.89,4.89A120.1,120.1,0,0,0,423.28,715l71.34-20.47,20.51-5.93,88.42-25.4A358,358,0,0,1,668,650.86c10.17-1,20.29-1.57,30.47-1.71,1.84,0,3.62,0,5.45,0,.62,0,1.32,0,2,0,10.39,0,20.65.53,31,1.44a358.41,358.41,0,0,1,66.86,12.53l85.48,24.44,10.3,2.93,10.26,2.91,61.4,17.54a129.9,129.9,0,0,0,107.83-16.58c2.62-1.7,5.11-3.48,7.51-5.37a124.53,124.53,0,0,0,10.29-8.89A117.17,117.17,0,0,0,1107,669a121.3,121.3,0,0,0,15.23-23.69c.27-.66.61-1.23.91-1.93,4.85-9.69,12.35-24,16.19-36Q1137.93,594.17,1135.76,581.21ZM613.85,612.57c-10.56-.43-21.22-1-31.82-1.3-22.6-.57-45.34,1.75-67.59,5.41-16.4,2.71-31.68,3.71-47.91-1.18-30.72-9.34-56.12-34.73-65.15-65.58L392.81,521c87.15,10.34,163.48,50.48,239.05,92.42C628.08,611.27,618.12,612.8,613.85,612.57ZM999.4,549.92c-9.08,30.85-34.47,56.24-65.2,65.58-16.23,4.89-31.5,3.89-47.91,1.18-22.26-3.66-45-6-67.59-5.41-10.65.35-21.21.87-31.82,1.3-4.27.23-14.23-1.3-18,.84,75.58-41.94,151.95-82.09,239.05-92.42Z"/><path class="cls-1" d="M1082.22,432.79l-20.51,3.45a419,419,0,0,0-716.94,1.18h0L324.27,434a439.64,439.64,0,0,1,215-187,172.92,172.92,0,0,0,84.32-72.79l29.85-50.8,23.7,76.11a7.18,7.18,0,0,0,13.14,1.32l79-145.15,12,41.41A294.77,294.77,0,0,0,919.41,271.94,441.09,441.09,0,0,1,1082.22,432.79Z"/><path class="cls-1" d="M265.63,664.05q.07,3.85.27,7.71.07,1.89.14,3.79c.09,1.62.18,3.25.31,4.82.09,2.21.22,4.46.45,6.67.09,1.31.18,2.66.31,4s.23,2.75.36,4.15c.09,1,.18,2,.31,3.07.14,1.44.27,2.93.45,4.37.09.95.23,1.89.31,2.89.23,1.62.41,3.25.63,4.82.09.9.23,1.8.36,2.66.27,2.12.54,4.19.9,6.31s.68,4.51,1.08,6.76a10.15,10.15,0,0,0,.27,1.62c.36,2.21.77,4.33,1.17,6.54,0,.14,0,.27,0,.41.31,1.71.63,3.43,1,5.14q.34,2,.81,4.06c.36,1.94.81,3.83,1.26,5.77.45,2.12.95,4.28,1.49,6.45q2.77,11.57,6.13,22.91c.95,3.16,2,6.36,3,9.51s2.07,6.27,3.16,9.38a437.22,437.22,0,0,0,84.54,144.56c2.16,2.48,4.42,5,6.67,7.39s4.51,4.87,6.81,7.26a439.16,439.16,0,0,0,117.73,87.16c3.2,1.67,6.45,3.25,9.7,4.78v-21.6c-3.25-1.62-6.49-3.34-9.7-5.05a417.8,417.8,0,0,1-98.11-73c-.72-.77-1.53-1.53-2.25-2.3-2.34-2.39-4.69-4.78-6.94-7.21s-4.56-4.87-6.72-7.35a415.47,415.47,0,0,1-73.81-116.2c-3.92-9.33-7.53-18.8-10.77-28.32-1.08-3.16-2.12-6.31-3.07-9.47s-2-6.36-2.89-9.56a411.17,411.17,0,0,1-14.11-74A134.84,134.84,0,0,1,265.63,664.05Z"/><line class="cls-1" x1="631.87" y1="399.22" x2="491.1" y2="348.57"/><rect class="cls-1" x="551.87" y="299.09" width="19.23" height="149.61" transform="translate(19.6 775.67) rotate(-70.21)"/><line class="cls-1" x1="769.94" y1="399.22" x2="910.71" y2="348.57"/><rect class="cls-1" x="765.52" y="364.28" width="149.61" height="19.23" transform="translate(-76.96 306.58) rotate(-19.79)"/></svg>