<svg id="Layer_1" data-name="Layer 1" xmlns="http://www.w3.org/2000/svg" viewBox="0 0 1200 1147.18"><title>Ninjatech Gaming icon black</title><path d="M1040.63,745l-17.42-10.08V695.82a130.4,130.4,0,0,1-68.44,19.35A132.57,132.57,0,0,1,918.31,710l-48.44-13.84-8.94-2.59-9-2.51-8.52-2.43V734.9l-73,42.17L697.54,734.9v-78c-5.63-.15-11.29-.15-16.92.11V734.9l-72.93,42.17-73-42.17V689.5L526.06,692l-8.29,2.4V734.9l-73,42.17-73-42.17V709.77a120.89,120.89,0,0,1-17.68-8.67c-3.08-1.83-6-3.76-9-5.86-3-2.24-6-4.64-8.9-7.15a116.47,116.47,0,0,1-9.05-8.82,118.29,118.29,0,0,1-18.59-26.84c0,2.21.15,4.45.27,6.69q.06,1.65.12,3.31c.07,1.41.15,2.81.27,4.22.08,1.9.19,3.88.38,5.78,0,.76.11,1.52.19,2.28a.76.76,0,0,0,0,.3,6.29,6.29,0,0,0,0,.87c.08,1.25.23,2.4.34,3.61.08.87.15,1.79.27,2.7.11,1.25.23,2.55.38,3.8.07.84.23,1.63.3,2.51.19,1.41.34,2.81.53,4.22.08.76.19,1.56.3,2.32.27,1.83.49,3.65.8,5.48.27,2,.61,4,1,5.89a8.17,8.17,0,0,0,.23,1.41c.3,1.94.69,3.8,1,5.7,0,.11,0,.23,0,.38.27,1.48.53,3,.91,4.45q.28,1.77.68,3.54c.34,1.71.72,3.35,1.1,5.06s.84,3.73,1.29,5.59c1.63,6.73,3.38,13.38,5.36,20,.84,2.78,1.71,5.55,2.59,8.29s1.83,5.48,2.74,8.17l14.94-8.59,18.67-10.76,72.93,42.09V876l-17.87,10.34h0l-14.94,8.63c1.86,2.17,3.84,4.3,5.82,6.43s3.92,4.26,5.93,6.35c2.32,2.4,4.64,4.75,7,7.11a0,0,0,0,0,0,0c1.9,1.9,3.88,3.8,5.86,5.63,5.25,5,10.68,9.85,16.24,14.52,2.55,2.13,5.13,4.26,7.72,6.31,2.09,1.71,4.22,3.35,6.35,5,1,.76,1.94,1.48,2.89,2.17,2,1.52,4,3,6,4.49.3.19.61.42.91.65,2.62,1.9,5.29,3.73,7.95,5.55,2.21,1.48,4.45,3,6.69,4.41s4.52,2.89,6.77,4.3,4.56,2.81,6.88,4.18,4.64,2.7,7,4c2.17,1.25,4.41,2.47,6.62,3.65,2.51,1.33,5,2.66,7.57,4,2.81,1.44,5.63,2.81,8.48,4.14l4.18,2c1.41.68,2.85,1.29,4.26,1.94v-59l73-42.17,72.93,42.17V1017l-12.36,7.15c4.07.19,8.21.42,12.36.49,1.18,0,2.36.08,3.58.08,2,0,4,.08,6,.08,1.29,0,2.55,0,3.77,0s2.4,0,3.54,0c4.22-.08,8.4-.27,12.59-.46L697.54,1017V932.78l72.93-42.17,73,42.17v60c2.89-1.22,5.7-2.55,8.48-3.84s5.66-2.7,8.44-4.11c2.43-1.22,4.87-2.43,7.26-3.73,3.92-2.05,7.83-4.22,11.67-6.43,1.75-1,3.46-2,5.17-3q9.18-5.42,18-11.33c7-4.71,13.88-9.62,20.53-14.79,1.45-1.1,2.85-2.21,4.26-3.35,2.55-2,5.1-4,7.6-6.12l6.16-5.25c4.07-3.5,8-7.11,11.94-10.87s7.72-7.49,11.48-11.37c2-2.09,4-4.18,6-6.31,1-1.06,1.9-2.13,2.89-3.19s1.94-2.13,2.89-3.19l-14.94-8.71L941.84,876V791.71l72.93-42.09,20.65,11.9,14.91,8.59c1.94-5.4,3.73-10.91,5.4-16.43ZM599.21,876l-73,42.09-73-42.09V791.71l73-42.09,73,42.09ZM779,876V791.71l73-42.09,73,42.09V876l-73,42.09Z"/><polygon points="334.86 534.01 266.7 437.64 206.76 474.07 137.42 443.51 128.02 491.7 207.93 528.13 265.52 485.82 334.86 534.01"/><polygon points="336.88 525.35 221.46 550.1 231.37 619.54 176 671.26 216.6 698.86 281.54 639.73 265.3 570.14 336.88 525.35"/><path d="M548.26,979.17q-6.85-2.85-13.58-6v0c-2.85-1.33-5.7-2.7-8.44-4.11V987.8l4.18,2c1.41.65,2.85,1.29,4.26,1.9a375.56,375.56,0,0,0,64.45,22.09,379.81,379.81,0,0,0,69.13,10.34l12.36-7.15v-9.28A361.75,361.75,0,0,1,548.26,979.17Zm0,0q-6.85-2.85-13.58-6v0c-2.85-1.33-5.7-2.7-8.44-4.11V987.8l4.18,2c1.41.65,2.85,1.29,4.26,1.9a375.56,375.56,0,0,0,64.45,22.09,379.81,379.81,0,0,0,69.13,10.34l12.36-7.15v-9.28A361.75,361.75,0,0,1,548.26,979.17Z"/><path d="M680.63,1017l-12.38,7.15c4.08.2,8.21.39,12.38.47,1.18,0,2.36.08,3.58.08,2,0,4,.08,6.05.08,1.26,0,2.51,0,3.73,0s2.4,0,3.54,0c4.24-.08,8.41-.24,12.61-.43a379.63,379.63,0,0,0,133.31-31.51c2.87-1.22,5.7-2.51,8.49-3.81s5.66-2.71,8.45-4.13a383.16,383.16,0,0,0,104.07-76.22c2-2.12,4-4.2,6-6.33s3.89-4.24,5.81-6.4a382.18,382.18,0,0,0,74.06-125.76c1.92-5.42,3.69-10.92,5.38-16.42A382.55,382.55,0,0,0,1072,643v-1.1a123.69,123.69,0,0,1-17.84,27.58A362.3,362.3,0,0,1,1040.63,745c-1.57,5.54-3.34,11.08-5.23,16.54q-4.07,11.85-9,23.53a362.43,362.43,0,0,1-65.1,102.15c-1.92,2.16-3.89,4.28-5.89,6.4s-4,4.2-6.09,6.29l-1.1,1.1a362.78,362.78,0,0,1-87.85,64.86c-2.79,1.49-5.62,2.91-8.45,4.32s-5.62,2.71-8.49,4q-5.54,2.59-11.2,5a362.33,362.33,0,0,1-134.72,28.6c-2.4,0-4.83.08-7.27.08-3.22,0-6.44,0-9.63-.16Z"/><path d="M1066.83,580.23a379.35,379.35,0,0,0-46.66-129.32l-17.87,3-215.74,37a578.7,578.7,0,0,1-192.63.34L377.61,454.94h0l-17.83-3c-1.34,2.29-2.63,4.56-3.89,6.89s-2.51,4.59-3.76,7-2.4,4.64-3.58,7v0c-1.18,2.36-2.35,4.71-3.45,7.12s-2.25,4.79-3.34,7.22c-1.3,2.85-2.55,5.78-3.76,8.71l-.12.23c-.28.68-.56,1.38-.85,2.08-.19.46-.39.94-.57,1.41-.3.72-.59,1.45-.86,2.17-1,2.47-2,5-2.88,7.45-.73,2-1.49,4-2.17,6-.45,1.26-.9,2.55-1.32,3.8-.53,1.57-1.07,3.12-1.6,4.68v0c-.08.19-.11.38-.19.56-.23.68-.45,1.37-.65,2.05-.14.42-.27.84-.38,1.26l0,0a3.18,3.18,0,0,1-.11.34v0c-.25.82-.51,1.64-.78,2.47l-.43,1.45c-.06.18-.12.35-.17.54a4.54,4.54,0,0,0-.14.52l0,0c-1.29,4.25-2.47,8.55-3.61,12.88-.5,1.83-1,3.69-1.41,5.55s-.95,3.81-1.37,5.74c-.19.84-.38,1.68-.57,2.47-.07.46-.19.92-.27,1.37,0,.15-.07.28-.11.42-.72,3.23-1.37,6.47-2,9.7-.46,2.43-.92,4.9-1.34,7.37-.62,3.68-1.2,7.41-1.73,11.14-.18,1.24-.34,2.48-.51,3.73-.34,2.51-.64,5-.92,7.53,2.05,7.23,4.72,16.58,5.55,19.69,0,.15.08.35.12.5a2.69,2.69,0,0,0,.08.31,98.33,98.33,0,0,0,8.9,24.71,4.5,4.5,0,0,0,.3.61,96.84,96.84,0,0,0,10.5,15.89,103.15,103.15,0,0,0,8.9,9.74,98,98,0,0,0,9,7.56c1.94,1.49,4,2.89,6,4.26A104.64,104.64,0,0,0,446,696.84L508.18,679l17.87-5.17,77-22.13a311.93,311.93,0,0,1,56.12-10.79c8.86-.88,17.68-1.37,26.55-1.49,1.6,0,3.16,0,4.75,0,.54,0,1.15,0,1.71,0,9.05,0,18,.46,27,1.26a312.29,312.29,0,0,1,58.26,10.92L852,672.89l9,2.55,8.94,2.54,53.5,15.29a113.19,113.19,0,0,0,94-14.45c2.28-1.48,4.45-3,6.55-4.68a108.5,108.5,0,0,0,9-7.75,102.09,102.09,0,0,0,8.91-9.63A105.69,105.69,0,0,0,1055,636.12c.23-.57.53-1.07.79-1.68,4.23-8.44,10.76-20.87,14.11-31.4Q1068.71,591.52,1066.83,580.23ZM612.07,607.56c-9.21-.38-18.49-.83-27.73-1.14-19.69-.5-39.5,1.52-58.9,4.71-14.29,2.36-27.61,3.23-41.74-1C456.93,602,434.8,579.84,426.93,553l-7.46-25.21c75.94,9,142.44,44,208.29,80.53C624.47,606.42,615.79,607.76,612.07,607.56ZM948,553c-7.91,26.88-30,49-56.81,57.14-14.14,4.26-27.45,3.39-41.74,1-19.39-3.19-39.21-5.21-58.9-4.71-9.28.31-18.48.76-27.73,1.14-3.72.2-12.4-1.14-15.7.73,65.85-36.55,132.4-71.52,208.29-80.53Z"/><path d="M1020.17,450.91l-17.87,3a365.06,365.06,0,0,0-624.69,1h0l-17.83-3a383.07,383.07,0,0,1,187.33-162.9,150.67,150.67,0,0,0,73.47-63.42l26-44.26L667.2,247.7a6.25,6.25,0,0,0,11.45,1.15l68.82-126.47,10.42,36.08A256.84,256.84,0,0,0,878.31,310.75,384.34,384.34,0,0,1,1020.17,450.91Z"/><path d="M308.65,652.41q.06,3.36.24,6.72.06,1.65.12,3.3c.08,1.41.16,2.83.27,4.2.08,1.93.2,3.89.39,5.81.08,1.14.16,2.32.27,3.46s.2,2.4.31,3.61c.08.86.16,1.77.27,2.67.12,1.26.24,2.55.39,3.81.08.83.2,1.65.27,2.51.2,1.41.35,2.83.55,4.2.08.79.2,1.57.31,2.32.24,1.85.47,3.65.78,5.5s.59,3.93.94,5.89a8.85,8.85,0,0,0,.24,1.41c.31,1.93.67,3.77,1,5.7,0,.12,0,.24,0,.35.27,1.49.55,3,.9,4.48q.29,1.77.71,3.54c.31,1.69.71,3.34,1.1,5,.39,1.85.82,3.73,1.3,5.62q2.41,10.08,5.34,20c.82,2.75,1.73,5.54,2.59,8.29s1.81,5.46,2.75,8.17a381,381,0,0,0,73.67,126c1.88,2.16,3.85,4.32,5.81,6.44s3.93,4.24,5.93,6.33a382.65,382.65,0,0,0,102.58,75.94c2.79,1.45,5.62,2.83,8.45,4.16V969c-2.83-1.41-5.66-2.91-8.45-4.4A364,364,0,0,1,432.29,901c-.63-.67-1.34-1.34-2-2-2-2.08-4.09-4.16-6.05-6.29s-4-4.24-5.85-6.4a362,362,0,0,1-64.32-101.25c-3.42-8.13-6.56-16.38-9.39-24.67-.94-2.75-1.85-5.5-2.67-8.25s-1.73-5.54-2.51-8.33a358.27,358.27,0,0,1-12.3-64.51A117.49,117.49,0,0,1,308.65,652.41Z"/><line x1="627.77" y1="421.66" x2="505.11" y2="377.52"/><rect x="558.06" y="334.41" width="16.76" height="130.36" transform="translate(-1.3 797.33) rotate(-70.21)"/><line x1="748.07" y1="421.66" x2="870.73" y2="377.52"/><rect x="744.22" y="391.21" width="130.36" height="16.76" transform="translate(-87.49 297.63) rotate(-19.79)"/></svg>