<svg id="Layer_1" data-name="Layer 1" xmlns="http://www.w3.org/2000/svg" xmlns:xlink="http://www.w3.org/1999/xlink" viewBox="0 0 2000 2000"><defs><style>.cls-1{fill:url(#linear-gradient);}.cls-2{fill:url(#linear-gradient-2);}.cls-3{fill:url(#linear-gradient-3);}</style><linearGradient id="linear-gradient" x1="404.78" y1="907.91" x2="621.81" y2="907.91" gradientUnits="userSpaceOnUse"><stop offset="0" stop-color="#f0f"/><stop offset="1" stop-color="blue"/></linearGradient><linearGradient id="linear-gradient-2" x1="455.13" y1="1040.41" x2="623.93" y2="1040.41" xlink:href="#linear-gradient"/><linearGradient id="linear-gradient-3" x1="596.6" y1="1002.46" x2="1393.04" y2="1002.46" xlink:href="#linear-gradient"/></defs><title>Ninjatech Gaming icon gradient profile</title><path d="M1362.32,1179.83l-18.27-10.57v-41a136.82,136.82,0,0,1-71.81,20.31,139.1,139.1,0,0,1-38.26-5.43l-50.83-14.52-9.38-2.71-9.42-2.63-8.94-2.55v48.55l-76.56,44.24-76.52-44.24v-81.83c-5.9-.16-11.85-.16-17.75.12v81.71l-76.52,44.24-76.6-44.24v-47.64l-9.06,2.59-8.7,2.51v42.53l-76.56,44.24-76.56-44.24v-26.37a126.84,126.84,0,0,1-18.55-9.1c-3.23-1.92-6.34-3.95-9.41-6.14-3.19-2.35-6.34-4.87-9.33-7.5a122.2,122.2,0,0,1-9.5-9.26,124.11,124.11,0,0,1-19.51-28.17c0,2.31.16,4.67.28,7q.06,1.74.12,3.47c.08,1.48.16,3,.28,4.43.08,2,.2,4.07.4,6.06,0,.8.12,1.6.2,2.39a.79.79,0,0,0,0,.32,6.6,6.6,0,0,0,0,.92c.08,1.32.24,2.51.36,3.79.08.92.16,1.87.28,2.83.12,1.32.24,2.67.4,4,.08.88.24,1.72.32,2.63.2,1.48.36,3,.56,4.43.08.8.2,1.64.32,2.43.28,1.91.52,3.83.84,5.74.28,2.07.64,4.15,1,6.18a8.57,8.57,0,0,0,.24,1.48c.32,2,.72,4,1.08,6,0,.12,0,.24,0,.4.28,1.56.56,3.11,1,4.67q.3,1.86.72,3.71c.36,1.8.76,3.51,1.16,5.31s.88,3.91,1.36,5.86c1.71,7.06,3.55,14,5.62,20.95.88,2.91,1.8,5.82,2.71,8.7s1.91,5.74,2.87,8.58l15.68-9,19.59-11.29,76.52,44.16v88.41l-18.75,10.85h0l-15.68,9.06c2,2.27,4,4.51,6.1,6.74s4.11,4.47,6.22,6.66c2.43,2.51,4.87,5,7.38,7.46a0,0,0,0,0,0,0c2,2,4.07,4,6.14,5.9,5.51,5.27,11.21,10.33,17,15.24,2.67,2.23,5.39,4.47,8.1,6.62,2.19,1.8,4.43,3.51,6.66,5.23,1,.8,2,1.56,3,2.27,2.12,1.6,4.23,3.15,6.34,4.71.32.2.64.44,1,.68,2.75,2,5.55,3.91,8.34,5.83,2.31,1.56,4.67,3.11,7,4.63s4.75,3,7.1,4.51,4.79,3,7.22,4.39,4.87,2.83,7.34,4.19c2.27,1.32,4.63,2.59,6.94,3.83,2.63,1.4,5.27,2.79,7.94,4.15,3,1.52,5.9,3,8.9,4.35l4.39,2.11c1.48.72,3,1.36,4.47,2v-61.88l76.6-44.24,76.52,44.24v88.37l-13,7.5c4.27.2,8.62.44,13,.52,1.24,0,2.47.08,3.75.08,2.11,0,4.23.08,6.34.08,1.36,0,2.67,0,4,0s2.51,0,3.71,0c4.43-.08,8.82-.28,13.21-.48l-13.21-7.62v-88.37l76.52-44.24,76.56,44.24v63c3-1.28,6-2.67,8.9-4s5.94-2.83,8.86-4.31c2.55-1.28,5.11-2.55,7.62-3.91,4.11-2.15,8.22-4.43,12.25-6.74,1.84-1,3.63-2.07,5.43-3.15q9.63-5.69,18.91-11.89c7.38-4.95,14.56-10.09,21.54-15.52,1.52-1.16,3-2.31,4.47-3.51,2.67-2.07,5.35-4.23,8-6.42l6.46-5.51c4.27-3.67,8.42-7.46,12.53-11.41s8.1-7.86,12-11.93c2.11-2.19,4.19-4.39,6.3-6.62,1-1.12,2-2.23,3-3.35s2-2.23,3-3.35L1279.1,1329l-20.43-11.77v-88.41l76.52-44.16,21.66,12.49,15.64,9c2-5.67,3.91-11.45,5.66-17.23ZM899.18,1317.27l-76.56,44.16-76.56-44.16v-88.41l76.56-44.16,76.56,44.16Zm188.59,0v-88.41l76.56-44.16,76.56,44.16v88.41l-76.56,44.16Z"/><polygon class="cls-1" points="621.81 958.47 550.29 857.36 487.4 895.58 414.64 863.52 404.78 914.08 488.63 952.31 549.06 907.91 621.81 958.47"/><polygon class="cls-2" points="623.93 949.38 502.83 975.35 513.23 1048.21 455.13 1102.48 497.73 1131.44 565.86 1069.39 548.82 996.38 623.93 949.38"/><path d="M845.72,1425.55q-7.18-3-14.24-6.34v0c-3-1.4-6-2.83-8.86-4.31v19.75l4.39,2.11c1.48.68,3,1.36,4.47,2a394,394,0,0,0,67.62,23.18,398.5,398.5,0,0,0,72.53,10.85l13-7.5v-9.73A379.56,379.56,0,0,1,845.72,1425.55Zm0,0q-7.18-3-14.24-6.34v0c-3-1.4-6-2.83-8.86-4.31v19.75l4.39,2.11c1.48.68,3,1.36,4.47,2a394,394,0,0,0,67.62,23.18,398.5,398.5,0,0,0,72.53,10.85l13-7.5v-9.73A379.56,379.56,0,0,1,845.72,1425.55Z"/><path d="M984.6,1465.25l-13,7.5c4.29.21,8.61.41,13,.49,1.24,0,2.47.08,3.75.08,2.1,0,4.2.08,6.35.08,1.32,0,2.64,0,3.91,0s2.51,0,3.71,0c4.45-.08,8.82-.25,13.23-.45a398.32,398.32,0,0,0,139.87-33.06c3-1.28,6-2.64,8.9-4s5.94-2.84,8.86-4.33a402,402,0,0,0,109.2-80c2.14-2.23,4.2-4.41,6.31-6.64s4.08-4.45,6.1-6.72a401,401,0,0,0,77.7-132c2-5.69,3.87-11.46,5.65-17.23a401.38,401.38,0,0,0,17.07-116.12v-1.15a129.78,129.78,0,0,1-18.72,28.94,380.13,380.13,0,0,1-14.18,79.19c-1.65,5.81-3.5,11.63-5.48,17.35q-4.27,12.43-9.44,24.69A380.27,380.27,0,0,1,1279.1,1329c-2,2.27-4.08,4.49-6.18,6.72s-4.2,4.41-6.39,6.6l-1.15,1.15a380.64,380.64,0,0,1-92.17,68.06c-2.93,1.57-5.9,3.05-8.86,4.53s-5.9,2.84-8.9,4.25q-5.81,2.72-11.75,5.19a380.16,380.16,0,0,1-141.35,30c-2.51,0-5.07.08-7.62.08-3.38,0-6.76,0-10.1-.16Z"/><path class="cls-3" d="M1389.81,1007a398,398,0,0,0-49-135.69l-18.75,3.15-226.37,38.77a607.19,607.19,0,0,1-202.12.36l-227-38.06h0l-18.7-3.12c-1.4,2.4-2.76,4.78-4.08,7.23s-2.63,4.82-3.95,7.3-2.51,4.86-3.75,7.34v0c-1.24,2.48-2.47,4.95-3.62,7.47s-2.36,5-3.51,7.57c-1.37,3-2.68,6.07-3.95,9.14l-.13.24c-.29.72-.59,1.45-.89,2.18-.2.49-.41,1-.6,1.48-.31.75-.61,1.52-.9,2.28-1,2.59-2.07,5.22-3,7.82-.76,2.07-1.56,4.15-2.28,6.27-.47,1.32-.95,2.68-1.39,4-.56,1.64-1.12,3.28-1.68,4.91v0c-.08.2-.12.39-.2.59-.24.72-.48,1.44-.68,2.15-.15.44-.28.88-.39,1.32l0,0a3.33,3.33,0,0,1-.12.36v0c-.27.86-.53,1.73-.82,2.59l-.45,1.52c-.06.19-.13.37-.17.57a4.77,4.77,0,0,0-.15.54l0,0c-1.35,4.46-2.59,9-3.79,13.52-.52,1.92-1,3.87-1.48,5.83s-1,4-1.44,6c-.2.88-.39,1.76-.6,2.59-.07.49-.2,1-.28,1.44,0,.16-.07.29-.12.44-.75,3.39-1.44,6.79-2.07,10.18-.49,2.55-1,5.14-1.4,7.74-.65,3.86-1.26,7.77-1.82,11.69-.18,1.3-.36,2.61-.53,3.91-.36,2.63-.67,5.27-1,7.9,2.15,7.59,5,17.39,5.83,20.66,0,.16.08.37.13.52a2.83,2.83,0,0,0,.08.32,103.17,103.17,0,0,0,9.33,25.93,4.72,4.72,0,0,0,.31.64,101.61,101.61,0,0,0,11,16.68,108.23,108.23,0,0,0,9.33,10.21,102.78,102.78,0,0,0,9.42,7.93c2,1.56,4.15,3,6.3,4.47a109.8,109.8,0,0,0,90.09,13.25l65.23-18.72,18.75-5.42L903.25,1082a327.28,327.28,0,0,1,58.88-11.33c9.3-.93,18.55-1.44,27.85-1.56,1.68,0,3.31,0,5,0,.57,0,1.2,0,1.79,0,9.5,0,18.88.49,28.33,1.32a327.67,327.67,0,0,1,61.13,11.45l78.15,22.34,9.42,2.68,9.38,2.66,56.13,16a118.76,118.76,0,0,0,98.58-15.16c2.4-1.55,4.67-3.18,6.87-4.91a113.85,113.85,0,0,0,9.4-8.13,107.12,107.12,0,0,0,9.35-10.1,110.9,110.9,0,0,0,13.92-21.66c.24-.6.56-1.12.83-1.76,4.44-8.86,11.29-21.9,14.8-32.95Q1391.79,1018.81,1389.81,1007Zm-477.15,28.67c-9.66-.39-19.4-.87-29.09-1.19-20.66-.52-41.45,1.6-61.8,4.95-15,2.48-29,3.39-43.8-1.08-28.08-8.54-51.31-31.76-59.56-60l-7.83-26.45c79.68,9.45,149.46,46.15,218.55,84.5C925.67,1034.45,916.57,1035.85,912.66,1035.64Zm352.47-57.28c-8.3,28.2-31.51,51.42-59.61,60-14.84,4.47-28.8,3.56-43.8,1.08-20.35-3.35-41.14-5.47-61.8-4.95-9.74.32-19.39.8-29.09,1.19-3.9.21-13-1.19-16.47.76,69.09-38.35,138.92-75,218.55-84.5Z"/><path d="M1340.86,871.28l-18.75,3.15a383,383,0,0,0-655.45,1.08h0l-18.7-3.12A401.93,401.93,0,0,1,844.47,701.48a158.09,158.09,0,0,0,77.08-66.55l27.29-46.44,21.67,69.58a6.56,6.56,0,0,0,12,1.2l72.21-132.7,10.93,37.86A269.49,269.49,0,0,0,1192,724.22,403.26,403.26,0,0,1,1340.86,871.28Z"/><path d="M594.31,1082.7q.06,3.52.25,7,.06,1.73.12,3.46c.08,1.48.17,3,.29,4.41.08,2,.21,4.08.41,6.1.08,1.2.17,2.43.29,3.63s.21,2.51.33,3.79c.08.91.17,1.85.29,2.8.12,1.32.25,2.68.41,4,.08.87.21,1.73.29,2.64.21,1.48.37,3,.58,4.41.08.82.21,1.65.33,2.43.25,1.94.5,3.83.82,5.77s.62,4.12,1,6.18a9.28,9.28,0,0,0,.25,1.48c.33,2,.7,4,1.07,6,0,.12,0,.25,0,.37.29,1.57.58,3.13.95,4.7q.31,1.86.74,3.71c.33,1.77.74,3.5,1.15,5.28.41,1.94.87,3.92,1.36,5.9q2.53,10.57,5.61,20.94c.87,2.89,1.81,5.81,2.72,8.7s1.9,5.73,2.89,8.57a399.72,399.72,0,0,0,77.29,132.16c2,2.27,4,4.53,6.1,6.76s4.12,4.45,6.23,6.64a401.49,401.49,0,0,0,107.63,79.68c2.93,1.53,5.9,3,8.86,4.37v-19.75c-3-1.48-5.94-3.05-8.86-4.62a382,382,0,0,1-89.7-66.74c-.66-.7-1.4-1.4-2.06-2.1-2.14-2.18-4.29-4.37-6.35-6.6s-4.16-4.45-6.14-6.72A379.84,379.84,0,0,1,642,1221.87c-3.58-8.53-6.88-17.19-9.85-25.89-1-2.89-1.94-5.77-2.8-8.66s-1.81-5.81-2.64-8.74a375.9,375.9,0,0,1-12.9-67.69A123.28,123.28,0,0,1,594.31,1082.7Z"/><line x1="929.14" y1="840.59" x2="800.44" y2="794.28"/><rect x="856" y="749.05" width="17.58" height="136.77" transform="translate(-197.12 1354.48) rotate(-70.21)"/><line x1="1055.36" y1="840.59" x2="1184.06" y2="794.28"/><rect x="1051.32" y="808.64" width="136.77" height="17.58" transform="translate(-210.63 427.36) rotate(-19.79)"/></svg>