<svg id="Layer_1" data-name="Layer 1" xmlns="http://www.w3.org/2000/svg" viewBox="0 0 1200 1325.32"><defs><style>.cls-1,.cls-3,.cls-4{fill:#fff;}.cls-2{fill:none;}.cls-3{font-size:271.03px;font-family:RobotoCondensed-Bold, Roboto Condensed;font-weight:700;}.cls-4{font-size:155.08px;font-family:RobotoCondensed-Light, Roboto Condensed;}</style></defs><title>Ninjatech Gaming vertical white</title><path class="cls-1" d="M885.49,580.47l-13.15-7.61V543.34A98.49,98.49,0,0,1,820.64,558,100.13,100.13,0,0,1,793.1,554l-36.58-10.45-6.75-2-6.78-1.9-6.43-1.84v34.95L681.45,604.7l-55.08-31.85V514c-4.25-.11-8.53-.11-12.78.09v58.81L558.51,604.7l-55.14-31.85V538.57l-6.52,1.87-6.26,1.81v30.61L435.49,604.7l-55.11-31.85v-19A91.3,91.3,0,0,1,367,547.33c-2.33-1.38-4.57-2.84-6.78-4.42s-4.57-3.5-6.72-5.4a88,88,0,0,1-6.84-6.66,89.34,89.34,0,0,1-14-20.27c0,1.67.11,3.36.2,5.05q0,1.25.09,2.5c.06,1.06.11,2.13.2,3.19.06,1.44.14,2.93.29,4.36,0,.57.09,1.15.14,1.72a.57.57,0,0,0,0,.23,4.75,4.75,0,0,0,0,.66c.06.95.17,1.81.26,2.73.06.66.11,1.35.2,2,.09.95.17,1.92.29,2.87.06.63.17,1.23.23,1.9.14,1.06.26,2.13.4,3.19.06.57.14,1.18.23,1.75.2,1.38.37,2.76.6,4.14s.46,3,.72,4.45a6.17,6.17,0,0,0,.17,1.06c.23,1.46.52,2.87.78,4.31,0,.09,0,.17,0,.29.2,1.12.4,2.24.69,3.36q.21,1.34.52,2.67c.26,1.29.55,2.53.83,3.82s.63,2.81,1,4.22c1.23,5.08,2.55,10.11,4,15.08.63,2.1,1.29,4.19,2,6.26s1.38,4.14,2.07,6.17l11.28-6.49L374,584l55.08,31.79V679.4l-13.5,7.81h0l-11.28,6.52c1.41,1.64,2.9,3.25,4.39,4.85s3,3.22,4.48,4.8c1.75,1.81,3.5,3.59,5.31,5.37a0,0,0,0,0,0,0c1.44,1.44,2.93,2.87,4.42,4.25,4,3.79,8.07,7.44,12.26,11,1.92,1.61,3.88,3.22,5.83,4.77,1.58,1.29,3.19,2.53,4.8,3.76.72.57,1.46,1.12,2.18,1.64,1.52,1.15,3,2.27,4.57,3.39.23.14.46.32.69.49,2,1.44,4,2.81,6,4.19,1.67,1.12,3.36,2.24,5.05,3.33s3.42,2.18,5.11,3.25,3.45,2.13,5.2,3.16,3.5,2,5.28,3,3.33,1.87,5,2.76c1.9,1,3.79,2,5.72,3,2.12,1.09,4.25,2.13,6.4,3.13l3.16,1.52c1.06.52,2.15,1,3.22,1.46V722.3l55.14-31.85,55.08,31.85v63.61l-9.33,5.4c3.07.14,6.2.32,9.33.37.89,0,1.78.06,2.7.06,1.52,0,3,.06,4.57.06,1,0,1.92,0,2.84,0s1.81,0,2.67,0c3.19-.06,6.35-.2,9.51-.34l-9.51-5.48V722.3l55.08-31.85,55.11,31.85v45.32c2.18-.92,4.31-1.92,6.4-2.9s4.28-2,6.38-3.1c1.84-.92,3.68-1.84,5.48-2.81,3-1.55,5.92-3.19,8.82-4.85,1.32-.72,2.61-1.49,3.91-2.27q6.93-4.09,13.61-8.56c5.31-3.56,10.48-7.27,15.51-11.17,1.09-.83,2.15-1.67,3.22-2.53,1.92-1.49,3.85-3,5.74-4.62l4.65-4c3.07-2.64,6.06-5.37,9-8.21S825.12,707,828,704c1.52-1.58,3-3.16,4.54-4.77.72-.8,1.44-1.61,2.18-2.41s1.46-1.61,2.18-2.41l-11.28-6.58-14.7-8.47V615.76L866,584l15.59,9,11.26,6.49c1.46-4.08,2.81-8.24,4.08-12.41ZM552.11,679.4,497,711.19,441.89,679.4V615.76L497,584l55.11,31.79Zm135.75,0V615.76L743,584l55.11,31.79V679.4L743,711.19Z"/><path class="cls-1" d="M889.91,414.14l-20.5-42.3-5.86,1h0L695.92,401.5a447.2,447.2,0,0,1-150.1.23l-168-28.11-11.95-2-16.6,44-.26.63-.72,1.92v0l0,0-3.5,9.33-7,21.65c-.34,1.84-.69,3.7-1,5.57-.66,3.7-1.21,7.47-1.69,11.23q-.39,2.84-.69,5.69c1.55,5.46,3.56,12.52,4.19,14.88l.09.37c0,.09,0,.14.06.23a74.79,74.79,0,0,0,6.72,18.67,3.58,3.58,0,0,0,.23.46,73.5,73.5,0,0,0,7.93,12,77.41,77.41,0,0,0,6.72,7.35,75.83,75.83,0,0,0,6.78,5.71c1.47,1.12,3,2.18,4.54,3.22a79,79,0,0,0,64.84,9.53l47-13.47,13.5-3.91L555,510a236,236,0,0,1,42.39-8.16c6.69-.66,13.35-1,20-1.12l3.59,0c.4,0,.86,0,1.29,0,6.83,0,13.58.34,20.39.95a236.09,236.09,0,0,1,44,8.24L743,526l6.78,1.92,6.75,1.92,40.4,11.54a85.51,85.51,0,0,0,71-10.91c1.72-1.12,3.36-2.3,4.94-3.53a82,82,0,0,0,6.78-5.86,76.61,76.61,0,0,0,6.72-7.27,79.71,79.71,0,0,0,10-15.59c.17-.43.4-.8.6-1.26A80.47,80.47,0,0,0,904,472.06ZM561.82,476.68c-6.95-.29-14-.63-20.93-.86a238,238,0,0,0-44.48,3.56c-10.8,1.78-20.85,2.44-31.53-.78A65.14,65.14,0,0,1,422,435.45l-5.63-19c57.35,6.81,107.57,33.23,157.31,60.82C571.18,475.82,564.63,476.83,561.82,476.68Zm253.72-41.24a65.24,65.24,0,0,1-42.9,43.16c-10.68,3.22-20.73,2.56-31.53.78a238,238,0,0,0-44.48-3.56c-7,.23-14,.57-20.93.86-2.81.14-9.36-.86-11.86.55,49.74-27.6,100-54,157.31-60.82Z"/><path class="cls-1" d="M870,358.37l-13.5,2.27L693.6,388.55a437.09,437.09,0,0,1-145.48.26l-163.37-27.4h0l-13.47-2.24c-1,1.72-2,3.45-2.93,5.2s-1.9,3.47-2.84,5.26-1.81,3.5-2.7,5.28v0c-.89,1.78-1.78,3.56-2.61,5.37s-1.69,3.62-2.53,5.46c-1,2.15-1.92,4.37-2.84,6.58l-.09.17c-.43,1-.86,2.1-1.29,3.16l-.43,1.12c-.75,1.87-1.49,3.76-2.18,5.63-.55,1.49-1.12,3-1.64,4.51-.34.95-.69,1.92-1,2.87L347,413.33v0c-.06.14-.09.29-.14.43-.17.52-.34,1-.49,1.55-.11.32-.23.63-.32.95v0l-.09.26v0c-.23.75-.46,1.49-.72,2.24-.06.23-.14.49-.2.72s-.17.52-.26.8v0c-1,3.22-1.87,6.46-2.73,9.74-.37,1.38-.72,2.79-1.06,4.19s-.72,2.87-1,4.34c-.14.63-.29,1.26-.43,1.87-.06.34-.14.69-.2,1l-.09.32c-.55,2.44-1,4.88-1.49,7.32-.34,1.84-.69,3.7-1,5.57-.66,3.7-1.21,7.47-1.69,11.23q-.39,2.84-.69,5.69c1.55,5.46,3.56,12.52,4.19,14.88-.34-1.69-.66-3.39-.86-5.11l7.09-53.9,3.5-9.33,0,0v0l.72-1.92.26-.63,16.6-44,11.95,2,168,28.11a447.2,447.2,0,0,0,150.1-.23l167.59-28.66h0l5.86-1,20.5,42.3L905.27,456A286.66,286.66,0,0,0,870,358.37Z"/><polygon class="cls-1" points="352.46 421.13 300.98 348.35 255.71 375.86 203.34 352.79 196.24 389.18 256.6 416.69 300.09 384.74 352.46 421.13"/><polygon class="cls-1" points="353.98 414.59 266.81 433.28 274.3 485.73 232.48 524.79 263.14 545.64 312.19 500.97 299.92 448.42 353.98 414.59"/><path class="cls-1" d="M513.63,757.34q-5.17-2.15-10.25-4.57v0c-2.15-1-4.31-2-6.37-3.1v14.21l3.16,1.52c1.06.49,2.15,1,3.22,1.44a283.64,283.64,0,0,0,48.68,16.68,286.85,286.85,0,0,0,52.21,7.81l9.33-5.4v-7A273.21,273.21,0,0,1,513.63,757.34Zm0,0q-5.17-2.15-10.25-4.57v0c-2.15-1-4.31-2-6.37-3.1v14.21l3.16,1.52c1.06.49,2.15,1,3.22,1.44a283.64,283.64,0,0,0,48.68,16.68,286.85,286.85,0,0,0,52.21,7.81l9.33-5.4v-7A273.21,273.21,0,0,1,513.63,757.34Z"/><path class="cls-1" d="M613.6,785.91l-9.35,5.4c3.08.15,6.2.3,9.35.36.89,0,1.78.06,2.7.06,1.51,0,3,.06,4.57.06.95,0,1.9,0,2.82,0s1.81,0,2.67,0c3.2-.06,6.35-.18,9.52-.33a286.71,286.71,0,0,0,100.68-23.8c2.17-.92,4.3-1.9,6.41-2.88s4.27-2,6.38-3.12A289.38,289.38,0,0,0,828,704c1.54-1.6,3-3.17,4.54-4.78s2.94-3.2,4.39-4.84a288.64,288.64,0,0,0,55.93-95c1.45-4.09,2.79-8.25,4.06-12.4a288.92,288.92,0,0,0,12.28-83.59v-.83a93.42,93.42,0,0,1-13.47,20.83,273.62,273.62,0,0,1-10.21,57c-1.19,4.18-2.52,8.37-3.95,12.49q-3.07,8.95-6.8,17.77a273.72,273.72,0,0,1-49.17,77.15c-1.45,1.63-2.94,3.23-4.45,4.84s-3,3.17-4.6,4.75l-.83.83a274,274,0,0,1-66.35,49c-2.11,1.13-4.24,2.2-6.38,3.26s-4.24,2-6.41,3.06q-4.18,2-8.46,3.74a273.64,273.64,0,0,1-101.75,21.6c-1.81,0-3.65.06-5.49.06-2.43,0-4.87,0-7.27-.12Z"/><path class="cls-1" d="M907.6,473.27c-2.53,8-7.47,17.35-10.65,23.72-.2.46-.43.83-.6,1.26a274.31,274.31,0,0,0-21.6-102c-3.39-8-7.12-15.77-11.23-23.38-2.21-4.11-4.54-8.18-6.95-12.18a0,0,0,0,0,0,0,275.7,275.7,0,0,0-471.79.78c-2.44,4-4.74,8.07-6.95,12.2-3.91,7.32-7.52,14.9-10.8,22.6a273.2,273.2,0,0,0-20.82,85.92c-.2,2.35-.34,4.74-.46,7.12s-.2,4.8-.26,7.21-.09,4.65-.09,7v2.35a74.79,74.79,0,0,1-6.72-18.67c0-.09,0-.14-.06-.23l-.09-.37c-.63-2.35-2.64-9.42-4.19-14.88q.3-2.84.69-5.69c.49-3.76,1.06-7.52,1.69-11.23.32-1.87.66-3.73,1-5.57.46-2.44.95-4.88,1.49-7.32.09-.43.17-.89.29-1.35s.29-1.23.43-1.87c.32-1.46.66-2.9,1-4.34s.69-2.81,1.06-4.19c.86-3.27,1.75-6.52,2.73-9.74l0,0c.06-.26.14-.52.23-.8.29-1,.6-2,.92-3v0l.09-.26,0,0c.09-.32.17-.63.29-.95.14-.52.32-1,.49-1.55.06-.14.09-.29.14-.43v0l1.21-3.53c.32-.95.66-1.92,1-2.87.52-1.52,1.09-3,1.64-4.51.69-1.87,1.44-3.76,2.18-5.63.55-1.44,1.12-2.84,1.72-4.28l.09-.17c.92-2.21,1.87-4.42,2.84-6.58.83-1.84,1.67-3.65,2.53-5.46s1.72-3.59,2.61-5.37v0c.89-1.78,1.78-3.53,2.7-5.28s1.9-3.53,2.84-5.26,1.92-3.47,2.93-5.2a289.29,289.29,0,0,1,141.49-123,113.81,113.81,0,0,0,55.48-47.9l19.64-33.43,15.59,50.08a4.72,4.72,0,0,0,8.64.86l52-95.51,7.87,27.25a194,194,0,0,0,90.95,115A290.31,290.31,0,0,1,870,358.37,286.66,286.66,0,0,1,905.27,456Q906.69,464.56,907.6,473.27Z"/><path class="cls-1" d="M332.67,510.56q0,2.54.18,5.07,0,1.25.09,2.49c.06,1.07.12,2.14.21,3.18.06,1.45.15,2.94.3,4.39.06.86.12,1.75.21,2.61s.15,1.81.24,2.73c.06.65.12,1.34.21,2,.09.95.18,1.93.3,2.88.06.62.15,1.25.21,1.9.15,1.07.27,2.14.42,3.17.06.59.15,1.19.24,1.75.18,1.39.36,2.76.59,4.15s.45,3,.71,4.45a6.68,6.68,0,0,0,.18,1.07c.24,1.45.5,2.85.77,4.3,0,.09,0,.18,0,.27.21,1.13.42,2.26.68,3.38q.22,1.34.53,2.67c.24,1.28.53,2.52.83,3.8s.62,2.82,1,4.24q1.82,7.61,4,15.07c.62,2.08,1.31,4.18,2,6.26s1.36,4.12,2.08,6.17a287.72,287.72,0,0,0,55.64,95.13c1.42,1.63,2.91,3.26,4.39,4.87s3,3.2,4.48,4.78a289,289,0,0,0,77.47,57.36c2.11,1.1,4.24,2.14,6.38,3.15V749.65c-2.14-1.07-4.27-2.2-6.38-3.32a274.94,274.94,0,0,1-64.57-48c-.48-.5-1-1-1.48-1.51-1.54-1.57-3.09-3.15-4.57-4.75s-3-3.2-4.42-4.84A273.41,273.41,0,0,1,367,610.73c-2.58-6.14-5-12.37-7.09-18.63-.71-2.08-1.4-4.15-2-6.23s-1.31-4.18-1.9-6.29a270.58,270.58,0,0,1-9.29-48.72A88.73,88.73,0,0,1,332.67,510.56Z"/><line class="cls-2" x1="573.68" y1="336.28" x2="481.04" y2="302.95"/><rect class="cls-1" x="521.03" y="270.39" width="12.66" height="98.45" transform="matrix(0.34, -0.94, 0.94, 0.34, 48.1, 707.65)"/><line class="cls-2" x1="664.53" y1="336.28" x2="757.17" y2="302.95"/><rect class="cls-1" x="661.63" y="313.29" width="98.45" height="12.66" transform="translate(-66.23 259.54) rotate(-19.79)"/><text class="cls-3" transform="translate(201.65 1017.11)">ninjalig</text><text class="cls-4" transform="translate(364.89 1173.04)">Gamers</text></svg>