<svg id="Layer_1" data-name="Layer 1" xmlns="http://www.w3.org/2000/svg" xmlns:xlink="http://www.w3.org/1999/xlink" viewBox="0 0 2000 2000"><defs><style>.cls-1{fill:url(#linear-gradient);}.cls-2{fill:url(#linear-gradient-2);}.cls-3{fill:url(#linear-gradient-3);}.cls-4{fill:url(#linear-gradient-4);}.cls-5{fill:url(#linear-gradient-12);}</style><linearGradient id="linear-gradient" x1="633.1" y1="738.31" x2="780.2" y2="738.31" gradientUnits="userSpaceOnUse"><stop offset="0" stop-color="#f0f"/><stop offset="1" stop-color="blue"/></linearGradient><linearGradient id="linear-gradient-2" x1="667.23" y1="828.11" x2="781.64" y2="828.11" xlink:href="#linear-gradient"/><linearGradient id="linear-gradient-3" x1="763.12" y1="802.39" x2="1302.92" y2="802.39" xlink:href="#linear-gradient"/><linearGradient id="linear-gradient-4" x1="634.32" y1="1265.28" x2="1364.8" y2="1265.28" xlink:href="#linear-gradient"/><linearGradient id="linear-gradient-12" x1="789.09" y1="1428.68" x2="1213.33" y2="1428.68" xlink:href="#linear-gradient"/></defs><title>Ninjatech Gaming vertical gradient profile</title><path d="M1282.1,922.61l-12.38-7.17v-27.8A92.73,92.73,0,0,1,1221,901.41a94.28,94.28,0,0,1-25.93-3.68l-34.45-9.84-6.35-1.84-6.38-1.78-6.06-1.73v32.91l-51.89,30-51.86-30V860c-4-.11-8-.11-12,.08v55.38l-51.86,30-51.92-30V883.15l-6.14,1.76-5.89,1.7v28.82l-51.89,30-51.89-30V897.57a86,86,0,0,1-12.57-6.17c-2.19-1.3-4.3-2.68-6.38-4.16s-4.3-3.3-6.33-5.08a82.83,82.83,0,0,1-6.44-6.27,84.12,84.12,0,0,1-13.22-19.09c0,1.57.11,3.16.19,4.76q0,1.18.08,2.35c.05,1,.11,2,.19,3,.05,1.35.13,2.76.27,4.11,0,.54.08,1.08.13,1.62a.54.54,0,0,0,0,.22,4.47,4.47,0,0,0,0,.62c.05.89.16,1.7.24,2.57.05.62.11,1.27.19,1.92.08.89.16,1.81.27,2.7.05.59.16,1.16.22,1.78.14,1,.24,2,.38,3,.05.54.13,1.11.22,1.65.19,1.3.35,2.6.57,3.89s.43,2.81.68,4.19a5.81,5.81,0,0,0,.16,1c.22,1.38.49,2.7.73,4.06,0,.08,0,.16,0,.27.19,1.05.38,2.11.65,3.16q.2,1.26.49,2.51c.24,1.22.51,2.38.78,3.6s.6,2.65.92,4c1.16,4.79,2.41,9.52,3.81,14.2.6,2,1.22,3.95,1.84,5.89s1.3,3.89,1.95,5.81l10.63-6.11,13.28-7.65,51.86,29.93v59.92l-12.71,7.35h0L829,1029.25c1.32,1.54,2.73,3.06,4.14,4.57s2.79,3,4.22,4.52c1.65,1.7,3.3,3.38,5,5.06a0,0,0,0,0,0,0c1.35,1.35,2.76,2.7,4.16,4,3.73,3.57,7.6,7,11.55,10.33,1.81,1.51,3.65,3,5.49,4.49,1.49,1.22,3,2.38,4.52,3.54.68.54,1.38,1.05,2.05,1.54,1.43,1.08,2.87,2.14,4.3,3.19.22.14.43.3.65.46,1.87,1.35,3.76,2.65,5.65,3.95,1.57,1.05,3.16,2.11,4.76,3.14s3.22,2.06,4.81,3.06,3.25,2,4.89,3,3.3,1.92,5,2.84,3.14,1.76,4.7,2.6c1.79.95,3.57,1.89,5.38,2.81,2,1,4,2,6,2.95l3,1.43c1,.49,2,.92,3,1.38v-41.94l51.92-30,51.86,30v59.89l-8.79,5.08c2.89.14,5.84.3,8.79.35.84,0,1.68.05,2.54.05,1.43,0,2.87.05,4.3.05.92,0,1.81,0,2.68,0s1.7,0,2.51,0c3-.05,6-.19,9-.32l-9-5.16v-59.89l51.86-30,51.89,30v42.67c2.05-.87,4.06-1.81,6-2.73s4-1.92,6-2.92c1.73-.87,3.46-1.73,5.16-2.65,2.79-1.46,5.57-3,8.3-4.57,1.25-.68,2.46-1.41,3.68-2.14q6.53-3.85,12.82-8.06c5-3.35,9.87-6.84,14.6-10.52,1-.78,2-1.57,3-2.38,1.81-1.41,3.62-2.87,5.41-4.35l4.38-3.73c2.89-2.49,5.71-5.06,8.49-7.73s5.49-5.33,8.17-8.09c1.43-1.49,2.84-3,4.27-4.49.68-.76,1.35-1.51,2.05-2.27s1.38-1.51,2.05-2.27l-10.63-6.19-13.84-8V955.84l51.86-29.93,14.68,8.46,10.6,6.11c1.38-3.84,2.65-7.76,3.84-11.68Zm-313.91,93.15-51.89,29.93-51.89-29.93V955.84L916.3,925.9l51.89,29.93Zm127.82,0V955.84l51.89-29.93,51.89,29.93v59.92l-51.89,29.93Z"/><polygon class="cls-1" points="780.2 772.57 731.73 704.04 689.1 729.95 639.79 708.22 633.1 742.49 689.94 768.4 730.89 738.31 780.2 772.57"/><polygon class="cls-2" points="781.64 766.41 699.56 784.01 706.61 833.4 667.23 870.18 696.1 889.81 742.28 847.75 730.73 798.27 781.64 766.41"/><path d="M932,1089.15q-4.87-2-9.65-4.3v0c-2-.95-4.06-1.92-6-2.92v13.38l3,1.43c1,.46,2,.92,3,1.35a267.08,267.08,0,0,0,45.83,15.71,270.1,270.1,0,0,0,49.16,7.35l8.79-5.08v-6.6A257.26,257.26,0,0,1,932,1089.15Zm0,0q-4.87-2-9.65-4.3v0c-2-.95-4.06-1.92-6-2.92v13.38l3,1.43c1,.46,2,.92,3,1.35a267.08,267.08,0,0,0,45.83,15.71,270.1,270.1,0,0,0,49.16,7.35l8.79-5.08v-6.6A257.26,257.26,0,0,1,932,1089.15Z"/><path d="M1026.09,1116.06l-8.8,5.09c2.9.14,5.84.28,8.8.34.84,0,1.68.06,2.54.06,1.42,0,2.85.06,4.3.06.89,0,1.79,0,2.65,0s1.7,0,2.51,0c3-.06,6-.17,9-.31a270,270,0,0,0,94.8-22.41c2-.87,4.05-1.79,6-2.71s4-1.93,6-2.93a272.48,272.48,0,0,0,74-54.2c1.45-1.51,2.85-3,4.28-4.5s2.77-3,4.13-4.55A271.79,271.79,0,0,0,1289,940.48c1.37-3.86,2.63-7.77,3.83-11.68a272,272,0,0,0,11.57-78.71v-.78a88,88,0,0,1-12.68,19.61,257.64,257.64,0,0,1-9.61,53.67c-1.12,3.94-2.38,7.88-3.72,11.76q-2.89,8.42-6.4,16.74a257.74,257.74,0,0,1-46.3,72.64c-1.37,1.54-2.77,3-4.19,4.55s-2.85,3-4.33,4.47l-.78.78a258,258,0,0,1-62.47,46.13c-2,1.06-4,2.07-6,3.07s-4,1.93-6,2.88q-3.94,1.84-8,3.52a257.67,257.67,0,0,1-95.8,20.34c-1.7,0-3.44.06-5.17.06-2.29,0-4.58,0-6.85-.11Z"/><path class="cls-3" d="M1300.73,805.44a269.77,269.77,0,0,0-33.18-92l-12.71,2.14-153.43,26.28a411.54,411.54,0,0,1-137,.24L810.6,716.34h0l-12.68-2.11c-.95,1.63-1.87,3.24-2.76,4.9s-1.78,3.27-2.68,4.94-1.7,3.3-2.54,5v0c-.84,1.68-1.67,3.35-2.46,5.06s-1.6,3.41-2.38,5.13c-.93,2-1.81,4.11-2.68,6.19l-.09.16-.6,1.48-.41,1c-.21.51-.42,1-.61,1.55-.7,1.76-1.41,3.54-2,5.3-.52,1.41-1.06,2.81-1.55,4.25-.32.89-.64,1.81-.94,2.7-.38,1.11-.76,2.22-1.14,3.33v0c-.05.13-.08.27-.13.4-.16.49-.32,1-.46,1.46-.1.3-.19.6-.27.89l0,0a2.26,2.26,0,0,1-.08.24v0c-.18.58-.36,1.17-.56,1.76l-.31,1c0,.13-.09.25-.12.38a3.23,3.23,0,0,0-.1.37l0,0c-.92,3-1.76,6.08-2.57,9.16-.35,1.3-.68,2.62-1,3.95s-.67,2.71-1,4.08c-.13.6-.27,1.19-.41,1.76,0,.33-.13.65-.19,1,0,.11,0,.2-.08.3-.51,2.3-1,4.6-1.41,6.9-.33,1.73-.65,3.49-.95,5.24-.44,2.61-.86,5.27-1.23,7.92-.13.88-.24,1.77-.36,2.65-.24,1.78-.46,3.57-.65,5.35,1.46,5.14,3.36,11.79,3.95,14,0,.11.05.25.09.35a1.92,1.92,0,0,0,.05.22,69.92,69.92,0,0,0,6.33,17.58,3.2,3.2,0,0,0,.21.43,68.87,68.87,0,0,0,7.47,11.3,73.35,73.35,0,0,0,6.33,6.92,69.66,69.66,0,0,0,6.38,5.38c1.38,1.06,2.81,2.06,4.27,3a74.42,74.42,0,0,0,61.06,9l44.21-12.68L916.16,872,971,856.28a221.83,221.83,0,0,1,39.91-7.68c6.3-.63,12.57-1,18.88-1.06l3.38,0c.38,0,.82,0,1.22,0,6.44,0,12.79.33,19.2.89A222.08,222.08,0,0,1,1095,856.2l53,15.14,6.38,1.81,6.36,1.81,38,10.87a80.49,80.49,0,0,0,66.81-10.28c1.62-1.05,3.16-2.16,4.65-3.33a77.16,77.16,0,0,0,6.37-5.51,72.6,72.6,0,0,0,6.33-6.84,75.16,75.16,0,0,0,9.44-14.68c.16-.41.38-.76.57-1.19,3-6,7.65-14.84,10-22.33Q1302.07,813.47,1300.73,805.44Zm-323.4,19.44c-6.55-.27-13.15-.59-19.72-.81a224.22,224.22,0,0,0-41.88,3.35c-10.16,1.68-19.63,2.3-29.69-.73a61.33,61.33,0,0,1-40.37-40.64l-5.31-17.93c54,6.41,101.3,31.28,148.13,57.27C986.15,824.07,980,825,977.34,824.88Zm238.9-38.82a61.43,61.43,0,0,1-40.4,40.64c-10.05,3-19.52,2.41-29.69.73a224.22,224.22,0,0,0-41.88-3.35c-6.6.22-13.14.54-19.72.81-2.65.14-8.81-.81-11.16.52,46.83-26,94.15-50.86,148.13-57.27Z"/><path d="M1267.55,713.48l-12.71,2.14a259.61,259.61,0,0,0-444.25.73h0l-12.68-2.11A272.42,272.42,0,0,1,931.12,598.39a107.15,107.15,0,0,0,52.25-45.1l18.49-31.48L1016.54,569a4.45,4.45,0,0,0,8.14.82l48.94-89.94,7.41,25.66a182.65,182.65,0,0,0,85.64,108.3A273.32,273.32,0,0,1,1267.55,713.48Z"/><path d="M761.56,856.78q0,2.39.17,4.78,0,1.17.08,2.35c.05,1,.11,2,.2,3,.06,1.37.14,2.77.28,4.13.06.81.11,1.65.2,2.46s.14,1.7.22,2.57c.06.61.11,1.26.2,1.9.08.89.17,1.82.28,2.71.06.59.14,1.17.2,1.79.14,1,.25,2,.39,3,.06.56.14,1.12.22,1.65.17,1.31.34,2.6.56,3.91s.42,2.79.67,4.19a6.29,6.29,0,0,0,.17,1c.22,1.37.47,2.68.73,4.05,0,.08,0,.17,0,.25.2,1.06.39,2.12.64,3.18q.21,1.26.5,2.51c.22,1.2.5,2.37.78,3.58s.59,2.65.92,4q1.72,7.17,3.8,14.19c.59,2,1.23,3.94,1.84,5.9s1.29,3.88,2,5.81A270.92,270.92,0,0,0,829,1029.25c1.34,1.54,2.74,3.07,4.13,4.58s2.79,3,4.22,4.5a272.12,272.12,0,0,0,72.95,54c2,1,4,2,6,3v-13.38c-2-1-4-2.07-6-3.13a258.88,258.88,0,0,1-60.8-45.23c-.45-.47-.95-.95-1.4-1.42-1.45-1.48-2.91-3-4.3-4.47s-2.82-3-4.16-4.55a257.44,257.44,0,0,1-45.74-72c-2.43-5.78-4.67-11.65-6.68-17.55-.67-2-1.31-3.91-1.9-5.87s-1.23-3.94-1.79-5.92a254.78,254.78,0,0,1-8.74-45.88A83.55,83.55,0,0,1,761.56,856.78Z"/><line x1="988.5" y1="692.68" x2="901.27" y2="661.29"/><rect x="938.93" y="630.63" width="11.92" height="92.7" transform="translate(-11.97 1336.94) rotate(-70.21)"/><line x1="1074.05" y1="692.68" x2="1161.28" y2="661.29"/><rect x="1071.31" y="671.02" width="92.7" height="11.92" transform="translate(-163.19 418.37) rotate(-19.79)"/><path class="cls-4" d="M667.47,1198.92l1,13.33q12-15.82,31.28-15.83,34.77,0,35.76,48.72v88.6H700.12v-86q0-11.46-3.43-16.64t-12-5.17q-9.6,0-15,9.84v97.95H634.32V1198.92Z"/><path class="cls-4" d="M760.81,1164a18.22,18.22,0,0,1,5.23-13.46q5.23-5.23,14-5.23t14,5.23a18.22,18.22,0,0,1,5.23,13.46,18.6,18.6,0,0,1-5.17,13.46q-5.17,5.36-14,5.36t-14-5.36A18.59,18.59,0,0,1,760.81,1164Zm37,169.72H762.43V1198.92h35.39Z"/><path class="cls-4" d="M857.38,1198.92l1,13.33q12-15.82,31.28-15.83,34.77,0,35.76,48.72v88.6H890v-86q0-11.46-3.43-16.64t-12-5.17q-9.6,0-15,9.84v97.95H824.23V1198.92Z"/><path class="cls-4" d="M987.85,1198.92V1341q0,23.05-10.59,35.14t-30,12.09a60.06,60.06,0,0,1-16-2.12l-.12-28.79a52.43,52.43,0,0,0,9.35,1.12q11.71,0,12-16.45V1198.92ZM950.09,1164a18.22,18.22,0,0,1,5.23-13.46q5.23-5.23,14-5.23t14,5.23a18.22,18.22,0,0,1,5.23,13.46,18.6,18.6,0,0,1-5.17,13.46q-5.17,5.36-14,5.36t-14-5.36A18.59,18.59,0,0,1,950.09,1164Z"/><path class="cls-4" d="M1077.45,1333.75a49.19,49.19,0,0,1-3-10.47q-9.47,13-25.67,13-16.95,0-28.1-11.21t-11.15-29q0-21.18,13.52-32.77t38.94-11.84h10.72v-10.84q0-9.1-3.12-12.83t-9.1-3.74q-13.21,0-13.21,15.45H1012q0-18.69,14-30.84t35.45-12.15q22.18,0,34.33,11.53t12.15,33v63.43q.25,17.45,5,27.29v2.12Zm-20.81-25.17a19.67,19.67,0,0,0,10-2.37,16.75,16.75,0,0,0,6.11-5.61v-28h-8.47q-9,0-14.14,5.73t-5.17,15.33Q1044.92,1308.58,1056.64,1308.58Z"/><path class="cls-4" d="M1170.53,1333.75h-35.39V1142.35h35.39Z"/><path class="cls-4" d="M1197.82,1164a18.22,18.22,0,0,1,5.23-13.46q5.23-5.23,14-5.23t14,5.23a18.22,18.22,0,0,1,5.23,13.46,18.6,18.6,0,0,1-5.17,13.46q-5.17,5.36-14,5.36t-14-5.36A18.59,18.59,0,0,1,1197.82,1164Zm37,169.72h-35.39V1198.92h35.39Z"/><path class="cls-4" d="M1257.89,1262.22q0-33.15,12-49.47t33.52-16.32q18.32,0,28.29,14.46l1.37-12h31.78v134.83q0,25.79-14.46,39.44t-41.5,13.65a68.42,68.42,0,0,1-23.3-4.42q-12.21-4.43-18.19-11.28l11.84-24.42a37.27,37.27,0,0,0,13,8.54,39.5,39.5,0,0,0,15.08,3.3q11.84,0,17-5.67t5.3-18.26V1323q-10.09,13.21-26.29,13.21-21.56,0-33.33-16.76t-12-47.29Zm35.27,8.85q0,18.69,4.86,27.23t15.45,8.54q10.84,0,16.08-7.85v-64.42a17.66,17.66,0,0,0-15.83-8.6q-10.47,0-15.51,8.6t-5,27.66Z"/><path class="cls-5" d="M854.12,1468.53A32.52,32.52,0,0,1,841,1478.62a43.6,43.6,0,0,1-17.33,3.39q-16,0-25.1-10.69t-9.48-29.66v-25.24q0-19.89,8.66-30.48t24.71-10.59q14.33,0,22.46,7.91t9.13,22.82h-8.13q-1.28-12-7-17.5T822.53,1383q-12.69,0-19,8.45t-6.31,24.78v24q0,16.26,7,25.24t19.5,9q13.62,0,22.25-8.63v-27H823.18v-7.63h30.94Z"/><path class="cls-5" d="M916.58,1480.58a50,50,0,0,1-1.43-10.7,25.39,25.39,0,0,1-9.16,8.95,24.25,24.25,0,0,1-12.16,3.17q-10,0-15.54-5.63t-5.56-16q0-11.34,7.74-18t21.35-6.7h13.26V1424.9q0-8.27-4.1-11.87t-12-3.6a17.22,17.22,0,0,0-12,4.28,14.25,14.25,0,0,0-4.71,11.05l-7.91-.07a21.08,21.08,0,0,1,7.13-16.08q7.13-6.59,17.9-6.59,11.62,0,17.61,5.85t6,17v37.86q0,11.34,2.07,17v.86Zm-21.75-6.2a21.57,21.57,0,0,0,12.37-3.64,21.17,21.17,0,0,0,7.88-9.7V1442.3H902.53q-10.84.14-16.33,4.81t-5.49,12.58Q880.72,1474.38,894.83,1474.38Z"/><path class="cls-5" d="M951.8,1403.44,952,1415q7.2-13,20.68-13,14.9,0,19.25,14.19a26.26,26.26,0,0,1,9.38-10.62,23.27,23.27,0,0,1,12.51-3.56q20.82,0,21.32,26.81v51.76h-7.91v-51.26q-.14-10-3.71-14.87t-11.69-4.88a16.6,16.6,0,0,0-12.41,5.7,23,23,0,0,0-5.77,14v51.34h-8v-51.05q0-10.12-3.74-15t-11.66-4.92a15.78,15.78,0,0,0-11.23,4.49q-4.74,4.49-6.88,12.83v53.69h-7.91v-77.15Z"/><path class="cls-5" d="M1081.28,1482q-13.62,0-21.32-8.91t-7.84-25.38v-9.41q0-17,7.42-26.63t20.39-9.66q12.55,0,19.14,8.2t6.74,25.1v7.42H1060v4.35q0,13.26,5.67,20.46t16,7.2q11.41,0,18.47-8.34l4.14,5.28Q1096.68,1482,1081.28,1482Zm-1.35-72.58q-9.34,0-14.37,6.59t-5.53,19.29h37.86v-2.07Q1097.32,1409.43,1079.93,1409.43Z"/><path class="cls-5" d="M1152.87,1410.85a29.51,29.51,0,0,0-5-.5,14.9,14.9,0,0,0-11,4.49q-4.46,4.49-6.31,12.48v53.26h-7.91v-77.15h7.77l.14,11.55q5.63-13,17.68-13a9.9,9.9,0,0,1,4.78.93Z"/><path class="cls-5" d="M1205.34,1461.57a11.42,11.42,0,0,0-4.14-8.71q-4.14-3.74-14-8.18t-13.8-7.41a19.91,19.91,0,0,1-5.77-6.45,17.39,17.39,0,0,1-1.85-8.27,19,19,0,0,1,6.42-14.72q6.42-5.81,16.61-5.81,11,0,17.54,6.2t6.56,16.4H1205a14.44,14.44,0,0,0-4.49-10.87q-4.49-4.31-11.69-4.31-7,0-11.09,3.57a11.7,11.7,0,0,0-4.1,9.27,9.86,9.86,0,0,0,3.14,7.56q3.14,2.93,13.55,7.91,10.77,4.71,14.83,7.77a21.89,21.89,0,0,1,6.13,6.81,18.09,18.09,0,0,1,2.07,8.88q0,9.56-6.63,15.19t-17.47,5.63q-11.48,0-18.57-6.27a20.61,20.61,0,0,1-7.09-16.18h8q.36,7.17,4.81,11.11t12.87,3.94q7.27,0,11.69-3.56A11.54,11.54,0,0,0,1205.34,1461.57Z"/></svg>