<svg id="Layer_1" data-name="Layer 1" xmlns="http://www.w3.org/2000/svg" xmlns:xlink="http://www.w3.org/1999/xlink" viewBox="0 0 1200 1325.32"><defs><style>.cls-1{fill:url(#linear-gradient);}.cls-2{fill:url(#linear-gradient-2);}.cls-3{fill:url(#linear-gradient-3);}.cls-4{fill:url(#linear-gradient-4);}.cls-5{fill:url(#linear-gradient-12);}</style><linearGradient id="linear-gradient" x1="195.7" y1="378.63" x2="355.35" y2="378.63" gradientUnits="userSpaceOnUse"><stop offset="0" stop-color="#f0f"/><stop offset="1" stop-color="blue"/></linearGradient><linearGradient id="linear-gradient-2" x1="232.73" y1="476.1" x2="356.91" y2="476.1" xlink:href="#linear-gradient"/><linearGradient id="linear-gradient-3" x1="336.81" y1="448.18" x2="922.7" y2="448.18" xlink:href="#linear-gradient"/><linearGradient id="linear-gradient-4" x1="203.11" y1="950.58" x2="995.95" y2="950.58" xlink:href="#linear-gradient"/><linearGradient id="linear-gradient-12" x1="371.09" y1="1127.93" x2="831.54" y2="1127.93" xlink:href="#linear-gradient"/></defs><title>Ninjatech Gaming vertical gradient</title><path d="M900.1,578.66l-13.44-7.78V540.71a100.65,100.65,0,0,1-52.83,14.94,102.33,102.33,0,0,1-28.14-4L768.3,541l-6.9-2L754.47,537l-6.57-1.88v35.72l-56.32,32.55-56.29-32.55V510.69c-4.34-.12-8.72-.12-13.06.09v60.11l-56.29,32.55-56.35-32.55v-35l-6.66,1.91-6.4,1.85v31.29l-56.32,32.55-56.32-32.55v-19.4a93.31,93.31,0,0,1-13.65-6.69c-2.38-1.41-4.67-2.91-6.93-4.52s-4.67-3.58-6.87-5.52a89.9,89.9,0,0,1-7-6.81,91.3,91.3,0,0,1-14.35-20.72c0,1.7.12,3.43.2,5.17q0,1.28.09,2.55c.06,1.09.12,2.17.2,3.26.06,1.47.15,3,.29,4.46,0,.59.09,1.17.15,1.76a.58.58,0,0,0,0,.23,4.85,4.85,0,0,0,0,.68c.06,1,.18,1.85.26,2.79.06.67.12,1.38.21,2.08.09,1,.18,2,.29,2.93.06.65.17,1.26.23,1.94.15,1.09.27,2.17.41,3.26.06.59.15,1.2.24,1.79.2,1.41.38,2.82.62,4.23s.47,3.05.73,4.55a6.3,6.3,0,0,0,.18,1.09c.24,1.5.53,2.93.79,4.4,0,.09,0,.18,0,.29.21,1.14.41,2.29.71,3.43q.22,1.36.53,2.73c.27,1.32.56,2.58.85,3.9s.65,2.88,1,4.31c1.26,5.19,2.61,10.33,4.14,15.41.65,2.14,1.32,4.28,2,6.4s1.41,4.23,2.11,6.31L363,590.55l14.41-8.31,56.29,32.49v65l-13.79,8h0l-11.53,6.66c1.44,1.67,3,3.32,4.49,5s3,3.29,4.58,4.9c1.79,1.85,3.58,3.67,5.43,5.49a0,0,0,0,0,0,0c1.47,1.47,3,2.93,4.52,4.34,4.05,3.87,8.25,7.6,12.53,11.21,2,1.64,4,3.29,6,4.87,1.61,1.32,3.26,2.58,4.9,3.84.73.59,1.5,1.14,2.23,1.67,1.56,1.17,3.11,2.32,4.67,3.46.23.15.47.32.7.5,2,1.47,4.08,2.88,6.13,4.29,1.7,1.14,3.43,2.29,5.17,3.4s3.49,2.23,5.22,3.32,3.52,2.17,5.31,3.23,3.58,2.08,5.4,3.08,3.4,1.91,5.11,2.82c1.94,1,3.87,2.05,5.84,3.05,2.17,1.12,4.34,2.17,6.54,3.2l3.23,1.56c1.09.53,2.2,1,3.29,1.5V723.61l56.35-32.55,56.29,32.55v65l-9.54,5.52c3.14.15,6.34.32,9.54.38.91,0,1.82.06,2.76.06,1.55,0,3.11.06,4.67.06,1,0,2,0,2.91,0s1.85,0,2.73,0c3.26-.06,6.49-.21,9.71-.35l-9.71-5.61v-65l56.29-32.55,56.32,32.55v46.31c2.23-.94,4.4-2,6.54-3s4.37-2.08,6.52-3.17c1.88-.94,3.76-1.88,5.6-2.88,3-1.58,6-3.26,9-5,1.35-.73,2.67-1.53,4-2.32q7.09-4.18,13.91-8.75c5.43-3.64,10.71-7.43,15.85-11.42,1.12-.85,2.2-1.7,3.29-2.58,2-1.53,3.93-3.11,5.87-4.73l4.75-4.05c3.14-2.7,6.19-5.49,9.22-8.39s6-5.78,8.86-8.78c1.55-1.61,3.08-3.23,4.64-4.87.73-.82,1.47-1.64,2.23-2.47s1.5-1.64,2.23-2.47l-11.53-6.72-15-8.66v-65l56.29-32.49,15.94,9.19,11.51,6.63c1.5-4.17,2.88-8.42,4.17-12.68ZM559.39,679.77l-56.32,32.49-56.32-32.49v-65l56.32-32.49,56.32,32.49Zm138.73,0v-65l56.32-32.49,56.32,32.49v65l-56.32,32.49Z"/><polygon class="cls-1" points="355.35 415.82 302.74 341.44 256.48 369.56 202.96 345.97 195.7 383.16 257.38 411.29 301.83 378.63 355.35 415.82"/><polygon class="cls-2" points="356.91 409.13 267.82 428.24 275.48 481.83 232.73 521.76 264.07 543.06 314.19 497.42 301.66 443.7 356.91 409.13"/><path d="M520.07,759.42q-5.28-2.2-10.48-4.67v0c-2.2-1-4.4-2.08-6.51-3.17v14.53l3.23,1.56c1.09.5,2.2,1,3.29,1.47a289.88,289.88,0,0,0,49.75,17.05,293.15,293.15,0,0,0,53.35,8l9.54-5.52v-7.16A279.22,279.22,0,0,1,520.07,759.42Zm0,0q-5.28-2.2-10.48-4.67v0c-2.2-1-4.4-2.08-6.51-3.17v14.53l3.23,1.56c1.09.5,2.2,1,3.29,1.47a289.88,289.88,0,0,0,49.75,17.05,293.15,293.15,0,0,0,53.35,8l9.54-5.52v-7.16A279.22,279.22,0,0,1,520.07,759.42Z"/><path d="M622.24,788.62l-9.55,5.52c3.15.15,6.34.3,9.55.36.91,0,1.82.06,2.76.06,1.55,0,3.09.06,4.67.06,1,0,1.94,0,2.88,0s1.85,0,2.73,0c3.28-.06,6.49-.18,9.73-.33A293,293,0,0,0,747.9,769.91c2.21-.94,4.4-1.94,6.55-2.94s4.37-2.09,6.52-3.18A295.74,295.74,0,0,0,841.3,705c1.58-1.64,3.09-3.24,4.64-4.88s3-3.28,4.49-4.94a295,295,0,0,0,57.16-97.07c1.49-4.18,2.85-8.43,4.15-12.68A295.27,295.27,0,0,0,924.3,500v-.85a95.47,95.47,0,0,1-13.77,21.29,279.64,279.64,0,0,1-10.43,58.25c-1.21,4.28-2.58,8.55-4,12.77q-3.14,9.14-6.94,18.16a279.74,279.74,0,0,1-50.25,78.84c-1.49,1.67-3,3.31-4.55,4.94s-3.09,3.24-4.7,4.85l-.85.85A280,280,0,0,1,761,749.14c-2.15,1.15-4.34,2.24-6.52,3.34s-4.34,2.09-6.55,3.12q-4.28,2-8.64,3.82a279.66,279.66,0,0,1-104,22.08c-1.85,0-3.73.06-5.61.06-2.49,0-5,0-7.43-.12Z"/><path class="cls-3" d="M920.32,451.49a292.8,292.8,0,0,0-36-99.82L870.52,354,704,382.52a446.67,446.67,0,0,1-148.68.26l-167-28h0l-13.76-2.29c-1,1.76-2,3.52-3,5.32s-1.93,3.54-2.9,5.37-1.85,3.58-2.76,5.4v0c-.91,1.82-1.81,3.64-2.67,5.5s-1.74,3.7-2.58,5.57c-1,2.2-2,4.46-2.91,6.72l-.09.18-.66,1.6c-.15.36-.3.72-.44,1.09-.23.55-.45,1.12-.66,1.68-.76,1.91-1.53,3.84-2.22,5.75-.56,1.53-1.15,3-1.68,4.61-.35,1-.7,2-1,2.93-.41,1.21-.83,2.41-1.24,3.61v0c-.06.14-.09.29-.14.43-.18.53-.35,1.06-.5,1.58-.11.32-.2.65-.29,1l0,0a2.45,2.45,0,0,1-.08.26v0c-.2.63-.39,1.27-.61,1.91l-.33,1.12c0,.14-.09.27-.13.42a3.51,3.51,0,0,0-.11.4l0,0c-1,3.28-1.91,6.6-2.79,9.94-.38,1.41-.74,2.85-1.09,4.29s-.73,2.94-1.06,4.43c-.14.65-.29,1.29-.44,1.91-.05.36-.14.71-.2,1.06,0,.12-.05.21-.08.32-.55,2.5-1.06,5-1.53,7.49-.36,1.87-.71,3.78-1,5.69-.48,2.84-.93,5.72-1.34,8.6-.14,1-.26,1.92-.39,2.88-.26,1.93-.49,3.88-.71,5.81,1.58,5.58,3.65,12.8,4.29,15.2,0,.12.06.27.09.38a2.08,2.08,0,0,0,.06.24,75.89,75.89,0,0,0,6.87,19.08,3.47,3.47,0,0,0,.23.47,74.75,74.75,0,0,0,8.1,12.27,79.62,79.62,0,0,0,6.87,7.51,75.61,75.61,0,0,0,6.93,5.84c1.5,1.15,3.05,2.23,4.63,3.29a80.77,80.77,0,0,0,66.27,9.75l48-13.77,13.79-4,59.47-17.08a240.76,240.76,0,0,1,43.31-8.33c6.84-.68,13.65-1.06,20.49-1.15l3.66,0c.42,0,.89,0,1.32,0,7,0,13.89.36,20.84,1a241,241,0,0,1,45,8.43L754.47,523l6.93,2,6.9,2,41.29,11.8a87.36,87.36,0,0,0,72.52-11.15c1.76-1.14,3.43-2.34,5.05-3.61a83.75,83.75,0,0,0,6.92-6,78.8,78.8,0,0,0,6.88-7.43,81.58,81.58,0,0,0,10.24-15.93c.18-.44.41-.83.61-1.29,3.26-6.52,8.31-16.11,10.89-24.24Q921.78,460.21,920.32,451.49Zm-351,21.09c-7.11-.29-14.27-.64-21.4-.88a243.36,243.36,0,0,0-45.46,3.64c-11,1.82-21.31,2.5-32.22-.79a66.57,66.57,0,0,1-43.82-44.11L420.66,411c58.61,7,109.94,34,160.77,62.16C578.88,471.71,572.19,472.74,569.32,472.59Zm259.29-42.14a66.67,66.67,0,0,1-43.85,44.11c-10.91,3.29-21.19,2.62-32.22.79a243.36,243.36,0,0,0-45.46-3.64c-7.17.24-14.26.59-21.4.88-2.87.15-9.57-.88-12.11.56,50.83-28.21,102.19-55.21,160.77-62.16Z"/><path d="M884.31,351.68,870.52,354a281.77,281.77,0,0,0-482.17.79h0l-13.76-2.29A295.67,295.67,0,0,1,519.15,226.77a116.29,116.29,0,0,0,56.71-49l20.07-34.16,15.94,51.19a4.83,4.83,0,0,0,8.83.89L673.83,98.1l8,27.85A198.24,198.24,0,0,0,774.82,243.5,296.65,296.65,0,0,1,884.31,351.68Z"/><path d="M335.12,507.21q0,2.59.18,5.19,0,1.27.09,2.55c.06,1.09.12,2.18.21,3.24.06,1.49.15,3,.3,4.49.06.88.12,1.79.21,2.67s.15,1.85.24,2.79c.06.67.12,1.36.21,2.06.09,1,.18,2,.3,2.94.06.64.15,1.27.21,1.94.15,1.09.27,2.18.42,3.24.06.61.15,1.21.24,1.79.18,1.43.36,2.82.61,4.25s.46,3,.73,4.55a6.83,6.83,0,0,0,.18,1.09c.24,1.49.52,2.91.79,4.4,0,.09,0,.18,0,.27.21,1.15.42,2.3.7,3.46q.23,1.36.55,2.73c.24,1.3.54,2.58.85,3.88s.64,2.88,1,4.34q1.86,7.78,4.12,15.4c.64,2.12,1.33,4.28,2,6.4s1.39,4.22,2.12,6.31A294,294,0,0,0,408.3,694.4c1.45,1.67,3,3.34,4.49,5s3,3.27,4.58,4.88a295.35,295.35,0,0,0,79.18,58.62c2.15,1.12,4.34,2.18,6.52,3.21V751.57c-2.18-1.09-4.37-2.24-6.52-3.4a281,281,0,0,1-66-49.1c-.49-.52-1-1-1.52-1.55-1.58-1.61-3.15-3.21-4.67-4.85s-3.06-3.28-4.52-4.94a279.42,279.42,0,0,1-49.64-78.15c-2.64-6.28-5.06-12.65-7.25-19-.73-2.12-1.43-4.25-2.06-6.37s-1.33-4.28-1.94-6.43A276.53,276.53,0,0,1,349.47,528,90.69,90.69,0,0,1,335.12,507.21Z"/><line x1="581.43" y1="329.1" x2="486.76" y2="295.04"/><rect x="527.63" y="261.76" width="12.94" height="100.62" transform="translate(59.66 709) rotate(-70.21)"/><line x1="674.29" y1="329.1" x2="768.96" y2="295.04"/><rect x="671.32" y="305.6" width="100.62" height="12.94" transform="translate(-63.04 262.74) rotate(-19.79)"/><path class="cls-4" d="M239.08,878.56,240.17,893q13-17.18,33.95-17.18,37.73,0,38.82,52.88v96.16H274.52V931.58q0-12.44-3.72-18.06t-13.05-5.61q-10.42,0-16.23,10.69V1024.9H203.11V878.56Z"/><path class="cls-4" d="M340.39,840.69q0-8.93,5.68-14.61t15.15-5.68q9.47,0,15.15,5.68T382,840.69a20.19,20.19,0,0,1-5.61,14.61q-5.61,5.82-15.22,5.82T346,855.3A20.18,20.18,0,0,1,340.39,840.69Zm40.17,184.21H342.14V878.56h38.41Z"/><path class="cls-4" d="M445.21,878.56,446.29,893q13-17.18,33.95-17.18,37.73,0,38.82,52.88v96.16H480.64V931.58q0-12.44-3.72-18.06t-13.05-5.61q-10.42,0-16.23,10.69V1024.9H409.23V878.56Z"/><path class="cls-4" d="M586.81,878.56v154.19q0,25-11.5,38.14T542.72,1084a65.24,65.24,0,0,1-17.31-2.3l-.14-31.24a56.94,56.94,0,0,0,10.14,1.22q12.71,0,13-17.85V878.56Zm-41-37.87q0-8.93,5.68-14.61t15.15-5.68q9.47,0,15.15,5.68t5.68,14.61a20.19,20.19,0,0,1-5.61,14.61q-5.61,5.82-15.22,5.82t-15.22-5.82A20.18,20.18,0,0,1,545.83,840.69Z"/><path class="cls-4" d="M684.06,1024.9a53.44,53.44,0,0,1-3.25-11.36q-10.28,14.07-27.86,14.07-18.4,0-30.5-12.17t-12.1-31.51q0-23,14.67-35.57t42.27-12.85h11.63V923.74q0-9.87-3.38-13.93t-9.87-4.06q-14.34,0-14.34,16.77H613.05q0-20.29,15.22-33.47t38.48-13.19q24.07,0,37.26,12.51t13.19,35.77V993q.27,18.94,5.41,29.62v2.3Zm-22.59-27.32A21.35,21.35,0,0,0,672.29,995a18.18,18.18,0,0,0,6.63-6.09V958.49h-9.2q-9.74,0-15.35,6.22t-5.61,16.64Q648.76,997.58,661.47,997.58Z"/><path class="cls-4" d="M785.09,1024.9H746.68V817.16h38.41Z"/><path class="cls-4" d="M814.71,840.69q0-8.93,5.68-14.61t15.15-5.68q9.47,0,15.15,5.68t5.68,14.61a20.19,20.19,0,0,1-5.61,14.61q-5.61,5.82-15.22,5.82t-15.22-5.82A20.18,20.18,0,0,1,814.71,840.69Zm40.17,184.21H816.47V878.56h38.41Z"/><path class="cls-4" d="M879.9,947.27q0-36,13-53.69t36.38-17.72q19.88,0,30.7,15.69l1.49-13h34.49V1024.9q0,28-15.69,42.81t-45,14.81a74.27,74.27,0,0,1-25.29-4.8q-13.26-4.8-19.75-12.24L903,1039a40.47,40.47,0,0,0,14.07,9.26,42.88,42.88,0,0,0,16.37,3.58q12.85,0,18.46-6.15t5.75-19.81v-12.58q-11,14.34-28.54,14.34-23.4,0-36.18-18.19T879.9,958.09Zm38.28,9.6q0,20.29,5.27,29.55t16.77,9.26q11.77,0,17.45-8.52V917.24q-6-9.33-17.18-9.33t-16.84,9.33q-5.48,9.33-5.48,30Z"/><path class="cls-5" d="M441.67,1171.19a35.31,35.31,0,0,1-14.24,11,47.33,47.33,0,0,1-18.8,3.68q-17.34,0-27.24-11.61T371.09,1142v-27.4q0-21.59,9.4-33.08T407.31,1070q15.56,0,24.38,8.59t9.91,24.76h-8.82q-1.39-13-7.62-19t-17.76-6q-13.78,0-20.62,9.17t-6.85,26.89v26q0,17.64,7.54,27.39t21.17,9.75q14.78,0,24.14-9.36v-29.33H408.08v-8.28h33.59Z"/><path class="cls-5" d="M509.46,1184.27a54.35,54.35,0,0,1-1.55-11.61,27.57,27.57,0,0,1-9.94,9.71,26.32,26.32,0,0,1-13.19,3.44q-10.83,0-16.87-6.11t-6-17.41q0-12.3,8.4-19.5t23.18-7.27h14.39v-11.68q0-9-4.45-12.89t-13-3.91q-8,0-13.08,4.64a15.47,15.47,0,0,0-5.11,12l-8.59-.08a22.88,22.88,0,0,1,7.74-17.45Q479,1099,490.73,1099q12.61,0,19.11,6.35t6.5,18.5v41.09q0,12.3,2.24,18.42v.93Zm-23.6-6.73a23.42,23.42,0,0,0,13.43-3.95,23,23,0,0,0,8.55-10.52v-20.35H494.21q-11.76.16-17.72,5.22t-6,13.66Q470.53,1177.54,485.85,1177.54Z"/><path class="cls-5" d="M547.69,1100.54l.23,12.54q7.81-14.08,22.44-14.08,16.17,0,20.89,15.4a28.5,28.5,0,0,1,10.18-11.53A25.25,25.25,0,0,1,615,1099q22.6,0,23.14,29.1v56.18h-8.59v-55.64q-.16-10.83-4-16.14t-12.69-5.3a18,18,0,0,0-13.47,6.19,24.94,24.94,0,0,0-6.27,15.17v55.72h-8.67v-55.41q0-11-4.06-16.33t-12.65-5.34a17.12,17.12,0,0,0-12.19,4.88q-5.15,4.88-7.47,13.93v58.27h-8.59v-83.73Z"/><path class="cls-5" d="M688.22,1185.82q-14.78,0-23.14-9.67t-8.51-27.55v-10.22q0-18.42,8-28.9T686.75,1099q13.62,0,20.78,8.9t7.31,27.24v8H665.08v4.72q0,14.4,6.15,22.21t17.37,7.82q12.38,0,20-9.05l4.49,5.73Q704.94,1185.82,688.22,1185.82ZM686.75,1107q-10.14,0-15.59,7.16t-6,20.93h41.09v-2.24Q705.63,1107,686.75,1107Z"/><path class="cls-5" d="M765.92,1108.58a32,32,0,0,0-5.42-.54,16.17,16.17,0,0,0-12,4.88q-4.84,4.88-6.85,13.54v57.81H733.1v-83.73h8.44l.15,12.54q6.11-14.08,19.19-14.08a10.74,10.74,0,0,1,5.19,1Z"/><path class="cls-5" d="M822.87,1163.63a12.4,12.4,0,0,0-4.49-9.46q-4.49-4.05-15.21-8.88t-15-8a21.61,21.61,0,0,1-6.27-7,18.89,18.89,0,0,1-2-9,20.62,20.62,0,0,1,7-16q7-6.31,18-6.31,11.92,0,19,6.73t7.12,17.8h-8.59a15.67,15.67,0,0,0-4.87-11.8q-4.88-4.68-12.69-4.68-7.59,0-12,3.87a12.7,12.7,0,0,0-4.45,10.06,10.7,10.7,0,0,0,3.4,8.2q3.4,3.17,14.7,8.59,11.68,5.11,16.1,8.44a23.74,23.74,0,0,1,6.66,7.39,19.63,19.63,0,0,1,2.24,9.63q0,10.37-7.2,16.48t-19,6.11q-12.46,0-20.16-6.81a22.37,22.37,0,0,1-7.7-17.57h8.67q.39,7.78,5.22,12.05t14,4.27q7.89,0,12.69-3.86A12.52,12.52,0,0,0,822.87,1163.63Z"/></svg>