<svg id="Layer_1" data-name="Layer 1" xmlns="http://www.w3.org/2000/svg" xmlns:xlink="http://www.w3.org/1999/xlink" viewBox="0 0 2000 2000"><defs><style>.cls-1{fill:url(#linear-gradient);}.cls-2,.cls-4,.cls-5{fill:#fff;}.cls-3{fill:none;}.cls-4{font-size:241.19px;font-family:RobotoCondensed-Bold, Roboto Condensed;font-weight:700;}.cls-5{font-size:138px;font-family:RobotoCondensed-Light, Roboto Condensed;}</style><linearGradient id="linear-gradient" x1="-463.49" y1="983.65" x2="2446.67" y2="983.65" gradientUnits="userSpaceOnUse"><stop offset="0" stop-color="#f0f"/><stop offset="1" stop-color="blue"/></linearGradient></defs><title>Ninjatech Gaming vertical bg gradient</title><rect class="cls-1" x="-463.49" y="-57.5" width="2910.16" height="2082.29"/><path class="cls-2" d="M1266.88,926.86l-11.7-6.77V893.82a87.64,87.64,0,0,1-46,13,89.1,89.1,0,0,1-24.51-3.48l-32.56-9.3-6-1.74-6-1.69-5.72-1.64v31.1l-49,28.34-49-28.34V867.67c-3.78-.1-7.59-.1-11.37.08v52.34l-49,28.34-49.07-28.34V889.57l-5.8,1.66-5.57,1.61v27.24l-49,28.34-49-28.34V903.19a81.25,81.25,0,0,1-11.88-5.83c-2.07-1.23-4.06-2.53-6-3.94s-4.06-3.12-6-4.8a78.28,78.28,0,0,1-6.08-5.93,79.5,79.5,0,0,1-12.5-18c0,1.48.1,3,.18,4.5q0,1.11.08,2.22c0,.95.1,1.89.18,2.84.05,1.28.13,2.61.26,3.88,0,.51.08,1,.13,1.53a.51.51,0,0,0,0,.2,4.23,4.23,0,0,0,0,.59c.05.84.15,1.61.23,2.43.05.59.1,1.2.18,1.81.08.84.15,1.71.26,2.56,0,.56.15,1.1.2,1.69.13.95.23,1.89.36,2.84.05.51.13,1,.2,1.56.18,1.23.33,2.45.54,3.68s.41,2.66.64,4a5.49,5.49,0,0,0,.15.95c.2,1.3.46,2.56.69,3.83,0,.08,0,.15,0,.26.18,1,.36,2,.61,3q.19,1.19.46,2.38c.23,1.15.49,2.25.74,3.4s.56,2.5.87,3.76c1.1,4.52,2.27,9,3.6,13.42.56,1.87,1.15,3.73,1.74,5.57s1.23,3.68,1.84,5.49l10-5.78L811.72,930l49,28.29v56.63l-12,7h0l-10,5.8c1.25,1.46,2.58,2.89,3.91,4.32s2.63,2.86,4,4.27c1.56,1.61,3.12,3.19,4.73,4.78a0,0,0,0,0,0,0c1.28,1.28,2.61,2.56,3.94,3.78,3.53,3.37,7.18,6.62,10.91,9.76,1.71,1.43,3.45,2.86,5.19,4.24,1.41,1.15,2.84,2.25,4.27,3.35.64.51,1.3,1,1.94,1.46,1.36,1,2.71,2,4.06,3,.2.13.41.28.61.43,1.76,1.28,3.55,2.5,5.34,3.73,1.48,1,3,2,4.5,3s3,1.94,4.55,2.89,3.07,1.89,4.63,2.81,3.12,1.81,4.7,2.68,3,1.66,4.45,2.45c1.69.89,3.37,1.79,5.09,2.66,1.89,1,3.78,1.89,5.7,2.79l2.81,1.35c.95.46,1.92.87,2.86,1.3v-39.64l49.07-28.34,49,28.34v56.6l-8.31,4.8c2.74.13,5.52.28,8.31.33.79,0,1.58.05,2.4.05,1.35,0,2.71.05,4.06.05.87,0,1.71,0,2.53,0s1.61,0,2.38,0c2.84-.05,5.65-.18,8.46-.31l-8.46-4.88v-56.6l49-28.34,49,28.34v40.33c1.94-.82,3.83-1.71,5.7-2.58s3.81-1.81,5.67-2.76c1.63-.82,3.27-1.64,4.88-2.5,2.63-1.38,5.26-2.84,7.84-4.32,1.18-.64,2.33-1.33,3.48-2q6.17-3.64,12.11-7.62c4.73-3.17,9.33-6.47,13.8-9.94,1-.74,1.92-1.48,2.86-2.25,1.71-1.33,3.43-2.71,5.11-4.11l4.14-3.53c2.73-2.35,5.39-4.78,8-7.31s5.19-5,7.72-7.64c1.35-1.41,2.68-2.81,4-4.24.64-.72,1.28-1.43,1.94-2.15s1.3-1.43,1.94-2.15l-10-5.85-13.08-7.54V958.26l49-28.29,13.88,8,10,5.78c1.3-3.63,2.5-7.33,3.63-11Zm-296.67,88-49,28.29-49-28.29V958.26l49-28.29,49,28.29Zm120.8,0V958.26l49-28.29,49,28.29v56.63l-49,28.29Z"/><path class="cls-2" d="M1270.82,778.84l-18.25-37.64-5.21.89h0l-149.14,25.5a398,398,0,0,1-133.58.2l-149.52-25L804.47,741,789.7,780.15l-.23.56-.64,1.71v0l0,0-3.12,8.31L779.42,810c-.31,1.64-.61,3.3-.89,5-.59,3.3-1.07,6.64-1.51,10q-.34,2.53-.61,5.06c1.38,4.86,3.17,11.14,3.73,13.24l.08.33c0,.08,0,.13.05.2a66.56,66.56,0,0,0,6,16.61,3.18,3.18,0,0,0,.2.41,65.4,65.4,0,0,0,7.05,10.68,68.88,68.88,0,0,0,6,6.54,67.48,67.48,0,0,0,6,5.09c1.3,1,2.66,1.94,4,2.86a70.33,70.33,0,0,0,57.7,8.48l41.78-12L921,879l51.77-14.87a210,210,0,0,1,37.72-7.26c6-.59,11.88-.92,17.84-1l3.19,0c.36,0,.77,0,1.15,0,6.08,0,12.09.31,18.14.84a210.09,210.09,0,0,1,39.15,7.33l50.06,14.31,6,1.71,6,1.71,36,10.27a76.1,76.1,0,0,0,63.15-9.71c1.53-1,3-2,4.4-3.14a72.94,72.94,0,0,0,6-5.21,68.18,68.18,0,0,0,6-6.47,70.94,70.94,0,0,0,8.92-13.88c.15-.38.36-.72.54-1.12a71.61,71.61,0,0,0,6.31-22.18Zm-292,55.66c-6.18-.26-12.42-.56-18.63-.77a211.8,211.8,0,0,0-39.58,3.17c-9.61,1.58-18.55,2.17-28.06-.69a58,58,0,0,1-38.15-38.41l-5-16.94c51,6.06,95.73,29.57,140,54.13C987.18,833.74,981.36,834.63,978.85,834.5Zm225.78-36.7a58.05,58.05,0,0,1-38.18,38.41c-9.51,2.86-18.45,2.27-28.06.69a211.82,211.82,0,0,0-39.59-3.17c-6.24.2-12.42.51-18.63.77-2.5.13-8.33-.77-10.55.49,44.26-24.56,89-48.07,140-54.13Z"/><path class="cls-2" d="M1253.13,729.22l-12,2-145,24.84a389,389,0,0,1-129.46.23L821.28,731.93h0l-12-2c-.89,1.53-1.76,3.07-2.61,4.63s-1.69,3.09-2.53,4.68-1.61,3.12-2.4,4.7v0c-.79,1.58-1.58,3.17-2.33,4.78s-1.51,3.22-2.25,4.86c-.87,1.92-1.71,3.88-2.53,5.85l-.08.15c-.38.92-.77,1.87-1.15,2.81l-.38,1c-.66,1.66-1.33,3.35-1.94,5-.49,1.33-1,2.66-1.46,4-.31.84-.61,1.71-.89,2.56l-1.07,3.14v0c-.05.13-.08.26-.13.38-.15.46-.31.92-.43,1.38-.1.28-.2.56-.28.84v0l-.08.23v0c-.2.66-.41,1.33-.64,2,0,.2-.13.43-.18.64s-.15.46-.23.72v0c-.87,2.86-1.66,5.75-2.43,8.66-.33,1.23-.64,2.48-.95,3.73s-.64,2.56-.92,3.86c-.13.56-.26,1.12-.38,1.66-.05.31-.13.61-.18.92l-.08.28c-.49,2.17-.92,4.34-1.33,6.52-.31,1.64-.61,3.3-.89,5-.59,3.3-1.07,6.64-1.51,10q-.34,2.53-.61,5.06c1.38,4.86,3.17,11.14,3.73,13.24-.31-1.51-.59-3-.77-4.55l6.31-48,3.12-8.31,0,0v0l.64-1.71.23-.56L804.47,741l10.63,1.76,149.52,25a398,398,0,0,0,133.58-.2l149.14-25.5h0l5.21-.89,18.25,37.64,13.67,37.28A255.1,255.1,0,0,0,1253.13,729.22Z"/><polygon class="cls-2" points="792.55 785.07 746.74 720.3 706.46 744.78 659.85 724.25 653.53 756.63 707.25 781.12 745.95 752.68 792.55 785.07"/><polygon class="cls-2" points="793.91 779.25 716.34 795.88 723 842.55 685.78 877.31 713.07 895.86 756.71 856.12 745.8 809.35 793.91 779.25"/><path class="cls-2" d="M936,1084.25q-4.6-1.92-9.12-4.06v0c-1.92-.89-3.83-1.81-5.67-2.76v12.65l2.81,1.35c.95.43,1.92.87,2.86,1.28a252.4,252.4,0,0,0,43.32,14.85,255.26,255.26,0,0,0,46.46,7l8.31-4.8v-6.24A243.13,243.13,0,0,1,936,1084.25Zm0,0q-4.6-1.92-9.12-4.06v0c-1.92-.89-3.83-1.81-5.67-2.76v12.65l2.81,1.35c.95.43,1.92.87,2.86,1.28a252.4,252.4,0,0,0,43.32,14.85,255.26,255.26,0,0,0,46.46,7l8.31-4.8v-6.24A243.13,243.13,0,0,1,936,1084.25Z"/><path class="cls-2" d="M1024.94,1109.68l-8.32,4.81c2.74.13,5.52.26,8.32.32.79,0,1.58.05,2.4.05,1.35,0,2.69.05,4.07.05.84,0,1.69,0,2.51,0s1.61,0,2.38,0c2.85-.05,5.65-.16,8.48-.29a255.14,255.14,0,0,0,89.59-21.18c1.93-.82,3.83-1.69,5.7-2.56s3.8-1.82,5.68-2.77a257.51,257.51,0,0,0,69.95-51.23c1.37-1.43,2.69-2.83,4-4.25s2.61-2.85,3.91-4.3a256.85,256.85,0,0,0,49.77-84.52c1.29-3.64,2.48-7.34,3.62-11A257.1,257.1,0,0,0,1288,858.33v-.74a83.13,83.13,0,0,1-12,18.54,243.49,243.49,0,0,1-9.08,50.72c-1.06,3.72-2.24,7.45-3.51,11.12q-2.73,8-6,15.82a243.58,243.58,0,0,1-43.75,68.65c-1.29,1.45-2.61,2.88-4,4.3s-2.69,2.83-4.09,4.22l-.74.74a243.81,243.81,0,0,1-59,43.59c-1.87,1-3.78,2-5.68,2.9s-3.78,1.82-5.7,2.72q-3.72,1.74-7.53,3.33a243.51,243.51,0,0,1-90.54,19.22c-1.61,0-3.25.05-4.88.05-2.17,0-4.33,0-6.47-.11Z"/><path class="cls-2" d="M1286.56,831.46c-2.25,7.08-6.64,15.44-9.48,21.11-.18.41-.38.74-.54,1.12a244.1,244.1,0,0,0-19.22-90.8c-3-7.13-6.34-14-10-20.8-2-3.65-4-7.28-6.18-10.84a0,0,0,0,0,0,0,245.34,245.34,0,0,0-419.84.69c-2.17,3.58-4.22,7.18-6.18,10.86-3.48,6.52-6.69,13.26-9.61,20.11A243.12,243.12,0,0,0,787,839.36c-.18,2.1-.31,4.22-.41,6.34s-.18,4.27-.23,6.41-.08,4.14-.08,6.24v2.1a66.56,66.56,0,0,1-6-16.61c0-.08,0-.13-.05-.2l-.08-.33c-.56-2.1-2.35-8.38-3.73-13.24q.27-2.53.61-5.06c.43-3.35.95-6.7,1.51-10,.28-1.66.59-3.32.89-5,.41-2.17.84-4.34,1.33-6.52.08-.38.15-.79.26-1.2s.26-1.1.38-1.66c.28-1.3.59-2.58.92-3.86s.61-2.5.95-3.73c.77-2.91,1.56-5.8,2.43-8.66l0,0c.05-.23.13-.46.2-.72.26-.87.54-1.76.82-2.63v0l.08-.23,0,0c.08-.28.15-.56.26-.84.13-.46.28-.92.43-1.38.05-.13.08-.26.13-.38v0l1.07-3.14c.28-.84.59-1.71.89-2.56.46-1.35,1-2.68,1.46-4,.61-1.66,1.28-3.35,1.94-5,.49-1.28,1-2.53,1.53-3.81l.08-.15c.82-2,1.66-3.94,2.53-5.85.74-1.64,1.48-3.25,2.25-4.86s1.53-3.19,2.33-4.78v0c.79-1.58,1.58-3.14,2.4-4.7s1.69-3.14,2.53-4.68,1.71-3.09,2.61-4.63A257.43,257.43,0,0,1,935.18,620.45a101.27,101.27,0,0,0,49.37-42.63L1002,548.08l13.88,44.57a4.2,4.2,0,0,0,7.69.77l46.25-85,7,24.25A172.65,172.65,0,0,0,1157.79,635a258.34,258.34,0,0,1,95.35,94.2,255.1,255.1,0,0,1,31.36,86.91Q1285.75,823.72,1286.56,831.46Z"/><path class="cls-2" d="M774.94,864.64q0,2.26.16,4.52,0,1.11.08,2.22c.05,1,.11,1.9.18,2.83.05,1.29.13,2.61.26,3.91.05.77.11,1.56.18,2.32s.13,1.61.21,2.43c.05.58.11,1.19.18,1.8.08.85.16,1.72.26,2.56.05.55.13,1.11.18,1.69.13,1,.24,1.9.37,2.83.05.53.13,1.06.21,1.56.16,1.24.32,2.46.53,3.7s.4,2.64.63,4a6,6,0,0,0,.16,1c.21,1.29.45,2.53.69,3.83,0,.08,0,.16,0,.24.18,1,.37,2,.61,3q.2,1.19.48,2.38c.21,1.14.47,2.24.74,3.38s.55,2.51.87,3.78q1.62,6.77,3.59,13.41c.55,1.85,1.16,3.72,1.74,5.57s1.21,3.67,1.85,5.49a256,256,0,0,0,49.51,84.65c1.27,1.45,2.59,2.9,3.91,4.33s2.64,2.85,4,4.25a257.17,257.17,0,0,0,68.94,51c1.87,1,3.78,1.9,5.68,2.8v-12.65c-1.9-1-3.8-2-5.68-3A244.66,244.66,0,0,1,858,1031.71c-.42-.45-.9-.9-1.32-1.35-1.37-1.4-2.75-2.8-4.07-4.22s-2.67-2.85-3.93-4.3a243.3,243.3,0,0,1-43.22-68c-2.3-5.47-4.41-11-6.31-16.58-.63-1.85-1.24-3.7-1.8-5.54s-1.16-3.72-1.69-5.6a240.78,240.78,0,0,1-8.26-43.36A79,79,0,0,1,774.94,864.64Z"/><line class="cls-3" x1="989.41" y1="709.56" x2="906.97" y2="679.9"/><rect class="cls-2" x="942.56" y="650.92" width="11.26" height="87.61" transform="translate(-26.49 1351.78) rotate(-70.21)"/><line class="cls-3" x1="1070.26" y1="709.56" x2="1152.69" y2="679.9"/><rect class="cls-2" x="1067.67" y="689.1" width="87.61" height="11.26" transform="translate(-169.57 417.32) rotate(-19.79)"/><text class="cls-4" transform="translate(652.68 1315.41)">ninjalig</text><text class="cls-5" transform="translate(790.78 1454.18)">Gamers</text></svg>