<svg id="Layer_1" data-name="Layer 1" xmlns="http://www.w3.org/2000/svg" viewBox="0 0 1200 1325.32"><defs><style>.cls-1{font-size:278.99px;font-family:RobotoCondensed-Bold, Roboto Condensed;font-weight:700;}.cls-2{font-size:159.63px;font-family:RobotoCondensed-Light, Roboto Condensed;}</style></defs><title>Ninjatech Gaming vertical black</title><path d="M902.55,578.05,889,570.22V539.83a101.38,101.38,0,0,1-53.21,15,103.07,103.07,0,0,1-28.35-4L769.8,540.1l-6.95-2-7-2-6.62-1.89v36L692.53,603l-56.7-32.78V509.59c-4.37-.12-8.78-.12-13.15.09v60.54L566,603l-56.76-32.78V534.93l-6.71,1.92-6.44,1.86v31.51L439.35,603l-56.73-32.78V550.68a94,94,0,0,1-13.75-6.74c-2.39-1.42-4.7-2.93-7-4.55s-4.7-3.61-6.92-5.56a90.55,90.55,0,0,1-7-6.86,92,92,0,0,1-14.45-20.87c0,1.71.12,3.46.21,5.2q0,1.29.09,2.57c.06,1.09.12,2.19.21,3.28.06,1.48.15,3,.3,4.49,0,.59.09,1.18.15,1.77a.59.59,0,0,0,0,.24,4.89,4.89,0,0,0,0,.68c.06,1,.18,1.86.27,2.81.06.68.12,1.39.21,2.1.09,1,.18,2,.3,3,.06.65.18,1.27.24,2,.15,1.09.27,2.19.41,3.28.06.59.15,1.21.24,1.8.21,1.42.38,2.84.62,4.26s.47,3.07.74,4.58a6.35,6.35,0,0,0,.18,1.09c.24,1.51.53,3,.8,4.43,0,.09,0,.18,0,.3.21,1.15.41,2.31.71,3.46q.22,1.37.53,2.75c.27,1.33.56,2.6.86,3.93s.65,2.9,1,4.35c1.27,5.23,2.63,10.41,4.17,15.52.65,2.16,1.33,4.32,2,6.44s1.42,4.26,2.13,6.36L361.54,590l14.51-8.37,56.7,32.72v65.51l-13.89,8h0l-11.62,6.71c1.45,1.69,3,3.34,4.52,5s3,3.31,4.61,4.94c1.8,1.86,3.61,3.7,5.47,5.53a0,0,0,0,0,0,0c1.48,1.48,3,3,4.55,4.38,4.08,3.9,8.31,7.66,12.62,11.29,2,1.66,4,3.31,6,4.91,1.63,1.33,3.28,2.6,4.94,3.87.74.59,1.51,1.15,2.25,1.69,1.57,1.18,3.13,2.34,4.7,3.49.24.15.47.33.71.5,2,1.48,4.11,2.9,6.18,4.32,1.71,1.15,3.46,2.31,5.2,3.43s3.52,2.25,5.26,3.34,3.55,2.19,5.35,3.25,3.61,2.1,5.44,3.1,3.43,1.92,5.14,2.84c2,1,3.9,2.07,5.88,3.07,2.19,1.12,4.37,2.19,6.59,3.22l3.25,1.57c1.09.53,2.22,1,3.31,1.51V724.05L566,691.27l56.7,32.78v65.48l-9.61,5.56c3.16.15,6.39.33,9.61.38.92,0,1.83.06,2.78.06,1.57,0,3.13.06,4.7.06,1,0,2,0,2.93,0s1.86,0,2.75,0c3.28-.06,6.53-.21,9.78-.36l-9.78-5.65V724.05l56.7-32.78,56.73,32.78V770.7c2.25-.95,4.43-2,6.59-3s4.4-2.1,6.56-3.19c1.89-.95,3.78-1.89,5.65-2.9,3-1.6,6.09-3.28,9.07-5,1.36-.74,2.69-1.54,4-2.34q7.14-4.21,14-8.81c5.47-3.67,10.79-7.48,16-11.5,1.12-.86,2.22-1.71,3.31-2.6,2-1.54,4-3.13,5.91-4.76l4.79-4.08c3.16-2.72,6.24-5.53,9.28-8.45s6-5.82,8.93-8.84c1.57-1.63,3.1-3.25,4.67-4.91.74-.83,1.48-1.66,2.25-2.48s1.51-1.66,2.25-2.48l-11.62-6.77-15.14-8.72V614.38l56.7-32.72,16.05,9.25,11.59,6.68c1.51-4.2,2.9-8.48,4.2-12.77ZM559.39,679.89l-56.73,32.72-56.73-32.72V614.38l56.73-32.72,56.73,32.72Zm139.73,0V614.38l56.73-32.72,56.73,32.72v65.51l-56.73,32.72Z"/><path d="M907.11,406.84,886,363.3l-6,1h0l-172.51,29.5a460.33,460.33,0,0,1-154.51.24L380,365.13l-12.3-2-17.09,45.26-.27.65-.74,2v0l0,0-3.61,9.61-7.24,22.29c-.36,1.89-.71,3.81-1,5.73-.68,3.81-1.24,7.69-1.74,11.56q-.4,2.93-.71,5.85c1.6,5.62,3.67,12.89,4.32,15.31l.09.38c0,.09,0,.15.06.24a77,77,0,0,0,6.92,19.21,3.68,3.68,0,0,0,.24.47A75.65,75.65,0,0,0,355,514.06a79.68,79.68,0,0,0,6.92,7.57,78.05,78.05,0,0,0,7,5.88c1.51,1.15,3.07,2.25,4.67,3.31a81.36,81.36,0,0,0,66.75,9.81l48.33-13.86,13.89-4,59.89-17.2a243,243,0,0,1,43.63-8.4c6.89-.68,13.75-1.06,20.63-1.15l3.7,0c.41,0,.89,0,1.33,0,7,0,14,.35,21,1A243,243,0,0,1,698,505.45L755.88,522l7,2,6.95,2,41.59,11.88a88,88,0,0,0,73-11.23c1.77-1.15,3.46-2.36,5.09-3.64a84.37,84.37,0,0,0,7-6,78.86,78.86,0,0,0,6.92-7.48,82.05,82.05,0,0,0,10.32-16.05c.18-.44.41-.83.62-1.3a82.83,82.83,0,0,0,7.3-25.66ZM569.38,471.22c-7.15-.3-14.37-.65-21.55-.89A245,245,0,0,0,502,474c-11.12,1.83-21.46,2.51-32.46-.8-20.81-6.33-38-23.53-44.13-44.43l-5.79-19.6c59,7,110.73,34.2,161.93,62.61C579,470.34,572.28,471.37,569.38,471.22Zm261.17-42.45a67.15,67.15,0,0,1-44.16,44.43c-11,3.31-21.34,2.63-32.46.8a245,245,0,0,0-45.79-3.67c-7.21.24-14.37.59-21.55.89-2.9.15-9.64-.89-12.21.56,51.2-28.41,102.93-55.6,161.93-62.61Z"/><path d="M886.65,349.43l-13.89,2.34L705,380.5a449.93,449.93,0,0,1-149.75.27l-168.17-28.2h0l-13.86-2.31c-1,1.77-2,3.55-3,5.35s-2,3.58-2.93,5.41-1.86,3.61-2.78,5.44v0c-.92,1.83-1.83,3.67-2.69,5.53s-1.74,3.72-2.6,5.62c-1,2.22-2,4.49-2.93,6.77l-.09.18c-.44,1.06-.89,2.16-1.33,3.25l-.44,1.15c-.77,1.92-1.54,3.87-2.25,5.79-.56,1.54-1.15,3.07-1.68,4.64-.36,1-.71,2-1,3L348.21,406v0c-.06.15-.09.3-.15.44-.18.53-.35,1.06-.5,1.6-.12.33-.24.65-.32,1v0l-.09.27v0c-.24.77-.47,1.54-.74,2.31-.06.24-.15.5-.21.74s-.18.53-.27.83v0c-1,3.31-1.92,6.65-2.81,10-.38,1.42-.74,2.87-1.09,4.32s-.74,3-1.06,4.46c-.15.65-.3,1.3-.44,1.92-.06.35-.15.71-.21,1.06l-.09.33c-.56,2.51-1.06,5-1.54,7.54-.36,1.89-.71,3.81-1,5.73-.68,3.81-1.24,7.69-1.74,11.56q-.4,2.93-.71,5.85c1.6,5.62,3.67,12.89,4.32,15.31-.36-1.74-.68-3.49-.89-5.26l7.3-55.48,3.61-9.61,0,0v0l.74-2,.27-.65,17.09-45.26,12.3,2,173,28.94a460.33,460.33,0,0,0,154.51-.24l172.51-29.5h0l6-1,21.11,43.54L922.92,450A295.08,295.08,0,0,0,886.65,349.43Z"/><polygon points="353.88 414.04 300.88 339.12 254.29 367.44 200.38 343.69 193.07 381.15 255.2 409.47 299.97 376.58 353.88 414.04"/><polygon points="355.45 407.31 265.72 426.55 273.42 480.53 230.38 520.74 261.94 542.2 312.42 496.23 299.8 442.13 355.45 407.31"/><path d="M519.78,760.12q-5.32-2.22-10.55-4.7v0c-2.22-1-4.43-2.1-6.56-3.19v14.63l3.25,1.57c1.09.5,2.22,1,3.31,1.48A292,292,0,0,0,559.33,787a295.27,295.27,0,0,0,53.74,8l9.61-5.56v-7.21A281.23,281.23,0,0,1,519.78,760.12Zm0,0q-5.32-2.22-10.55-4.7v0c-2.22-1-4.43-2.1-6.56-3.19v14.63l3.25,1.57c1.09.5,2.22,1,3.31,1.48A292,292,0,0,0,559.33,787a295.27,295.27,0,0,0,53.74,8l9.61-5.56v-7.21A281.23,281.23,0,0,1,519.78,760.12Z"/><path d="M622.69,789.53l-9.62,5.56c3.18.15,6.38.31,9.62.37.92,0,1.83.06,2.78.06,1.56,0,3.11.06,4.7.06,1,0,2,0,2.9,0s1.86,0,2.75,0c3.3-.06,6.54-.18,9.8-.34a295.13,295.13,0,0,0,103.63-24.5c2.23-.95,4.43-2,6.6-3s4.4-2.11,6.57-3.21a297.87,297.87,0,0,0,80.91-59.25c1.59-1.65,3.12-3.27,4.67-4.92s3-3.3,4.52-5A297.11,297.11,0,0,0,910.1,597.6c1.5-4.21,2.87-8.49,4.18-12.77a297.4,297.4,0,0,0,12.65-86v-.86a96.16,96.16,0,0,1-13.87,21.44,281.66,281.66,0,0,1-10.51,58.67c-1.22,4.31-2.6,8.61-4.06,12.86q-3.16,9.21-7,18.3a281.76,281.76,0,0,1-50.61,79.41c-1.5,1.68-3,3.33-4.58,5s-3.12,3.27-4.74,4.89l-.85.85a282,282,0,0,1-68.29,50.43c-2.17,1.16-4.37,2.26-6.57,3.36s-4.37,2.11-6.6,3.15q-4.31,2-8.71,3.85a281.68,281.68,0,0,1-104.73,22.24c-1.86,0-3.76.06-5.65.06-2.51,0-5,0-7.48-.12Z"/><path d="M925.32,467.71c-2.6,8.19-7.69,17.85-11,24.42-.21.47-.44.86-.62,1.3a282.36,282.36,0,0,0-22.23-105c-3.49-8.25-7.33-16.23-11.56-24.06-2.28-4.23-4.67-8.42-7.15-12.53a0,0,0,0,0,0,0,283.79,283.79,0,0,0-485.65.8c-2.51,4.14-4.88,8.31-7.15,12.56-4,7.54-7.74,15.34-11.11,23.26a281.23,281.23,0,0,0-21.43,88.44c-.21,2.42-.36,4.88-.47,7.33s-.21,4.94-.27,7.42-.09,4.79-.09,7.21v2.42A77,77,0,0,1,339.67,482c0-.09,0-.15-.06-.24l-.09-.38c-.65-2.42-2.72-9.7-4.32-15.31q.31-2.93.71-5.85c.5-3.87,1.09-7.74,1.74-11.56.33-1.92.68-3.84,1-5.73.47-2.51,1-5,1.54-7.54.09-.44.18-.92.3-1.39s.3-1.27.44-1.92c.32-1.51.68-3,1.06-4.46s.71-2.9,1.09-4.32c.89-3.37,1.8-6.71,2.81-10l0,0c.06-.27.15-.53.24-.83.3-1,.62-2,.95-3v0l.09-.27,0,0c.09-.33.18-.65.3-1,.15-.53.32-1.06.5-1.6.06-.15.09-.3.15-.44v0l1.24-3.64c.32-1,.68-2,1-3,.53-1.57,1.12-3.1,1.68-4.64.71-1.92,1.48-3.87,2.25-5.79.56-1.48,1.15-2.93,1.77-4.4l.09-.18c.95-2.28,1.92-4.55,2.93-6.77.86-1.89,1.71-3.75,2.6-5.62s1.77-3.7,2.69-5.53v0c.92-1.83,1.83-3.64,2.78-5.44s2-3.64,2.93-5.41,2-3.58,3-5.35A297.78,297.78,0,0,1,518.86,223.63,117.15,117.15,0,0,0,576,174.32l20.22-34.41,16.05,51.55a4.86,4.86,0,0,0,8.9.89L674.64,94l8.1,28.05a199.71,199.71,0,0,0,93.62,118.39,298.83,298.83,0,0,1,110.29,109A295.08,295.08,0,0,1,922.92,450Q924.38,458.75,925.32,467.71Z"/><path d="M333.5,506.09q0,2.61.18,5.22,0,1.28.09,2.57c.06,1.1.12,2.2.21,3.27.06,1.5.15,3,.31,4.52.06.89.12,1.8.21,2.69s.15,1.86.24,2.81c.06.67.12,1.37.21,2.08.09,1,.18,2,.31,3,.06.64.15,1.28.21,2,.15,1.1.28,2.2.43,3.27.06.61.15,1.22.24,1.8.18,1.44.37,2.84.61,4.28s.46,3.05.73,4.58a6.88,6.88,0,0,0,.18,1.1c.24,1.5.52,2.93.79,4.43,0,.09,0,.18,0,.28.21,1.16.43,2.32.7,3.48q.23,1.37.55,2.75c.24,1.31.55,2.6.85,3.91s.64,2.9,1,4.37q1.88,7.83,4.15,15.52c.64,2.14,1.34,4.31,2,6.44s1.4,4.25,2.14,6.35a296.17,296.17,0,0,0,57.27,97.92c1.46,1.68,3,3.36,4.52,5s3.05,3.3,4.61,4.92a297.48,297.48,0,0,0,79.75,59c2.17,1.13,4.37,2.2,6.57,3.24V752.21c-2.2-1.1-4.4-2.26-6.57-3.42a283,283,0,0,1-66.46-49.45c-.49-.52-1-1-1.53-1.56-1.59-1.62-3.18-3.24-4.7-4.89s-3.09-3.3-4.55-5a281.44,281.44,0,0,1-50-78.71c-2.66-6.32-5.1-12.74-7.3-19.18-.73-2.14-1.44-4.28-2.08-6.41s-1.34-4.31-2-6.48A278.52,278.52,0,0,1,347.95,527,91.34,91.34,0,0,1,333.5,506.09Z"/><line x1="581.59" y1="326.7" x2="486.23" y2="292.39"/><rect x="527.4" y="258.87" width="13.03" height="101.34" transform="translate(61.92 707.16) rotate(-70.21)"/><line x1="675.11" y1="326.7" x2="770.47" y2="292.39"/><rect x="672.12" y="303.03" width="101.34" height="13.03" transform="translate(-62.11 262.99) rotate(-19.79)"/><text class="cls-1" transform="translate(187.17 1027.51)">ninjalig</text><text class="cls-2" transform="translate(357.98 1188.03)">Gamers</text></svg>