<svg id="Layer_1" data-name="Layer 1" xmlns="http://www.w3.org/2000/svg" xmlns:xlink="http://www.w3.org/1999/xlink" viewBox="0 0 1200 1325.32"><defs><style>.cls-1{fill:url(#linear-gradient);}.cls-2{fill:url(#linear-gradient-2);}.cls-3{fill:url(#linear-gradient-3);}.cls-4{fill:url(#linear-gradient-4);}.cls-5{fill:url(#linear-gradient-13);}</style><linearGradient id="linear-gradient" x1="168.14" y1="378.63" x2="327.79" y2="378.63" gradientUnits="userSpaceOnUse"><stop offset="0" stop-color="#f0f"/><stop offset="1" stop-color="blue"/></linearGradient><linearGradient id="linear-gradient-2" x1="205.17" y1="476.1" x2="329.35" y2="476.1" xlink:href="#linear-gradient"/><linearGradient id="linear-gradient-3" x1="309.25" y1="448.18" x2="895.14" y2="448.18" xlink:href="#linear-gradient"/><linearGradient id="linear-gradient-4" x1="101.81" y1="950.58" x2="1097.53" y2="950.58" xlink:href="#linear-gradient"/><linearGradient id="linear-gradient-13" x1="646.39" y1="1143.83" x2="1099.72" y2="1143.83" xlink:href="#linear-gradient"/></defs><title>Ninjatech Gaming vertical gradient</title><path d="M872.54,578.66l-13.44-7.78V540.71a100.65,100.65,0,0,1-52.83,14.94,102.33,102.33,0,0,1-28.14-4L740.74,541l-6.9-2L726.91,537l-6.57-1.88v35.72L664,603.43l-56.29-32.55V510.69c-4.34-.12-8.72-.12-13.06.09v60.11l-56.29,32.55L482,570.88v-35l-6.66,1.91L469,539.6v31.29l-56.32,32.55-56.32-32.55v-19.4a93.31,93.31,0,0,1-13.65-6.69c-2.38-1.41-4.67-2.91-6.93-4.52s-4.67-3.58-6.87-5.52a89.9,89.9,0,0,1-7-6.81,91.3,91.3,0,0,1-14.35-20.72c0,1.7.12,3.43.2,5.17q0,1.28.09,2.55c.06,1.09.12,2.17.2,3.26.06,1.47.15,3,.29,4.46,0,.59.09,1.17.15,1.76a.58.58,0,0,0,0,.23,4.85,4.85,0,0,0,0,.68c.06,1,.18,1.85.26,2.79.06.67.12,1.38.21,2.08.09,1,.18,2,.29,2.93.06.65.17,1.26.23,1.94.15,1.09.27,2.17.41,3.26.06.59.15,1.2.24,1.79.2,1.41.38,2.82.62,4.23s.47,3.05.73,4.55a6.3,6.3,0,0,0,.18,1.09c.24,1.5.53,2.93.79,4.4,0,.09,0,.18,0,.29.21,1.14.41,2.29.71,3.43q.22,1.36.53,2.73c.27,1.32.56,2.58.85,3.9s.65,2.88,1,4.31c1.26,5.19,2.61,10.33,4.14,15.41.65,2.14,1.32,4.28,2,6.4s1.41,4.23,2.11,6.31l11.53-6.63,14.41-8.31,56.29,32.49v65l-13.79,8h0l-11.53,6.66c1.44,1.67,3,3.32,4.49,5s3,3.29,4.58,4.9c1.79,1.85,3.58,3.67,5.43,5.49a0,0,0,0,0,0,0c1.47,1.47,3,2.93,4.52,4.34,4.05,3.87,8.25,7.6,12.53,11.21,2,1.64,4,3.29,6,4.87,1.61,1.32,3.26,2.58,4.9,3.84.73.59,1.5,1.14,2.23,1.67,1.56,1.17,3.11,2.32,4.67,3.46.23.15.47.32.7.5,2,1.47,4.08,2.88,6.13,4.29,1.7,1.14,3.43,2.29,5.17,3.4s3.49,2.23,5.22,3.32,3.52,2.17,5.31,3.23S456.2,756,458,757s3.4,1.91,5.11,2.82c1.94,1,3.87,2.05,5.84,3.05,2.17,1.12,4.34,2.17,6.54,3.2l3.23,1.56c1.09.53,2.2,1,3.29,1.5V723.61l56.35-32.55,56.29,32.55v65l-9.54,5.52c3.14.15,6.34.32,9.54.38.91,0,1.82.06,2.76.06,1.55,0,3.11.06,4.67.06,1,0,2,0,2.91,0s1.85,0,2.73,0c3.26-.06,6.49-.21,9.71-.35l-9.71-5.61v-65L664,691.06l56.32,32.55v46.31c2.23-.94,4.4-2,6.54-3s4.37-2.08,6.52-3.17c1.88-.94,3.76-1.88,5.6-2.88,3-1.58,6-3.26,9-5,1.35-.73,2.67-1.53,4-2.32q7.09-4.18,13.91-8.75c5.43-3.64,10.71-7.43,15.85-11.42,1.12-.85,2.2-1.7,3.29-2.58,2-1.53,3.93-3.11,5.87-4.73l4.75-4.05c3.14-2.7,6.19-5.49,9.22-8.39s6-5.78,8.86-8.78c1.55-1.61,3.08-3.23,4.64-4.87.73-.82,1.47-1.64,2.23-2.47s1.5-1.64,2.23-2.47l-11.53-6.72-15-8.66v-65l56.29-32.49,15.94,9.19L880,598.06c1.5-4.17,2.88-8.42,4.17-12.68ZM531.83,679.76l-56.32,32.49-56.32-32.49v-65l56.32-32.49,56.32,32.49Zm138.73,0v-65l56.32-32.49,56.32,32.49v65l-56.32,32.49Z"/><polygon class="cls-1" points="327.79 415.82 275.18 341.44 228.91 369.56 175.39 345.97 168.13 383.16 229.82 411.28 274.27 378.63 327.79 415.82"/><polygon class="cls-2" points="329.35 409.13 240.26 428.24 247.91 481.83 205.17 521.76 236.51 543.06 286.63 497.42 274.1 443.7 329.35 409.13"/><path d="M492.5,759.42q-5.28-2.2-10.48-4.67v0c-2.2-1-4.4-2.08-6.51-3.17v14.53l3.23,1.56c1.09.5,2.2,1,3.29,1.47a289.88,289.88,0,0,0,49.75,17.05,293.15,293.15,0,0,0,53.35,8l9.54-5.52v-7.16A279.22,279.22,0,0,1,492.5,759.42Zm0,0q-5.28-2.2-10.48-4.67v0c-2.2-1-4.4-2.08-6.51-3.17v14.53l3.23,1.56c1.09.5,2.2,1,3.29,1.47a289.88,289.88,0,0,0,49.75,17.05,293.15,293.15,0,0,0,53.35,8l9.54-5.52v-7.16A279.22,279.22,0,0,1,492.5,759.42Z"/><path d="M594.68,788.62l-9.55,5.52c3.15.15,6.34.3,9.55.36.91,0,1.82.06,2.76.06,1.55,0,3.09.06,4.67.06,1,0,1.94,0,2.88,0s1.85,0,2.73,0c3.28-.06,6.49-.18,9.73-.33a293,293,0,0,0,102.89-24.32c2.21-.94,4.4-1.94,6.55-2.94s4.37-2.09,6.52-3.18A295.74,295.74,0,0,0,813.74,705c1.58-1.64,3.09-3.24,4.64-4.88s3-3.28,4.49-4.94A295,295,0,0,0,880,598.06c1.49-4.18,2.85-8.43,4.15-12.68A295.27,295.27,0,0,0,896.74,500v-.85A95.47,95.47,0,0,1,883,520.4a279.64,279.64,0,0,1-10.43,58.25c-1.21,4.28-2.58,8.55-4,12.77q-3.14,9.14-6.94,18.16a279.74,279.74,0,0,1-50.25,78.84c-1.49,1.67-3,3.31-4.55,4.94s-3.09,3.24-4.7,4.85l-.85.85a280,280,0,0,1-67.81,50.07c-2.15,1.15-4.34,2.24-6.52,3.34s-4.34,2.09-6.55,3.12q-4.28,2-8.64,3.82a279.66,279.66,0,0,1-104,22.08c-1.85,0-3.73.06-5.61.06-2.49,0-5,0-7.43-.12Z"/><path class="cls-3" d="M892.76,451.49a292.8,292.8,0,0,0-36-99.82L843,354,676.43,382.52a446.67,446.67,0,0,1-148.68.26l-167-28h0L347,352.5c-1,1.76-2,3.52-3,5.32s-1.93,3.54-2.9,5.37-1.85,3.58-2.76,5.4v0c-.91,1.82-1.81,3.64-2.67,5.5s-1.74,3.7-2.58,5.57c-1,2.2-2,4.46-2.91,6.72l-.09.18-.66,1.6c-.15.36-.3.72-.44,1.09-.23.55-.45,1.12-.66,1.68-.76,1.91-1.53,3.84-2.22,5.75-.56,1.53-1.15,3-1.68,4.61-.35,1-.7,2-1,2.93-.41,1.21-.83,2.41-1.24,3.61v0c-.06.14-.09.29-.14.43-.18.53-.35,1.06-.5,1.58-.11.32-.2.65-.29,1l0,0a2.45,2.45,0,0,1-.08.26v0c-.2.63-.39,1.27-.61,1.91l-.33,1.12c0,.14-.09.27-.13.42a3.51,3.51,0,0,0-.11.4l0,0c-1,3.28-1.91,6.6-2.79,9.94-.38,1.41-.74,2.85-1.09,4.29s-.73,2.94-1.06,4.43c-.14.65-.29,1.29-.44,1.91-.05.36-.14.71-.2,1.06,0,.12-.05.21-.08.32-.55,2.5-1.06,5-1.53,7.49-.36,1.87-.71,3.78-1,5.69-.48,2.84-.93,5.72-1.34,8.6-.14,1-.26,1.92-.39,2.88-.26,1.93-.49,3.88-.71,5.81,1.58,5.58,3.65,12.8,4.29,15.2,0,.12.06.27.09.38a2.08,2.08,0,0,0,.06.24,75.89,75.89,0,0,0,6.87,19.08,3.47,3.47,0,0,0,.23.47,74.75,74.75,0,0,0,8.1,12.27,79.62,79.62,0,0,0,6.87,7.51,75.61,75.61,0,0,0,6.93,5.84c1.5,1.15,3.05,2.23,4.63,3.29a80.77,80.77,0,0,0,66.27,9.75l48-13.77,13.79-4,59.47-17.08a240.76,240.76,0,0,1,43.31-8.33c6.84-.68,13.65-1.06,20.49-1.15l3.66,0c.42,0,.89,0,1.32,0,7,0,13.89.36,20.84,1a241,241,0,0,1,45,8.43L726.91,523l6.93,2,6.9,2L782,538.74a87.36,87.36,0,0,0,72.52-11.15c1.76-1.14,3.43-2.34,5.05-3.61a83.75,83.75,0,0,0,6.92-6,78.8,78.8,0,0,0,6.88-7.43,81.58,81.58,0,0,0,10.24-15.93c.18-.44.41-.83.61-1.29,3.26-6.52,8.31-16.11,10.89-24.24Q894.22,460.21,892.76,451.49Zm-351,21.09c-7.11-.29-14.27-.64-21.4-.88a243.36,243.36,0,0,0-45.46,3.64c-11,1.82-21.31,2.5-32.22-.79a66.57,66.57,0,0,1-43.82-44.11L393.1,411c58.61,7,109.94,34,160.77,62.16C551.32,471.71,544.63,472.74,541.75,472.59ZM801,430.45a66.67,66.67,0,0,1-43.85,44.11c-10.91,3.29-21.19,2.62-32.22.79a243.36,243.36,0,0,0-45.46-3.64c-7.17.24-14.26.59-21.4.88-2.87.15-9.57-.88-12.11.56,50.83-28.21,102.19-55.21,160.77-62.16Z"/><path d="M856.75,351.68,843,354a281.77,281.77,0,0,0-482.17.79h0L347,352.5A295.67,295.67,0,0,1,491.59,226.77a116.29,116.29,0,0,0,56.71-49l20.07-34.16,15.94,51.19a4.83,4.83,0,0,0,8.83.89L646.26,98.1l8,27.85A198.24,198.24,0,0,0,747.25,243.5,296.65,296.65,0,0,1,856.75,351.68Z"/><path d="M307.56,507.21q0,2.59.18,5.19,0,1.27.09,2.55c.06,1.09.12,2.18.21,3.24.06,1.49.15,3,.3,4.49.06.88.12,1.79.21,2.67s.15,1.85.24,2.79c.06.67.12,1.36.21,2.06.09,1,.18,2,.3,2.94.06.64.15,1.27.21,1.94.15,1.09.27,2.18.42,3.24.06.61.15,1.21.24,1.79.18,1.43.36,2.82.61,4.25s.46,3,.73,4.55a6.83,6.83,0,0,0,.18,1.09c.24,1.49.52,2.91.79,4.4,0,.09,0,.18,0,.27.21,1.15.42,2.3.7,3.46q.23,1.36.55,2.73c.24,1.3.54,2.58.85,3.88s.64,2.88,1,4.34q1.86,7.78,4.12,15.4c.64,2.12,1.33,4.28,2,6.4s1.39,4.22,2.12,6.31a294,294,0,0,0,56.86,97.22c1.45,1.67,3,3.34,4.49,5s3,3.27,4.58,4.88A295.35,295.35,0,0,0,469,762.88c2.15,1.12,4.34,2.18,6.52,3.21V751.57c-2.18-1.09-4.37-2.24-6.52-3.4a281,281,0,0,1-66-49.1c-.49-.52-1-1-1.52-1.55-1.58-1.61-3.15-3.21-4.67-4.85s-3.06-3.28-4.52-4.94a279.42,279.42,0,0,1-49.64-78.15c-2.64-6.28-5.06-12.65-7.25-19-.73-2.12-1.43-4.25-2.06-6.37s-1.33-4.28-1.94-6.43A276.53,276.53,0,0,1,321.9,528,90.69,90.69,0,0,1,307.56,507.21Z"/><line x1="553.87" y1="329.1" x2="459.2" y2="295.04"/><rect x="500.07" y="261.76" width="12.94" height="100.62" transform="translate(41.43 683.07) rotate(-70.21)"/><line x1="646.73" y1="329.1" x2="741.4" y2="295.04"/><rect x="643.76" y="305.6" width="100.62" height="12.94" transform="translate(-64.67 253.41) rotate(-19.79)"/><path class="cls-4" d="M137.79,878.56,138.87,893q13-17.18,33.95-17.18,37.73,0,38.82,52.88v96.16H173.22V931.58q0-12.44-3.72-18.06t-13.05-5.61q-10.42,0-16.23,10.69V1024.9H101.81V878.56Z"/><path class="cls-4" d="M239.09,840.69q0-8.93,5.68-14.61t15.15-5.68q9.47,0,15.15,5.68t5.68,14.61a20.19,20.19,0,0,1-5.61,14.61q-5.61,5.82-15.22,5.82T244.7,855.3A20.18,20.18,0,0,1,239.09,840.69Zm40.17,184.21H240.85V878.56h38.41Z"/><path class="cls-4" d="M343.91,878.56,345,893q13-17.18,33.95-17.18,37.73,0,38.82,52.88v96.16H379.35V931.58q0-12.44-3.72-18.06t-13.05-5.61q-10.42,0-16.23,10.69V1024.9H307.93V878.56Z"/><path class="cls-4" d="M485.52,878.56v154.19q0,25-11.5,38.14T441.43,1084a65.24,65.24,0,0,1-17.31-2.3l-.14-31.24a56.94,56.94,0,0,0,10.14,1.22q12.71,0,13-17.85V878.56Zm-41-37.87q0-8.93,5.68-14.61t15.15-5.68q9.47,0,15.15,5.68t5.68,14.61a20.19,20.19,0,0,1-5.61,14.61q-5.61,5.82-15.22,5.82t-15.22-5.82A20.18,20.18,0,0,1,444.54,840.69Z"/><path class="cls-4" d="M582.76,1024.9a53.44,53.44,0,0,1-3.25-11.36q-10.28,14.07-27.86,14.07-18.4,0-30.5-12.17t-12.1-31.51q0-23,14.67-35.57T566,935.5h11.63V923.74q0-9.87-3.38-13.93t-9.87-4.06q-14.34,0-14.34,16.77H511.76q0-20.29,15.22-33.47t38.48-13.19q24.07,0,37.26,12.51t13.19,35.77V993q.27,18.94,5.41,29.62v2.3Zm-22.59-27.32A21.35,21.35,0,0,0,571,995a18.18,18.18,0,0,0,6.63-6.09V958.49h-9.2q-9.74,0-15.35,6.22t-5.61,16.64Q547.46,997.58,560.18,997.58Z"/><path class="cls-4" d="M688.12,842.59v36h19.61v28.67H688.12V980q0,8.67,2.37,11.92t9.13,3.25a35.74,35.74,0,0,0,9.06-.95l-.27,29.76a59.63,59.63,0,0,1-21.1,3.65q-37.06,0-37.46-42.52V907.23H632.94V878.56h16.91v-36Z"/><path class="cls-4" d="M787.8,1027.61q-29.49,0-46-17.58t-16.5-50.31V948.08q0-34.62,15.15-53.42t43.42-18.8q27.59,0,41.52,17.63t14.2,52.19v18.77H763.46q.81,16.3,7.17,23.84t19.61,7.54q19.2,0,32.05-13.12l15,23.13q-7,9.74-20.42,15.76A70.13,70.13,0,0,1,787.8,1027.61ZM763.73,937.8H802v-3.52q-.27-13.12-4.33-19.88t-14.07-6.76q-10,0-14.54,7.17T763.73,937.8Z"/><path class="cls-4" d="M914.13,995.82q16.64,0,16.91-21.64h36q-.27,23.94-14.74,38.68t-37.33,14.74q-28.27,0-43.14-17.58t-15.15-51.8V946.59q0-34.49,14.67-52.61t43.35-18.12q24.21,0,38.14,14.95T967,933.2H931q-.14-12.3-4.06-18.93t-13-6.63q-10,0-14.34,7.1t-4.6,27.52v14.88q0,17.85,1.76,25t5.82,10.41Q906.69,995.83,914.13,995.82Z"/><path class="cls-4" d="M1026,891.41q12.44-15.55,30.57-15.55,20,0,30.43,14.07t10.55,41.93v93.05h-38.41V932.26q0-12.85-4-18.6t-12.92-5.75q-10.42,0-16.23,9.6V1024.9H987.7V817.16H1026Z"/><path class="cls-5" d="M717,1171.19a35.31,35.31,0,0,1-14.24,11,47.33,47.33,0,0,1-18.8,3.68q-17.34,0-27.24-11.61T646.39,1142v-27.4q0-21.59,9.4-33.08T682.61,1070q15.55,0,24.38,8.59t9.91,24.76h-8.82q-1.39-13-7.62-19t-17.76-6q-13.78,0-20.62,9.17t-6.85,26.89v26q0,17.64,7.55,27.39t21.17,9.75q14.78,0,24.14-9.36v-29.33H683.38v-8.28H717Z"/><path class="cls-5" d="M784.76,1184.27a54.35,54.35,0,0,1-1.55-11.61,27.57,27.57,0,0,1-9.94,9.71,26.32,26.32,0,0,1-13.19,3.44q-10.84,0-16.87-6.11t-6-17.41q0-12.3,8.4-19.5t23.18-7.27h14.39v-11.68q0-9-4.45-12.89t-13-3.91q-8,0-13.08,4.64a15.47,15.47,0,0,0-5.11,12l-8.59-.08a22.88,22.88,0,0,1,7.74-17.45Q754.34,1099,766,1099q12.61,0,19.11,6.35t6.5,18.5v41.09q0,12.3,2.24,18.42v.93Zm-23.6-6.73a23.42,23.42,0,0,0,13.43-3.95,23,23,0,0,0,8.55-10.52v-20.35H769.51q-11.76.16-17.72,5.22t-6,13.66Q745.83,1177.54,761.15,1177.54Z"/><path class="cls-5" d="M823,1100.54l.23,12.54Q831,1099,845.66,1099q16.17,0,20.89,15.4a28.5,28.5,0,0,1,10.18-11.53,25.25,25.25,0,0,1,13.58-3.87q22.6,0,23.14,29.1v56.18h-8.59v-55.64q-.16-10.83-4-16.14t-12.69-5.3a18,18,0,0,0-13.47,6.19,24.94,24.94,0,0,0-6.27,15.17v55.72h-8.67v-55.41q0-11-4.06-16.33T843,1107.19a17.13,17.13,0,0,0-12.19,4.88q-5.15,4.88-7.47,13.93v58.27h-8.59v-83.73Z"/><path class="cls-5" d="M935.58,1076.39a7,7,0,0,1,1.47-4.49,5,5,0,0,1,4.18-1.86,5.13,5.13,0,0,1,4.22,1.86,6.89,6.89,0,0,1,1.51,4.49,6.74,6.74,0,0,1-1.51,4.45,5.18,5.18,0,0,1-4.22,1.82,5.07,5.07,0,0,1-4.18-1.82A6.85,6.85,0,0,1,935.58,1076.39Zm9.91,107.88h-8.67v-83.73h8.67Z"/><path class="cls-5" d="M977.45,1100.54l.23,13.31a31.08,31.08,0,0,1,9.48-10.83,22.37,22.37,0,0,1,13.12-4q21.9,0,22.44,29.17v56.11h-8.51v-55.18q-.08-11.22-3.95-16.56t-12.15-5.34a17.22,17.22,0,0,0-12.11,5.07q-5.38,5.07-8.16,13.89v58.12h-8.59v-83.73Z"/><path class="cls-5" d="M1042.53,1138.53q0-19.81,6.81-29.68t20.43-9.87q14.47,0,21.51,13.23l.46-11.69h8v86.13q-.08,15.17-7.24,23.06t-20.86,7.89a31.61,31.61,0,0,1-13.89-3.4,28.34,28.34,0,0,1-10.64-8.29l4-6.19q8.59,9.83,19.89,9.83,10.45,0,15.21-5.55t4.84-16.89v-13.31q-7,12-21.36,12-13.08,0-20-9.83t-7.16-28.4Zm8.67,7.82q0,16.1,4.88,23.68t15.32,7.58q13.93,0,19.66-13.23v-42.79q-5.8-14.32-19.5-14.32-10.53,0-15.4,7.51t-5,23.22Z"/></svg>