<svg id="Layer_1" data-name="Layer 1" xmlns="http://www.w3.org/2000/svg" xmlns:xlink="http://www.w3.org/1999/xlink" viewBox="0 0 1277.98 420"><defs><style>.cls-1{fill:url(#linear-gradient);}.cls-2{fill:url(#linear-gradient-2);}.cls-3{fill:url(#linear-gradient-3);}.cls-4{fill:url(#linear-gradient-4);}</style><linearGradient id="linear-gradient" x1="38.99" y1="187.31" x2="92.47" y2="187.31" gradientUnits="userSpaceOnUse"><stop offset="0" stop-color="#f0f"/><stop offset="1" stop-color="blue"/></linearGradient><linearGradient id="linear-gradient-2" x1="51.4" y1="219.96" x2="92.99" y2="219.96" xlink:href="#linear-gradient"/><linearGradient id="linear-gradient-3" x1="86.26" y1="210.61" x2="282.5" y2="210.61" xlink:href="#linear-gradient"/><linearGradient id="linear-gradient-4" x1="305.79" y1="233.17" x2="1146.05" y2="233.17" xlink:href="#linear-gradient"/></defs><title>Ninjatech Gaming horizontal gradient</title><path d="M274.93,254.31l-4.5-2.61V241.6a33.71,33.71,0,0,1-17.69,5,34.28,34.28,0,0,1-9.43-1.34l-12.52-3.58-2.31-.67-2.32-.65-2.2-.63v12l-18.86,10.9-18.86-10.9V231.54c-1.45,0-2.92,0-4.37,0v20.13L163,262.61l-18.87-10.9V240l-2.23.64-2.14.62v10.48l-18.86,10.9L102,251.71v-6.5A31.26,31.26,0,0,1,97.45,243c-.8-.47-1.56-1-2.32-1.51s-1.56-1.2-2.3-1.85a30.11,30.11,0,0,1-2.34-2.28,30.58,30.58,0,0,1-4.81-6.94c0,.57,0,1.15.07,1.73l0,.86c0,.36,0,.73.07,1.09s0,1,.1,1.49c0,.2,0,.39,0,.59a.2.2,0,0,0,0,.08,1.63,1.63,0,0,0,0,.23c0,.32.06.62.09.93s0,.46.07.7.06.66.1,1,.06.42.08.65.09.73.14,1.09c0,.2,0,.4.08.6.07.47.13.94.21,1.42s.16,1,.25,1.52a2.11,2.11,0,0,0,.06.36c.08.5.18,1,.27,1.47,0,0,0,.06,0,.1.07.38.14.77.24,1.15s.11.61.18.91.19.87.29,1.31.22,1,.33,1.45c.42,1.74.87,3.46,1.39,5.16.22.72.44,1.44.67,2.14s.47,1.42.71,2.11L95,258.29l4.83-2.78,18.85,10.88v21.78l-4.62,2.67h0l-3.86,2.23c.48.56,1,1.11,1.5,1.66s1,1.1,1.53,1.64,1.2,1.23,1.82,1.84h0c.49.49,1,1,1.51,1.46,1.36,1.3,2.76,2.55,4.2,3.76.66.55,1.33,1.1,2,1.63s1.09.87,1.64,1.29c.25.2.5.38.75.56l1.56,1.16.24.17c.68.49,1.37,1,2.05,1.44l1.73,1.14c.58.38,1.17.75,1.75,1.11s1.18.73,1.78,1.08,1.2.7,1.81,1,1.14.64,1.71.94,1.3.69,2,1,1.45.73,2.19,1.07l1.08.52c.36.18.74.33,1.1.5V302.86L163,292l18.85,10.9v21.77l-3.19,1.85c1.05,0,2.12.11,3.19.13l.92,0,1.56,0h1.89c1.09,0,2.17-.07,3.25-.12l-3.25-1.88V302.86L205.09,292,224,302.86v15.51c.75-.31,1.47-.66,2.19-1s1.46-.7,2.18-1.06,1.26-.63,1.88-1c1-.53,2-1.09,3-1.66.45-.25.89-.51,1.34-.78q2.37-1.4,4.66-2.93c1.82-1.22,3.59-2.49,5.31-3.82l1.1-.87c.66-.51,1.32-1,2-1.58l1.59-1.36c1.05-.9,2.07-1.84,3.09-2.81s2-1.94,3-2.94L256.8,295l.75-.83.75-.83-3.86-2.25-5-2.9V266.39l18.86-10.88,5.34,3.08,3.85,2.22c.5-1.4,1-2.82,1.4-4.25ZM160.81,288.18l-18.86,10.88-18.86-10.88V266.39l18.86-10.88,18.86,10.88Zm46.47,0V266.39l18.86-10.88L245,266.39v21.78l-18.86,10.88Z"/><polygon class="cls-1" points="92.47 199.77 74.84 174.85 59.35 184.27 41.42 176.37 38.99 188.83 59.65 198.25 74.54 187.31 92.47 199.77"/><polygon class="cls-2" points="92.99 197.53 63.15 203.93 65.71 221.88 51.4 235.25 61.89 242.39 78.68 227.1 74.48 209.11 92.99 197.53"/><path d="M147.64,314.86q-1.77-.74-3.51-1.56h0c-.74-.34-1.47-.7-2.18-1.06v4.87l1.08.52,1.1.49a97.1,97.1,0,0,0,16.66,5.71,98.19,98.19,0,0,0,17.87,2.67l3.19-1.85v-2.4A93.53,93.53,0,0,1,147.64,314.86Zm0,0q-1.77-.74-3.51-1.56h0c-.74-.34-1.47-.7-2.18-1.06v4.87l1.08.52,1.1.49a97.1,97.1,0,0,0,16.66,5.71,98.19,98.19,0,0,0,17.87,2.67l3.19-1.85v-2.4A93.53,93.53,0,0,1,147.64,314.86Z"/><path d="M181.86,324.64l-3.2,1.85c1.06.05,2.12.1,3.2.12l.92,0,1.56,0h1.88c1.1,0,2.17-.06,3.26-.11A98.15,98.15,0,0,0,224,318.37c.74-.31,1.47-.65,2.19-1s1.46-.7,2.18-1.07a99.06,99.06,0,0,0,26.91-19.71l1.55-1.64c.5-.55,1-1.1,1.5-1.66a98.81,98.81,0,0,0,19.15-32.51c.5-1.4,1-2.82,1.39-4.25A98.9,98.9,0,0,0,283,228v-.28a32,32,0,0,1-4.61,7.13,93.67,93.67,0,0,1-3.49,19.51c-.41,1.43-.86,2.86-1.35,4.28q-1.05,3.06-2.33,6.08a93.7,93.7,0,0,1-16.83,26.41c-.5.56-1,1.11-1.52,1.66s-1,1.09-1.57,1.63l-.28.28a93.79,93.79,0,0,1-22.71,16.77c-.72.39-1.45.75-2.18,1.12s-1.45.7-2.19,1q-1.43.67-2.89,1.28a93.67,93.67,0,0,1-34.83,7.39l-1.88,0c-.83,0-1.67,0-2.49,0Z"/><path class="cls-3" d="M281.71,211.72a98.08,98.08,0,0,0-12.06-33.43l-4.62.78-55.78,9.55a149.62,149.62,0,0,1-49.8.09l-55.93-9.38h0l-4.61-.77c-.35.59-.68,1.18-1,1.78s-.65,1.19-1,1.8-.62,1.2-.92,1.81h0c-.31.61-.61,1.22-.89,1.84s-.58,1.24-.86,1.87-.66,1.5-1,2.25l0,.06-.22.54-.15.37-.22.56c-.25.64-.51,1.29-.74,1.93s-.39,1-.56,1.54c-.12.33-.23.66-.34,1l-.41,1.21h0s0,.1,0,.15-.12.35-.17.53-.07.22-.1.33h0l0,.09h0c-.07.21-.13.43-.2.64l-.11.37s0,.09,0,.14a1.17,1.17,0,0,0,0,.13h0c-.33,1.1-.64,2.21-.93,3.33-.13.47-.25,1-.37,1.44s-.25,1-.35,1.48c0,.22-.1.43-.15.64s0,.24-.07.35l0,.11c-.19.84-.35,1.67-.51,2.51-.12.63-.24,1.27-.35,1.91-.16,1-.31,1.91-.45,2.88,0,.32-.09.64-.13,1-.09.65-.17,1.3-.24,1.95.53,1.87,1.22,4.29,1.44,5.09l0,.13a.7.7,0,0,0,0,.08,25.42,25.42,0,0,0,2.3,6.39,1.16,1.16,0,0,0,.08.16A25,25,0,0,0,92.83,233a26.67,26.67,0,0,0,2.3,2.52,25.33,25.33,0,0,0,2.32,2c.5.39,1,.75,1.55,1.1a27.05,27.05,0,0,0,22.2,3.26l16.07-4.61,4.62-1.34,19.92-5.72a80.64,80.64,0,0,1,14.51-2.79c2.29-.23,4.57-.35,6.86-.39h1.67c2.34,0,4.65.12,7,.33a80.74,80.74,0,0,1,15.06,2.82l19.26,5.5,2.32.66,2.31.66,13.83,4a29.26,29.26,0,0,0,24.29-3.74c.59-.38,1.15-.78,1.69-1.21a28.05,28.05,0,0,0,2.32-2,26.39,26.39,0,0,0,2.3-2.49,27.33,27.33,0,0,0,3.43-5.34c.06-.15.14-.28.21-.43a61.52,61.52,0,0,0,3.65-8.12Q282.2,214.64,281.71,211.72Zm-117.57,7.07c-2.38-.1-4.78-.21-7.17-.29a81.51,81.51,0,0,0-15.23,1.22,23,23,0,0,1-10.79-.27,22.3,22.3,0,0,1-14.68-14.77l-1.93-6.52c19.63,2.33,36.83,11.37,53.85,20.82C167.34,218.49,165.1,218.83,164.14,218.78ZM251,204.67a22.33,22.33,0,0,1-14.69,14.77,23,23,0,0,1-10.79.27,81.51,81.51,0,0,0-15.23-1.22c-2.4.08-4.78.2-7.17.29-1,.05-3.2-.29-4.06.19,17-9.45,34.23-18.49,53.85-20.82Z"/><path d="M269.64,178.28l-4.62.78a94.38,94.38,0,0,0-161.51.27h0l-4.61-.77a99,99,0,0,1,48.43-42.11,39,39,0,0,0,19-16.4l6.72-11.44,5.34,17.14a1.62,1.62,0,0,0,3,.3l17.79-32.7,2.69,9.33A66.4,66.4,0,0,0,233,142,99.37,99.37,0,0,1,269.64,178.28Z"/><path d="M85.69,230.38q0,.87.06,1.74l0,.85c0,.37,0,.73.07,1.09s.05,1,.1,1.5c0,.29,0,.6.07.89s.05.62.08.93,0,.46.07.69.06.66.1,1,.05.43.07.65.09.73.14,1.09c0,.2.05.41.08.6.06.48.12.94.2,1.42s.15,1,.24,1.52a2.29,2.29,0,0,0,.06.37c.08.5.17,1,.26,1.47,0,0,0,.06,0,.09.07.39.14.77.23,1.16s.11.61.18.91.18.86.28,1.3.21,1,.34,1.45q.62,2.61,1.38,5.16c.21.71.45,1.43.67,2.14s.47,1.41.71,2.11a98.49,98.49,0,0,0,19,32.56c.49.56,1,1.12,1.5,1.67s1,1.1,1.53,1.64A98.93,98.93,0,0,0,139.76,316c.72.38,1.45.73,2.18,1.08v-4.87c-.73-.37-1.46-.75-2.18-1.14a94.12,94.12,0,0,1-22.1-16.44l-.51-.52c-.53-.54-1.06-1.08-1.56-1.63s-1-1.1-1.51-1.66a93.59,93.59,0,0,1-16.63-26.18c-.88-2.1-1.7-4.24-2.43-6.38-.24-.71-.48-1.42-.69-2.13s-.45-1.43-.65-2.15a92.62,92.62,0,0,1-3.18-16.68A30.38,30.38,0,0,1,85.69,230.38Z"/><line x1="168.2" y1="170.72" x2="136.48" y2="159.31"/><rect x="150.17" y="148.16" width="4.33" height="33.7" transform="translate(-54.5 252.5) rotate(-70.21)"/><line x1="199.3" y1="170.72" x2="231.01" y2="159.31"/><rect x="198.3" y="162.85" width="33.7" height="4.33" transform="translate(-43.16 82.59) rotate(-19.79)"/><path class="cls-4" d="M326.28,196.76l.55,7.32A20.52,20.52,0,0,1,344,195.4q19.08,0,19.62,26.73v48.61H344.19V223.57q0-6.29-1.88-9.13t-6.6-2.84q-5.27,0-8.21,5.4v53.74H308.09v-74Z"/><path class="cls-4" d="M377.49,177.62a10,10,0,0,1,2.87-7.38,11.65,11.65,0,0,1,15.32,0,10,10,0,0,1,2.87,7.38,10.53,10.53,0,1,1-21.06,0Zm20.31,93.12H378.38v-74H397.8Z"/><path class="cls-4" d="M430.48,196.76l.55,7.32a20.52,20.52,0,0,1,17.16-8.68q19.08,0,19.62,26.73v48.61H448.39V223.57q0-6.29-1.88-9.13t-6.6-2.84q-5.27,0-8.21,5.4v53.74H412.29v-74Z"/><path class="cls-4" d="M502.07,196.76v77.95q0,12.65-5.81,19.28t-16.48,6.63a33,33,0,0,1-8.75-1.16L471,283.67a28.81,28.81,0,0,0,5.13.62q6.43,0,6.56-9V196.76Zm-20.72-19.14a10,10,0,0,1,2.87-7.38,11.65,11.65,0,0,1,15.32,0,10,10,0,0,1,2.87,7.38,10.53,10.53,0,1,1-21.06,0Z"/><path class="cls-4" d="M551.23,270.74a27,27,0,0,1-1.64-5.74,16.54,16.54,0,0,1-14.08,7.11A20.84,20.84,0,0,1,520.08,266Q514,259.8,514,250q0-11.62,7.42-18t21.37-6.5h5.88V219.6q0-5-1.71-7a6.13,6.13,0,0,0-5-2.05q-7.25,0-7.25,8.48H515.33A21.42,21.42,0,0,1,523,202.06q7.69-6.67,19.45-6.67,12.17,0,18.84,6.32T568,219.81v34.8q.14,9.57,2.74,15v1.16Zm-11.42-13.81a10.79,10.79,0,0,0,5.47-1.3,9.18,9.18,0,0,0,3.35-3.08V237.17H544a9.92,9.92,0,0,0-7.76,3.15,12.08,12.08,0,0,0-2.84,8.41Q533.38,256.93,539.81,256.93Z"/><path class="cls-4" d="M604.49,178.58v18.19h9.91v14.5h-9.91V248q0,4.38,1.2,6t4.62,1.64a18.07,18.07,0,0,0,4.58-.48l-.14,15a30.14,30.14,0,0,1-10.67,1.85q-18.74,0-18.94-21.49V211.26h-8.55v-14.5h8.55V178.58Z"/><path class="cls-4" d="M654.88,272.11q-14.91,0-23.25-8.89t-8.34-25.44v-5.88q0-17.5,7.66-27t21.95-9.5q13.95,0,21,8.91t7.18,26.39v9.49H642.57q.41,8.24,3.62,12.05t9.91,3.81a21.76,21.76,0,0,0,16.2-6.63l7.59,11.69a25,25,0,0,1-10.32,8A35.45,35.45,0,0,1,654.88,272.11Zm-12.17-45.4h19.35v-1.78q-.14-6.63-2.19-10.05t-7.11-3.42q-5.06,0-7.35,3.62T642.71,226.71Z"/><path class="cls-4" d="M718.74,256q8.41,0,8.55-10.94h18.19q-.14,12.1-7.45,19.56t-18.87,7.45q-14.29,0-21.81-8.89T689.68,237v-5.88q0-17.44,7.42-26.6T719,195.4q12.24,0,19.28,7.56t7.18,21.44H727.29q-.07-6.22-2.05-9.57t-6.56-3.35q-5.06,0-7.25,3.59T709.1,229v7.52q0,9,.89,12.61a9.49,9.49,0,0,0,2.94,5.26A9,9,0,0,0,718.74,256Z"/><path class="cls-4" d="M775.28,203.26q6.29-7.86,15.45-7.86,10.12,0,15.38,7.11t5.33,21.2v47H792V223.91q0-6.5-2-9.4t-6.53-2.91a9.14,9.14,0,0,0-8.21,4.85v54.29H755.93v-105h19.35Z"/><path class="cls-4" d="M890.7,259.19a31.19,31.19,0,0,1-12.58,9.67,41.8,41.8,0,0,1-16.61,3.25q-15.32,0-24.07-10.26t-9.09-28.44v-24.2q0-19.08,8.31-29.23t23.69-10.15q13.74,0,21.54,7.59t8.75,21.88h-7.79q-1.23-11.49-6.73-16.79t-15.69-5.3q-12.17,0-18.22,8.1t-6.05,23.76v23q0,15.59,6.67,24.2t18.7,8.62q13.06,0,21.33-8.27V230.68H861v-7.32H890.7Z"/><path class="cls-4" d="M950.59,270.74a48,48,0,0,1-1.37-10.26,24.36,24.36,0,0,1-8.79,8.58,23.25,23.25,0,0,1-11.66,3q-9.57,0-14.91-5.4t-5.33-15.38q0-10.87,7.42-17.23t20.48-6.43h12.72V217.34q0-7.93-3.93-11.38t-11.52-3.45a16.52,16.52,0,0,0-11.56,4.1,13.67,13.67,0,0,0-4.51,10.6l-7.59-.07a20.21,20.21,0,0,1,6.84-15.42q6.84-6.32,17.16-6.32,11.14,0,16.89,5.61t5.74,16.34v36.31q0,10.87,2,16.27v.82Zm-20.85-5.95a20.69,20.69,0,0,0,11.86-3.49,20.31,20.31,0,0,0,7.56-9.3V234h-12q-10.39.14-15.66,4.62a15,15,0,0,0-5.26,12.07Q916.2,264.8,929.74,264.8Z"/><path class="cls-4" d="M984.37,196.76l.21,11.08q6.9-12.44,19.83-12.44,14.29,0,18.46,13.61a25.18,25.18,0,0,1,9-10.19,22.31,22.31,0,0,1,12-3.42q20,0,20.44,25.71v49.64h-7.59V221.58q-.14-9.57-3.55-14.26t-11.21-4.68a15.92,15.92,0,0,0-11.9,5.47,22,22,0,0,0-5.54,13.4v49.23h-7.66v-49q0-9.71-3.59-14.43t-11.18-4.72A15.13,15.13,0,0,0,991.31,207q-4.55,4.31-6.6,12.31v51.48h-7.59v-74Z"/><path class="cls-4" d="M1083.85,175.43a6.19,6.19,0,0,1,1.3-4,4.44,4.44,0,0,1,3.69-1.64,4.53,4.53,0,0,1,3.73,1.64,6.09,6.09,0,0,1,1.33,4,6,6,0,0,1-1.33,3.93,4.58,4.58,0,0,1-3.73,1.61,4.47,4.47,0,0,1-3.69-1.61A6.05,6.05,0,0,1,1083.85,175.43Zm8.75,95.31h-7.66v-74h7.66Z"/><path class="cls-4" d="M1120.84,196.76l.21,11.76a27.47,27.47,0,0,1,8.38-9.57A19.76,19.76,0,0,1,1141,195.4q19.35,0,19.83,25.78v49.57h-7.52V222q-.07-9.91-3.49-14.63t-10.74-4.72a15.21,15.21,0,0,0-10.7,4.48,28.07,28.07,0,0,0-7.21,12.27v51.35h-7.59v-74Z"/><path class="cls-4" d="M1178.34,230.34q0-17.5,6-26.22t18-8.72q12.79,0,19,11.69l.41-10.32h7v76.1q-.07,13.4-6.39,20.38t-18.43,7a27.93,27.93,0,0,1-12.27-3,25,25,0,0,1-9.4-7.32l3.56-5.47q7.59,8.68,17.57,8.68,9.23,0,13.43-4.91t4.27-14.93V261.51q-6.22,10.6-18.87,10.6-11.55,0-17.67-8.68t-6.32-25.09Zm7.66,6.91q0,14.22,4.31,20.92t13.54,6.7q12.31,0,17.37-11.69V215.36q-5.13-12.65-17.23-12.65-9.3,0-13.61,6.63T1186,229.86Z"/></svg>