<svg xmlns="http://www.w3.org/2000/svg" xmlns:xlink="http://www.w3.org/1999/xlink" version="1.1" width="256" height="256" viewBox="0 0 256 256" xml:space="preserve">

<defs>
</defs>
<g style="stroke: none; stroke-width: 0; stroke-dasharray: none; stroke-linecap: butt; stroke-linejoin: miter; stroke-miterlimit: 10; fill: none; fill-rule: nonzero; opacity: 1;" transform="translate(1.4065934065934016 1.4065934065934016) scale(2.81 2.81)" >
	<path d="M 79.35 77.115 H 10.651 C 4.778 77.115 0 72.337 0 66.464 V 23.536 c 0 -5.873 4.778 -10.65 10.65 -10.65 H 79.35 c 5.873 0 10.65 4.778 10.65 10.65 v 42.928 C 90 72.337 85.223 77.115 79.35 77.115 z M 10.65 19.885 c -2.013 0 -3.65 1.638 -3.65 3.65 v 42.928 c 0 2.014 1.638 3.651 3.651 3.651 H 79.35 c 2.013 0 3.65 -1.638 3.65 -3.651 V 23.536 c 0 -2.013 -1.638 -3.65 -3.65 -3.65 H 10.65 z" style="stroke: none; stroke-width: 1; stroke-dasharray: none; stroke-linecap: butt; stroke-linejoin: miter; stroke-miterlimit: 10; fill: rgb(0,0,0); fill-rule: nonzero; opacity: 1;" transform=" matrix(1 0 0 1 0 0) " stroke-linecap="round" />
	<path d="M 45 60.229 c -0.796 0 -1.592 -0.271 -2.241 -0.812 l -30.71 -25.595 c -1.485 -1.237 -1.686 -3.444 -0.448 -4.93 c 1.237 -1.483 3.445 -1.686 4.929 -0.447 L 45 52.173 l 28.469 -23.727 c 1.484 -1.238 3.691 -1.036 4.93 0.447 c 1.237 1.485 1.037 3.692 -0.447 4.93 l -30.71 25.595 C 46.592 59.959 45.796 60.229 45 60.229 z" style="stroke: none; stroke-width: 1; stroke-dasharray: none; stroke-linecap: butt; stroke-linejoin: miter; stroke-miterlimit: 10; fill: rgb(0,0,0); fill-rule: nonzero; opacity: 1;" transform=" matrix(1 0 0 1 0 0) " stroke-linecap="round" />
</g>
</svg>