<svg xmlns="http://www.w3.org/2000/svg" xmlns:xlink="http://www.w3.org/1999/xlink" version="1.1" width="256" height="256" viewBox="0 0 256 256" xml:space="preserve">

<defs>
</defs>
<g style="stroke: none; stroke-width: 0; stroke-dasharray: none; stroke-linecap: butt; stroke-linejoin: miter; stroke-miterlimit: 10; fill: none; fill-rule: nonzero; opacity: 1;" transform="translate(1.4065934065934016 1.4065934065934016) scale(2.81 2.81)" >
	<path d="M 45.13 20.658 c -13.288 0 -24.094 10.803 -24.099 24.081 c -0.002 4.55 1.271 8.981 3.683 12.816 l 0.574 0.911 l -2.435 8.886 l 9.118 -2.391 l 0.88 0.522 c 3.698 2.194 7.938 3.355 12.261 3.357 h 0.009 c 13.278 0 24.084 -10.804 24.09 -24.082 c 0.002 -6.435 -2.501 -12.485 -7.049 -17.037 C 57.613 23.169 51.565 20.661 45.13 20.658 z M 59.301 55.091 c -0.603 1.691 -3.56 3.322 -4.888 3.442 c -1.328 0.121 -2.573 0.601 -8.69 -1.812 c -7.36 -2.903 -12.008 -10.448 -12.37 -10.931 c -0.362 -0.484 -2.957 -3.927 -2.957 -7.49 c 0 -3.563 1.871 -5.315 2.535 -6.039 c 0.663 -0.725 1.448 -0.906 1.931 -0.906 c 0.482 0 0.966 -0.001 1.388 0.017 c 0.516 0.021 1.087 0.045 1.63 1.251 l 0 0 c 0.644 1.432 2.051 5.013 2.233 5.375 c 0.181 0.362 0.302 0.785 0.06 1.269 c -0.241 0.483 -0.362 0.785 -0.723 1.208 c -0.362 0.423 -0.761 0.944 -1.087 1.268 c -0.363 0.361 -0.74 0.753 -0.318 1.477 c 0.423 0.725 1.876 3.096 4.029 5.015 c 2.767 2.467 5.099 3.231 5.824 3.594 c 0.724 0.362 1.147 0.302 1.569 -0.182 c 0.423 -0.483 1.81 -2.114 2.292 -2.838 c 0.483 -0.725 0.966 -0.604 1.63 -0.363 c 0.664 0.242 4.224 1.994 4.948 2.356 c 0.724 0.362 1.207 0.543 1.388 0.845 C 59.904 51.951 59.904 53.4 59.301 55.091 z" style="stroke: none; stroke-width: 1; stroke-dasharray: none; stroke-linecap: butt; stroke-linejoin: miter; stroke-miterlimit: 10; fill: rgb(0,0,0); fill-rule: nonzero; opacity: 1;" transform=" matrix(1 0 0 1 0 0) " stroke-linecap="round" />
	<path d="M 45 0 C 20.147 0 0 20.147 0 45 c 0 24.853 20.147 45 45 45 s 45 -20.147 45 -45 C 90 20.147 69.853 0 45 0 z M 45.122 73.734 h -0.012 c -4.851 -0.002 -9.616 -1.219 -13.85 -3.527 l -15.365 4.029 l 4.112 -15.013 c -2.536 -4.394 -3.87 -9.379 -3.869 -14.485 l 0 -0.001 c 0.007 -15.975 13.008 -28.972 28.984 -28.972 c 7.753 0.003 15.029 3.021 20.502 8.497 c 5.472 5.476 8.484 12.756 8.481 20.498 C 74.098 60.735 61.095 73.734 45.122 73.734 z" style="stroke: none; stroke-width: 1; stroke-dasharray: none; stroke-linecap: butt; stroke-linejoin: miter; stroke-miterlimit: 10; fill: rgb(0,0,0); fill-rule: nonzero; opacity: 1;" transform=" matrix(1 0 0 1 0 0) " stroke-linecap="round" />
</g>
</svg>